;TYPE=PLATED
;Layer: PTH_Through
;EasyEDA Pro Client v2.2.43.4, 2025-12-31 16:20:32
;Gerber Generator version 0.3
M48
METRIC,LZ,0000.00000
;Hole size 1 = 0.30500 METRIC
T01C0.30500
;Hole size 2 = 0.90000 METRIC
T02C0.90000
;Hole size 3 = 0.91440 METRIC
T03C0.91440
;Hole size 4 = 1.00000 METRIC
T04C1.00000
;Hole size 5 = 1.00000 METRIC
T05C1.00000
;Hole size 6 = 1.04999 METRIC
T06C1.04999
;Hole size 7 = 1.10002 METRIC
T07C1.10002
%
G05
G90
T01
X35.55492Y10.47052
X26.83701Y29.043
X50.39944Y26.61349
X39.76197Y8.334
X41.743Y28.34903
X47.6537Y13.40548
X42.5737Y18.48549
X22.74397Y27.9174
X48.37506Y22.60631
X48.89068Y17.21549
X36.96797Y7.318
T02
X33.4264Y23.9776
X33.4264Y16.3576
X35.9664Y23.9776
X30.8864Y23.9776
X30.8864Y16.3576
X35.9664Y16.3576
X22.098Y24.511
X22.098Y21.971
X22.098Y19.431
X22.098Y16.891
X22.098Y14.351
X22.098Y11.811
X22.098Y9.271
X9.144Y15.621
X9.144Y18.161
T03
X8.01197Y4.524
X10.55197Y4.524
X13.09197Y4.524
X15.63197Y4.524
X18.17197Y4.524
X20.71197Y4.524
X23.25197Y4.524
X25.79197Y4.524
X28.33197Y4.524
X30.87197Y4.524
X33.41197Y4.524
X35.95197Y4.524
X38.49197Y4.524
X41.03197Y4.524
X43.57197Y4.524
X46.11197Y4.524
X48.65197Y4.524
X51.19197Y4.524
X53.73197Y4.524
X56.27197Y4.524
X56.27197Y29.9494
X53.73197Y29.9494
X51.19197Y29.9494
X48.65197Y29.9494
X46.11197Y29.9494
X43.57197Y29.9494
X41.03197Y29.9494
X38.49197Y29.9494
X35.95197Y29.9494
X33.41197Y29.9494
X30.87197Y29.9494
X28.33197Y29.9494
X25.79197Y29.9494
X23.25197Y29.9494
X20.71197Y29.9494
X18.17197Y29.9494
X15.63197Y29.9494
X13.09197Y29.9494
X10.55197Y29.9494
X8.01197Y29.9494
T04
X55.07716Y37.1031G85X55.07716Y36.3031
X46.77694Y37.1031G85X46.77694Y36.3031
X50.92705Y36.7031
X48.92705Y36.7031
X52.92705Y36.7031
T05
X37.3634Y9.1694
X34.8234Y9.1694
X32.2834Y9.1694
T06
X8.001Y1.651
X10.541Y1.651
X13.081Y1.651
X15.621Y1.651
X18.161Y1.651
X20.701Y1.651
X23.241Y1.651
X25.781Y1.651
X28.321Y1.651
X30.861Y1.651
X33.401Y1.651
X35.941Y1.651
X38.481Y1.651
X41.021Y1.651
X43.561Y1.651
X46.101Y1.651
X48.641Y1.651
X51.181Y1.651
X53.721Y1.651
X56.261Y1.651
X56.261Y32.766
X53.721Y32.766
X51.181Y32.766
X48.641Y32.766
X46.101Y32.766
X43.561Y32.766
X41.021Y32.766
X38.481Y32.766
X35.941Y32.766
X33.401Y32.766
X30.861Y32.766
X28.321Y32.766
X25.781Y32.766
X23.241Y32.766
X20.701Y32.766
X18.161Y32.766
X15.621Y32.766
X13.081Y32.766
X10.541Y32.766
X8.001Y32.766
T07
X41.7432Y36.8301
X36.74306Y36.8301
X31.8372Y36.8301
X26.83706Y36.8301
X21.9312Y36.8301
X16.93106Y36.8301
X12.0252Y36.8301
X7.02506Y36.8301
M30