G04 Layer: TopSilkscreenLayer*
G04 EasyEDA Pro v2.2.43.4, 2025-12-31 16:20:31*
G04 Gerber Generator version 0.3*
G04 Scale: 100 percent, Rotated: No, Reflected: No*
G04 Dimensions in millimeters*
G04 Leading zeros omitted, absolute positions, 4 integers and 5 decimals*
G04 Generated by one-click*
%FSLAX45Y45*%
%MOMM*%
%ADD10C,0.254*%
%ADD11C,0.2730*%
G75*


G04 Text Start*
G36*
G01X4555779Y3828992D02*
G01X4555952Y3828646D01*
G01X4555779Y3827607D01*
G01X4555432Y3809596D01*
G01X4555259Y3803188D01*
G01X4555432Y3796781D01*
G01X4555779Y3780501D01*
G01X4555952Y3779289D01*
G01X4555779Y3778856D01*
G01X4555259Y3778943D01*
G01X4553701Y3779809D01*
G01X4552315Y3780674D01*
G01X4551103Y3781367D01*
G01X4550064Y3782060D01*
G01X4527896Y3782406D01*
G01X4505556Y3782233D01*
G01X4504690Y3781541D01*
G01X4503824Y3780155D01*
G01X4502785Y3778423D01*
G01X4502309Y3777860D01*
G01X4501919Y3777904D01*
G01X4501053Y3778596D01*
G01X4498282Y3780674D01*
G01X4497416Y3781367D01*
G01X4496377Y3782060D01*
G01X4495338Y3782926D01*
G01X4495165Y3783792D01*
G01X4495858Y3784311D01*
G01X4496724Y3785004D01*
G01X4497589Y3785870D01*
G01X4497979Y3790719D01*
G01X4498067Y3800071D01*
G01X4504344Y3800071D01*
G01X4504344Y3785177D01*
G01X4549024Y3785177D01*
G01X4549024Y3792451D01*
G01X4549024Y3792451D01*
G01X4548851Y3799898D01*
G01X4526511Y3800071D01*
G01X4504344Y3800071D01*
G01X4498067Y3800071D01*
G01X4498109Y3804574D01*
G01X4497992Y3817389D01*
G01X4504344Y3817389D01*
G01X4504344Y3802496D01*
G01X4549024Y3802496D01*
G01X4549024Y3809769D01*
G01X4549024Y3809769D01*
G01X4548851Y3817216D01*
G01X4526511Y3817389D01*
G01X4504344Y3817389D01*
G01X4497992Y3817389D01*
G01X4497936Y3823451D01*
G01X4497763Y3825009D01*
G01X4497893Y3825875D01*
G01X4498282Y3826394D01*
G01X4499841Y3827087D01*
G01X4503304Y3828473D01*
G01X4504344Y3828819D01*
G01X4504344Y3819814D01*
G01X4549024Y3819814D01*
G01X4549024Y3822931D01*
G01X4549198Y3825356D01*
G01X4549717Y3826394D01*
G01X4550929Y3827087D01*
G01X4552315Y3827780D01*
G01X4553874Y3828473D01*
G01X4555259Y3828992D01*
G01X4555779Y3828992D01*
G37*
G36*
G01X4329084Y3804574D02*
G01X4329084Y3779289D01*
G01X4351251Y3779289D01*
G01X4351251Y3775479D01*
G01X4329084Y3775479D01*
G01X4329084Y3749848D01*
G01X4324927Y3749848D01*
G01X4324927Y3775479D01*
G01X4302760Y3775479D01*
G01X4302760Y3779289D01*
G01X4324927Y3779289D01*
G01X4324927Y3804574D01*
G01X4329084Y3804574D01*
G37*
G36*
G01X4564394Y3745172D02*
G01X4565131Y3744826D01*
G01X4565996Y3743787D01*
G01X4567728Y3742055D01*
G01X4563139Y3741665D01*
G01X4548678Y3741536D01*
G01X4529282Y3741536D01*
G01X4529455Y3740323D01*
G01X4529974Y3738072D01*
G01X4530667Y3736340D01*
G01X4531360Y3734781D01*
G01X4532226Y3733049D01*
G01X4533092Y3731664D01*
G01X4533784Y3730625D01*
G01X4534477Y3729759D01*
G01X4534997Y3728893D01*
G01X4535689Y3728027D01*
G01X4536556Y3727161D01*
G01X4536556Y3726122D01*
G01X4536079Y3725776D01*
G01X4535343Y3725776D01*
G01X4533784Y3726296D01*
G01X4532053Y3726988D01*
G01X4530494Y3727681D01*
G01X4528069Y3728720D01*
G01X4526857Y3729413D01*
G01X4525818Y3730106D01*
G01X4524952Y3730625D01*
G01X4524259Y3731491D01*
G01X4523740Y3732876D01*
G01X4523394Y3735301D01*
G01X4523740Y3737726D01*
G01X4524259Y3739111D01*
G01X4524952Y3740150D01*
G01X4525645Y3741016D01*
G01X4522874Y3741406D01*
G01X4514215Y3741536D01*
G01X4501919Y3741189D01*
G01X4500880Y3740496D01*
G01X4500014Y3739804D01*
G01X4496551Y3736340D01*
G01X4495684Y3735647D01*
G01X4494819Y3735647D01*
G01X4488757Y3741709D01*
G01X4487372Y3743441D01*
G01X4495555Y3743830D01*
G01X4520796Y3743960D01*
G01X4556125Y3744133D01*
G01X4559242Y3744479D01*
G01X4561321Y3744826D01*
G01X4563226Y3745172D01*
G01X4564394Y3745172D01*
G37*
G36*
G01X4461741Y3767166D02*
G01X4462953Y3766647D01*
G01X4463819Y3765608D01*
G01X4465551Y3763876D01*
G01X4454467Y3763486D01*
G01X4420524Y3763356D01*
G01X4374457Y3763010D01*
G01X4371340Y3760412D01*
G01X4368742Y3757814D01*
G01X4368179Y3757771D01*
G01X4367530Y3758334D01*
G01X4366318Y3759893D01*
G01X4364066Y3762144D01*
G01X4363027Y3763529D01*
G01X4361296Y3765261D01*
G01X4372552Y3765651D01*
G01X4407016Y3765781D01*
G01X4453601Y3765954D01*
G01X4457065Y3766301D01*
G01X4460529Y3766993D01*
G01X4461741Y3767166D01*
G37*
G36*
G01X4460182Y3826914D02*
G01X4460875Y3826568D01*
G01X4461741Y3825529D01*
G01X4463473Y3823797D01*
G01X4457844Y3823407D01*
G01X4440266Y3823277D01*
G01X4416714Y3823277D01*
G01X4416714Y3819121D01*
G01X4416541Y3814445D01*
G01X4416367Y3813059D01*
G01X4416367Y3812194D01*
G01X4427797Y3812194D01*
G01X4439747Y3812367D01*
G01X4441998Y3812540D01*
G01X4444942Y3812713D01*
G01X4447021Y3813059D01*
G01X4448752Y3813406D01*
G01X4450138Y3813406D01*
G01X4451177Y3812886D01*
G01X4453774Y3810289D01*
G01X4449358Y3809899D01*
G01X4435417Y3809769D01*
G01X4416714Y3809769D01*
G01X4416714Y3807691D01*
G01X4416541Y3805093D01*
G01X4416541Y3800417D01*
G01X4419614Y3799898D01*
G01X4428490Y3799724D01*
G01X4440266Y3799724D01*
G01X4440266Y3801110D01*
G01X4440483Y3802236D01*
G01X4441132Y3802842D01*
G01X4442864Y3803534D01*
G01X4444249Y3804054D01*
G01X4445635Y3804401D01*
G01X4446501Y3804574D01*
G01X4446501Y3803534D01*
G01X4446328Y3801976D01*
G01X4446154Y3787775D01*
G01X4446328Y3773574D01*
G01X4446501Y3771496D01*
G01X4446371Y3770414D01*
G01X4445981Y3770284D01*
G01X4441132Y3773054D01*
G01X4415155Y3773401D01*
G01X4388831Y3773228D01*
G01X4387619Y3772535D01*
G01X4386926Y3771669D01*
G01X4386234Y3770630D01*
G01X4385844Y3770197D01*
G01X4385368Y3770284D01*
G01X4381211Y3773401D01*
G01X4379653Y3774440D01*
G01X4379263Y3774786D01*
G01X4379479Y3775133D01*
G01X4380346Y3775999D01*
G01X4381384Y3776864D01*
G01X4381904Y3779549D01*
G01X4382045Y3785524D01*
G01X4387966Y3785524D01*
G01X4387966Y3776172D01*
G01X4410826Y3776172D01*
G01X4410826Y3778423D01*
G01X4416541Y3778423D01*
G01X4416541Y3777038D01*
G01X4416714Y3776172D01*
G01X4440266Y3776172D01*
G01X4440266Y3780674D01*
G01X4440266Y3780674D01*
G01X4440093Y3785351D01*
G01X4428317Y3785524D01*
G01X4416714Y3785524D01*
G01X4416714Y3782233D01*
G01X4416541Y3778423D01*
G01X4410826Y3778423D01*
G01X4410826Y3780674D01*
G01X4410826Y3780674D01*
G01X4410652Y3785351D01*
G01X4399222Y3785524D01*
G01X4387966Y3785524D01*
G01X4382045Y3785524D01*
G01X4382077Y3786909D01*
G01X4381904Y3797127D01*
G01X4381890Y3797300D01*
G01X4387966Y3797300D01*
G01X4387966Y3788294D01*
G01X4410826Y3788294D01*
G01X4410826Y3792624D01*
G01X4410826Y3792624D01*
G01X4410652Y3797127D01*
G01X4399222Y3797300D01*
G01X4416714Y3797300D01*
G01X4416714Y3788294D01*
G01X4440266Y3788294D01*
G01X4440266Y3792624D01*
G01X4440266Y3792624D01*
G01X4440093Y3797127D01*
G01X4428317Y3797300D01*
G01X4416714Y3797300D01*
G01X4399222Y3797300D01*
G01X4387966Y3797300D01*
G01X4381890Y3797300D01*
G01X4381731Y3799205D01*
G01X4381861Y3800417D01*
G01X4382251Y3800937D01*
G01X4383289Y3801456D01*
G01X4385714Y3802496D01*
G01X4387099Y3803015D01*
G01X4387966Y3803188D01*
G01X4387966Y3799724D01*
G01X4410826Y3799724D01*
G01X4410826Y3809769D01*
G01X4399222Y3809769D01*
G01X4387099Y3809596D01*
G01X4386061Y3809249D01*
G01X4385194Y3808557D01*
G01X4383982Y3807344D01*
G01X4382597Y3806306D01*
G01X4381731Y3805439D01*
G01X4380865Y3804747D01*
G01X4379826Y3804920D01*
G01X4377748Y3807344D01*
G01X4376536Y3808557D01*
G01X4375496Y3809942D01*
G01X4373764Y3811674D01*
G01X4378181Y3812064D01*
G01X4392122Y3812194D01*
G01X4410826Y3812194D01*
G01X4410826Y3823277D01*
G01X4393681Y3823277D01*
G01X4376189Y3822931D01*
G01X4375323Y3822238D01*
G01X4372726Y3819641D01*
G01X4370994Y3818255D01*
G01X4370128Y3817389D01*
G01X4369608Y3817303D01*
G01X4369089Y3817736D01*
G01X4368049Y3818774D01*
G01X4366318Y3820853D01*
G01X4364932Y3822584D01*
G01X4363720Y3823797D01*
G01X4362681Y3825182D01*
G01X4373461Y3825572D01*
G01X4406496Y3825702D01*
G01X4452216Y3825875D01*
G01X4455333Y3826221D01*
G01X4457411Y3826568D01*
G01X4459143Y3826914D01*
G01X4460182Y3826914D01*
G37*
G36*
G01X4445116Y3760932D02*
G01X4445116Y3759893D01*
G01X4444942Y3758334D01*
G01X4444769Y3744306D01*
G01X4444942Y3730279D01*
G01X4445116Y3728720D01*
G01X4445029Y3727984D01*
G01X4444769Y3727854D01*
G01X4443557Y3728374D01*
G01X4440439Y3729759D01*
G01X4439054Y3730452D01*
G01X4414462Y3730798D01*
G01X4396278Y3730625D01*
G01X4389871Y3730106D01*
G01X4388831Y3728720D01*
G01X4388139Y3727508D01*
G01X4387619Y3726988D01*
G01X4386407Y3727508D01*
G01X4384848Y3728547D01*
G01X4382424Y3730279D01*
G01X4381038Y3731144D01*
G01X4380649Y3731491D01*
G01X4380865Y3731837D01*
G01X4381731Y3732703D01*
G01X4382770Y3733569D01*
G01X4383289Y3735994D01*
G01X4383417Y3740843D01*
G01X4389351Y3740843D01*
G01X4389351Y3733223D01*
G01X4438881Y3733223D01*
G01X4438881Y3736859D01*
G01X4438881Y3736859D01*
G01X4438708Y3740669D01*
G01X4413943Y3740843D01*
G01X4389351Y3740843D01*
G01X4383417Y3740843D01*
G01X4383463Y3742574D01*
G01X4383293Y3751580D01*
G01X4389351Y3751580D01*
G01X4389351Y3743614D01*
G01X4438881Y3743614D01*
G01X4438881Y3747424D01*
G01X4438881Y3747424D01*
G01X4438708Y3751407D01*
G01X4413943Y3751580D01*
G01X4389351Y3751580D01*
G01X4383293Y3751580D01*
G01X4383289Y3751753D01*
G01X4383116Y3754178D01*
G01X4383289Y3755693D01*
G01X4383809Y3756429D01*
G01X4386926Y3757814D01*
G01X4388485Y3758334D01*
G01X4389351Y3758507D01*
G01X4389351Y3754351D01*
G01X4438881Y3754351D01*
G01X4438881Y3756256D01*
G01X4439011Y3757771D01*
G01X4439401Y3758507D01*
G01X4440786Y3759200D01*
G01X4442344Y3759893D01*
G01X4444076Y3760586D01*
G01X4445116Y3760932D01*
G37*
G36*
G01X4575521Y3772881D02*
G01X4576214Y3772535D01*
G01X4577080Y3771496D01*
G01X4578812Y3769764D01*
G01X4571711Y3769374D01*
G01X4549717Y3769244D01*
G01X4527550Y3769071D01*
G01X4519930Y3768552D01*
G01X4519237Y3767166D01*
G01X4518544Y3765608D01*
G01X4517159Y3762144D01*
G01X4516466Y3760239D01*
G01X4515774Y3758507D01*
G01X4513176Y3750714D01*
G01X4512656Y3748809D01*
G01X4512137Y3747251D01*
G01X4511964Y3745865D01*
G01X4511617Y3744999D01*
G01X4510405Y3745346D01*
G01X4508846Y3746211D01*
G01X4507461Y3747077D01*
G01X4505036Y3748463D01*
G01X4503997Y3749156D01*
G01X4502958Y3749675D01*
G01X4502266Y3750194D01*
G01X4503131Y3751061D01*
G01X4505556Y3752792D01*
G01X4506768Y3753831D01*
G01X4508500Y3755563D01*
G01X4509539Y3756949D01*
G01X4510751Y3758681D01*
G01X4514215Y3764222D01*
G01X4515254Y3765954D01*
G01X4516120Y3767339D01*
G01X4516639Y3768552D01*
G01X4516813Y3769244D01*
G01X4505729Y3769244D01*
G01X4494126Y3769071D01*
G01X4493087Y3768552D01*
G01X4488757Y3764222D01*
G01X4487026Y3762837D01*
G01X4486333Y3762317D01*
G01X4485467Y3762664D01*
G01X4483735Y3764396D01*
G01X4481657Y3766820D01*
G01X4477327Y3771149D01*
G01X4488194Y3771539D01*
G01X4521489Y3771669D01*
G01X4567555Y3771842D01*
G01X4570326Y3772189D01*
G01X4574482Y3772881D01*
G01X4575521Y3772881D01*
G37*
G36*
G01X4540712Y3767166D02*
G01X4541751Y3766647D01*
G01X4542444Y3765608D01*
G01X4542963Y3764049D01*
G01X4543483Y3761798D01*
G01X4544002Y3760066D01*
G01X4544349Y3758681D01*
G01X4545388Y3755563D01*
G01X4545907Y3754178D01*
G01X4546600Y3752792D01*
G01X4547293Y3751061D01*
G01X4549024Y3747943D01*
G01X4549024Y3746558D01*
G01X4548635Y3746211D01*
G01X4548159Y3746211D01*
G01X4546946Y3746904D01*
G01X4545734Y3747770D01*
G01X4544868Y3748463D01*
G01X4544002Y3748982D01*
G01X4541404Y3751061D01*
G01X4540539Y3751926D01*
G01X4538807Y3753312D01*
G01X4537594Y3754524D01*
G01X4536556Y3756256D01*
G01X4536036Y3757641D01*
G01X4535863Y3759373D01*
G01X4536036Y3761451D01*
G01X4536556Y3763183D01*
G01X4537248Y3764396D01*
G01X4537941Y3765261D01*
G01X4539153Y3766474D01*
G01X4540712Y3767166D01*
G37*
G36*
G01X3527079Y3828992D02*
G01X3527252Y3828646D01*
G01X3527079Y3827607D01*
G01X3526732Y3809596D01*
G01X3526559Y3803188D01*
G01X3526732Y3796781D01*
G01X3527079Y3780501D01*
G01X3527252Y3779289D01*
G01X3527079Y3778856D01*
G01X3526559Y3778943D01*
G01X3525001Y3779809D01*
G01X3523615Y3780674D01*
G01X3522403Y3781367D01*
G01X3521364Y3782060D01*
G01X3499196Y3782406D01*
G01X3476856Y3782233D01*
G01X3475990Y3781541D01*
G01X3475124Y3780155D01*
G01X3474085Y3778423D01*
G01X3473609Y3777860D01*
G01X3473219Y3777904D01*
G01X3472353Y3778596D01*
G01X3469582Y3780674D01*
G01X3468716Y3781367D01*
G01X3467677Y3782060D01*
G01X3466638Y3782926D01*
G01X3466465Y3783792D01*
G01X3467158Y3784311D01*
G01X3468024Y3785004D01*
G01X3468889Y3785870D01*
G01X3469279Y3790719D01*
G01X3469367Y3800071D01*
G01X3475644Y3800071D01*
G01X3475644Y3785177D01*
G01X3520324Y3785177D01*
G01X3520324Y3792451D01*
G01X3520324Y3792451D01*
G01X3520151Y3799898D01*
G01X3497811Y3800071D01*
G01X3475644Y3800071D01*
G01X3469367Y3800071D01*
G01X3469409Y3804574D01*
G01X3469292Y3817389D01*
G01X3475644Y3817389D01*
G01X3475644Y3802496D01*
G01X3520324Y3802496D01*
G01X3520324Y3809769D01*
G01X3520324Y3809769D01*
G01X3520151Y3817216D01*
G01X3497811Y3817389D01*
G01X3475644Y3817389D01*
G01X3469292Y3817389D01*
G01X3469236Y3823451D01*
G01X3469063Y3825009D01*
G01X3469193Y3825875D01*
G01X3469582Y3826394D01*
G01X3471141Y3827087D01*
G01X3474604Y3828473D01*
G01X3475644Y3828819D01*
G01X3475644Y3819814D01*
G01X3520324Y3819814D01*
G01X3520324Y3822931D01*
G01X3520498Y3825356D01*
G01X3521017Y3826394D01*
G01X3522229Y3827087D01*
G01X3523615Y3827780D01*
G01X3525174Y3828473D01*
G01X3526559Y3828992D01*
G01X3527079Y3828992D01*
G37*
G36*
G01X3323936Y3779289D02*
G01X3323936Y3775479D01*
G01X3274406Y3775479D01*
G01X3274406Y3779289D01*
G01X3323936Y3779289D01*
G37*
G36*
G01X3433041Y3767166D02*
G01X3434253Y3766647D01*
G01X3435119Y3765608D01*
G01X3436851Y3763876D01*
G01X3425767Y3763486D01*
G01X3391824Y3763356D01*
G01X3345757Y3763010D01*
G01X3342640Y3760412D01*
G01X3340042Y3757814D01*
G01X3339479Y3757771D01*
G01X3338830Y3758334D01*
G01X3337618Y3759893D01*
G01X3335366Y3762144D01*
G01X3334327Y3763529D01*
G01X3332596Y3765261D01*
G01X3343852Y3765651D01*
G01X3378316Y3765781D01*
G01X3424901Y3765954D01*
G01X3428365Y3766301D01*
G01X3431829Y3766993D01*
G01X3433041Y3767166D01*
G37*
G36*
G01X3416416Y3760932D02*
G01X3416416Y3759893D01*
G01X3416242Y3758334D01*
G01X3416069Y3744306D01*
G01X3416242Y3730279D01*
G01X3416416Y3728720D01*
G01X3416329Y3727984D01*
G01X3416069Y3727854D01*
G01X3414857Y3728374D01*
G01X3411739Y3729759D01*
G01X3410354Y3730452D01*
G01X3385762Y3730798D01*
G01X3367578Y3730625D01*
G01X3361171Y3730106D01*
G01X3360131Y3728720D01*
G01X3359439Y3727508D01*
G01X3358919Y3726988D01*
G01X3357707Y3727508D01*
G01X3356148Y3728547D01*
G01X3353724Y3730279D01*
G01X3352338Y3731144D01*
G01X3351949Y3731491D01*
G01X3352165Y3731837D01*
G01X3353031Y3732703D01*
G01X3354070Y3733569D01*
G01X3354589Y3735994D01*
G01X3354717Y3740843D01*
G01X3360651Y3740843D01*
G01X3360651Y3733223D01*
G01X3410181Y3733223D01*
G01X3410181Y3736859D01*
G01X3410181Y3736859D01*
G01X3410008Y3740669D01*
G01X3385243Y3740843D01*
G01X3360651Y3740843D01*
G01X3354717Y3740843D01*
G01X3354763Y3742574D01*
G01X3354593Y3751580D01*
G01X3360651Y3751580D01*
G01X3360651Y3743614D01*
G01X3410181Y3743614D01*
G01X3410181Y3747424D01*
G01X3410181Y3747424D01*
G01X3410008Y3751407D01*
G01X3385243Y3751580D01*
G01X3360651Y3751580D01*
G01X3354593Y3751580D01*
G01X3354589Y3751753D01*
G01X3354416Y3754178D01*
G01X3354589Y3755693D01*
G01X3355109Y3756429D01*
G01X3358226Y3757814D01*
G01X3359785Y3758334D01*
G01X3360651Y3758507D01*
G01X3360651Y3754351D01*
G01X3410181Y3754351D01*
G01X3410181Y3756256D01*
G01X3410311Y3757771D01*
G01X3410701Y3758507D01*
G01X3412086Y3759200D01*
G01X3413644Y3759893D01*
G01X3415376Y3760586D01*
G01X3416416Y3760932D01*
G37*
G36*
G01X3535694Y3745172D02*
G01X3536431Y3744826D01*
G01X3537296Y3743787D01*
G01X3539028Y3742055D01*
G01X3534439Y3741665D01*
G01X3519978Y3741536D01*
G01X3500582Y3741536D01*
G01X3500755Y3740323D01*
G01X3501274Y3738072D01*
G01X3501967Y3736340D01*
G01X3502660Y3734781D01*
G01X3503526Y3733049D01*
G01X3504392Y3731664D01*
G01X3505084Y3730625D01*
G01X3505777Y3729759D01*
G01X3506297Y3728893D01*
G01X3506989Y3728027D01*
G01X3507856Y3727161D01*
G01X3507856Y3726122D01*
G01X3507379Y3725776D01*
G01X3506643Y3725776D01*
G01X3505084Y3726296D01*
G01X3503353Y3726988D01*
G01X3501794Y3727681D01*
G01X3499369Y3728720D01*
G01X3498157Y3729413D01*
G01X3497118Y3730106D01*
G01X3496252Y3730625D01*
G01X3495559Y3731491D01*
G01X3495040Y3732876D01*
G01X3494694Y3735301D01*
G01X3495040Y3737726D01*
G01X3495559Y3739111D01*
G01X3496252Y3740150D01*
G01X3496945Y3741016D01*
G01X3494174Y3741406D01*
G01X3485515Y3741536D01*
G01X3473219Y3741189D01*
G01X3472180Y3740496D01*
G01X3471314Y3739804D01*
G01X3467851Y3736340D01*
G01X3466984Y3735647D01*
G01X3466119Y3735647D01*
G01X3460057Y3741709D01*
G01X3458672Y3743441D01*
G01X3466855Y3743830D01*
G01X3492096Y3743960D01*
G01X3527425Y3744133D01*
G01X3530542Y3744479D01*
G01X3532621Y3744826D01*
G01X3534526Y3745172D01*
G01X3535694Y3745172D01*
G37*
G36*
G01X3512012Y3767166D02*
G01X3513051Y3766647D01*
G01X3513744Y3765608D01*
G01X3514263Y3764049D01*
G01X3514783Y3761798D01*
G01X3515302Y3760066D01*
G01X3515649Y3758681D01*
G01X3516688Y3755563D01*
G01X3517207Y3754178D01*
G01X3517900Y3752792D01*
G01X3518593Y3751061D01*
G01X3520324Y3747943D01*
G01X3520324Y3746558D01*
G01X3519935Y3746211D01*
G01X3519459Y3746211D01*
G01X3518246Y3746904D01*
G01X3517034Y3747770D01*
G01X3516168Y3748463D01*
G01X3515302Y3748982D01*
G01X3512704Y3751061D01*
G01X3511839Y3751926D01*
G01X3510107Y3753312D01*
G01X3508894Y3754524D01*
G01X3507856Y3756256D01*
G01X3507336Y3757641D01*
G01X3507163Y3759373D01*
G01X3507336Y3761451D01*
G01X3507856Y3763183D01*
G01X3508548Y3764396D01*
G01X3509241Y3765261D01*
G01X3510453Y3766474D01*
G01X3512012Y3767166D01*
G37*
G36*
G01X3431482Y3826914D02*
G01X3432175Y3826568D01*
G01X3433041Y3825529D01*
G01X3434773Y3823797D01*
G01X3429144Y3823407D01*
G01X3411566Y3823277D01*
G01X3388014Y3823277D01*
G01X3388014Y3819121D01*
G01X3387841Y3814445D01*
G01X3387667Y3813059D01*
G01X3387667Y3812194D01*
G01X3399097Y3812194D01*
G01X3411047Y3812367D01*
G01X3413298Y3812540D01*
G01X3416242Y3812713D01*
G01X3418321Y3813059D01*
G01X3420052Y3813406D01*
G01X3421438Y3813406D01*
G01X3422477Y3812886D01*
G01X3425074Y3810289D01*
G01X3420658Y3809899D01*
G01X3406717Y3809769D01*
G01X3388014Y3809769D01*
G01X3388014Y3807691D01*
G01X3387841Y3805093D01*
G01X3387841Y3800417D01*
G01X3390914Y3799898D01*
G01X3399790Y3799724D01*
G01X3411566Y3799724D01*
G01X3411566Y3801110D01*
G01X3411783Y3802236D01*
G01X3412432Y3802842D01*
G01X3414164Y3803534D01*
G01X3415549Y3804054D01*
G01X3416935Y3804401D01*
G01X3417801Y3804574D01*
G01X3417801Y3803534D01*
G01X3417628Y3801976D01*
G01X3417454Y3787775D01*
G01X3417628Y3773574D01*
G01X3417801Y3771496D01*
G01X3417671Y3770414D01*
G01X3417281Y3770284D01*
G01X3412432Y3773054D01*
G01X3386455Y3773401D01*
G01X3360131Y3773228D01*
G01X3358919Y3772535D01*
G01X3358226Y3771669D01*
G01X3357534Y3770630D01*
G01X3357144Y3770197D01*
G01X3356668Y3770284D01*
G01X3352511Y3773401D01*
G01X3350953Y3774440D01*
G01X3350563Y3774786D01*
G01X3350779Y3775133D01*
G01X3351646Y3775999D01*
G01X3352684Y3776864D01*
G01X3353204Y3779549D01*
G01X3353345Y3785524D01*
G01X3359266Y3785524D01*
G01X3359266Y3776172D01*
G01X3382126Y3776172D01*
G01X3382126Y3778423D01*
G01X3387841Y3778423D01*
G01X3387841Y3777038D01*
G01X3388014Y3776172D01*
G01X3411566Y3776172D01*
G01X3411566Y3780674D01*
G01X3411566Y3780674D01*
G01X3411393Y3785351D01*
G01X3399617Y3785524D01*
G01X3388014Y3785524D01*
G01X3388014Y3782233D01*
G01X3387841Y3778423D01*
G01X3382126Y3778423D01*
G01X3382126Y3780674D01*
G01X3382126Y3780674D01*
G01X3381952Y3785351D01*
G01X3370522Y3785524D01*
G01X3359266Y3785524D01*
G01X3353345Y3785524D01*
G01X3353377Y3786909D01*
G01X3353204Y3797127D01*
G01X3353190Y3797300D01*
G01X3359266Y3797300D01*
G01X3359266Y3788294D01*
G01X3382126Y3788294D01*
G01X3382126Y3792624D01*
G01X3382126Y3792624D01*
G01X3381952Y3797127D01*
G01X3370522Y3797300D01*
G01X3388014Y3797300D01*
G01X3388014Y3788294D01*
G01X3411566Y3788294D01*
G01X3411566Y3792624D01*
G01X3411566Y3792624D01*
G01X3411393Y3797127D01*
G01X3399617Y3797300D01*
G01X3388014Y3797300D01*
G01X3370522Y3797300D01*
G01X3359266Y3797300D01*
G01X3353190Y3797300D01*
G01X3353031Y3799205D01*
G01X3353161Y3800417D01*
G01X3353551Y3800937D01*
G01X3354589Y3801456D01*
G01X3357014Y3802496D01*
G01X3358399Y3803015D01*
G01X3359266Y3803188D01*
G01X3359266Y3799724D01*
G01X3382126Y3799724D01*
G01X3382126Y3809769D01*
G01X3370522Y3809769D01*
G01X3358399Y3809596D01*
G01X3357361Y3809249D01*
G01X3356494Y3808557D01*
G01X3355282Y3807344D01*
G01X3353897Y3806306D01*
G01X3353031Y3805439D01*
G01X3352165Y3804747D01*
G01X3351126Y3804920D01*
G01X3349048Y3807344D01*
G01X3347836Y3808557D01*
G01X3346796Y3809942D01*
G01X3345064Y3811674D01*
G01X3349481Y3812064D01*
G01X3363422Y3812194D01*
G01X3382126Y3812194D01*
G01X3382126Y3823277D01*
G01X3364981Y3823277D01*
G01X3347489Y3822931D01*
G01X3346623Y3822238D01*
G01X3344026Y3819641D01*
G01X3342294Y3818255D01*
G01X3341428Y3817389D01*
G01X3340908Y3817303D01*
G01X3340389Y3817736D01*
G01X3339349Y3818774D01*
G01X3337618Y3820853D01*
G01X3336232Y3822584D01*
G01X3335020Y3823797D01*
G01X3333981Y3825182D01*
G01X3344761Y3825572D01*
G01X3377796Y3825702D01*
G01X3423516Y3825875D01*
G01X3426633Y3826221D01*
G01X3428711Y3826568D01*
G01X3430443Y3826914D01*
G01X3431482Y3826914D01*
G37*
G36*
G01X3546821Y3772881D02*
G01X3547514Y3772535D01*
G01X3548380Y3771496D01*
G01X3550112Y3769764D01*
G01X3543011Y3769374D01*
G01X3521017Y3769244D01*
G01X3498850Y3769071D01*
G01X3491230Y3768552D01*
G01X3490537Y3767166D01*
G01X3489844Y3765608D01*
G01X3488459Y3762144D01*
G01X3487766Y3760239D01*
G01X3487074Y3758507D01*
G01X3484476Y3750714D01*
G01X3483956Y3748809D01*
G01X3483437Y3747251D01*
G01X3483264Y3745865D01*
G01X3482917Y3744999D01*
G01X3481705Y3745346D01*
G01X3480146Y3746211D01*
G01X3478761Y3747077D01*
G01X3476336Y3748463D01*
G01X3475297Y3749156D01*
G01X3474258Y3749675D01*
G01X3473566Y3750194D01*
G01X3474431Y3751061D01*
G01X3476856Y3752792D01*
G01X3478068Y3753831D01*
G01X3479800Y3755563D01*
G01X3480839Y3756949D01*
G01X3482051Y3758681D01*
G01X3485515Y3764222D01*
G01X3486554Y3765954D01*
G01X3487420Y3767339D01*
G01X3487939Y3768552D01*
G01X3488113Y3769244D01*
G01X3477029Y3769244D01*
G01X3465426Y3769071D01*
G01X3464387Y3768552D01*
G01X3460057Y3764222D01*
G01X3458326Y3762837D01*
G01X3457633Y3762317D01*
G01X3456767Y3762664D01*
G01X3455035Y3764396D01*
G01X3452957Y3766820D01*
G01X3448627Y3771149D01*
G01X3459494Y3771539D01*
G01X3492789Y3771669D01*
G01X3538855Y3771842D01*
G01X3541626Y3772189D01*
G01X3545782Y3772881D01*
G01X3546821Y3772881D01*
G37*
G36*
G01X2391468Y3830031D02*
G01X2390905Y3830334D01*
G01X2390256Y3830204D01*
G01X2389216Y3829512D01*
G01X2388351Y3828819D01*
G01X2386965Y3827780D01*
G01X2385233Y3826394D01*
G01X2384021Y3825182D01*
G01X2382289Y3823797D01*
G01X2379691Y3821199D01*
G01X2378306Y3819467D01*
G01X2377440Y3818601D01*
G01X2375362Y3815831D01*
G01X2374496Y3814618D01*
G01X2373457Y3813059D01*
G01X2372591Y3811674D01*
G01X2371898Y3810289D01*
G01X2371206Y3809076D01*
G01X2370686Y3808037D01*
G01X2370166Y3806825D01*
G01X2369647Y3805439D01*
G01X2368608Y3802322D01*
G01X2368261Y3800937D01*
G01X2367569Y3797819D01*
G01X2366876Y3793663D01*
G01X2366529Y3790892D01*
G01X2366183Y3787775D01*
G01X2365837Y3781887D01*
G01X2365664Y3774959D01*
G01X2365664Y3768552D01*
G01X2349384Y3768552D01*
G01X2349384Y3792971D01*
G01X2349558Y3817909D01*
G01X2349731Y3823451D01*
G01X2349731Y3828473D01*
G01X2348865Y3828126D01*
G01X2347479Y3827434D01*
G01X2345055Y3826394D01*
G01X2343843Y3825702D01*
G01X2343323Y3824273D01*
G01X2343150Y3820679D01*
G01X2343323Y3815484D01*
G01X2343496Y3791758D01*
G01X2343496Y3768552D01*
G01X2336569Y3768552D01*
G01X2331460Y3768422D01*
G01X2329988Y3768032D01*
G01X2332586Y3765434D01*
G01X2333971Y3763703D01*
G01X2335703Y3761971D01*
G01X2336569Y3761278D01*
G01X2337262Y3760932D01*
G01X2337954Y3761451D01*
G01X2341418Y3764915D01*
G01X2342457Y3765781D01*
G01X2354407Y3766127D01*
G01X2365664Y3766127D01*
G01X2365664Y3740150D01*
G01X2364798Y3739977D01*
G01X2355099Y3738591D01*
G01X2353541Y3738418D01*
G01X2349904Y3737899D01*
G01X2347826Y3737552D01*
G01X2345401Y3737206D01*
G01X2341245Y3736513D01*
G01X2339513Y3736340D01*
G01X2338128Y3736167D01*
G01X2335530Y3735994D01*
G01X2334058Y3735864D01*
G01X2333798Y3735474D01*
G01X2334664Y3734608D01*
G01X2336396Y3732530D01*
G01X2339859Y3729066D01*
G01X2340899Y3728893D01*
G01X2341764Y3729586D01*
G01X2342804Y3730279D01*
G01X2343843Y3730798D01*
G01X2345055Y3731491D01*
G01X2346441Y3732184D01*
G01X2347999Y3732876D01*
G01X2351809Y3734262D01*
G01X2354061Y3734954D01*
G01X2357524Y3735821D01*
G01X2359256Y3736340D01*
G01X2361681Y3736859D01*
G01X2365144Y3737552D01*
G01X2367222Y3737379D01*
G01X2368434Y3736686D01*
G01X2369647Y3735821D01*
G01X2371032Y3734954D01*
G01X2371725Y3734608D01*
G01X2371898Y3741709D01*
G01X2371725Y3749329D01*
G01X2371552Y3764049D01*
G01X2371725Y3778769D01*
G01X2372071Y3787775D01*
G01X2372418Y3792624D01*
G01X2372764Y3796088D01*
G01X2373457Y3800244D01*
G01X2373976Y3801976D01*
G01X2374496Y3804054D01*
G01X2375016Y3805613D01*
G01X2375708Y3807344D01*
G01X2376401Y3809249D01*
G01X2377786Y3812021D01*
G01X2378652Y3813579D01*
G01X2380731Y3816696D01*
G01X2381596Y3817909D01*
G01X2383674Y3820679D01*
G01X2384541Y3821546D01*
G01X2386619Y3823970D01*
G01X2390948Y3828299D01*
G01X2391641Y3829166D01*
G01X2391771Y3829555D01*
G01X2391468Y3830031D01*
G37*
G36*
G01X2480137Y3829339D02*
G01X2479877Y3829642D01*
G01X2479444Y3829512D01*
G01X2478232Y3828992D01*
G01X2476846Y3828299D01*
G01X2475461Y3827434D01*
G01X2474422Y3826741D01*
G01X2473556Y3826048D01*
G01X2472690Y3825182D01*
G01X2471824Y3823970D01*
G01X2470958Y3822411D01*
G01X2470439Y3821026D01*
G01X2470092Y3819641D01*
G01X2469919Y3781541D01*
G01X2469919Y3744306D01*
G01X2457104Y3744306D01*
G01X2447579Y3744176D01*
G01X2444634Y3743787D01*
G01X2451562Y3736859D01*
G01X2452428Y3736340D01*
G01X2453294Y3736859D01*
G01X2457623Y3741189D01*
G01X2458662Y3741709D01*
G01X2481176Y3741882D01*
G01X2497585Y3742012D01*
G01X2502824Y3742401D01*
G01X2501092Y3744133D01*
G01X2500053Y3744999D01*
G01X2498148Y3745172D01*
G01X2496069Y3744826D01*
G01X2494338Y3744479D01*
G01X2484986Y3744306D01*
G01X2476500Y3744306D01*
G01X2476500Y3780674D01*
G01X2476673Y3808167D01*
G01X2477193Y3817909D01*
G01X2478448Y3818558D01*
G01X2480829Y3818774D01*
G01X2484293Y3818601D01*
G01X2489835Y3817909D01*
G01X2492259Y3817562D01*
G01X2493126Y3817562D01*
G01X2493472Y3818601D01*
G01X2493212Y3819337D01*
G01X2492433Y3819814D01*
G01X2490354Y3820506D01*
G01X2488623Y3821199D01*
G01X2487064Y3821892D01*
G01X2485506Y3822758D01*
G01X2484293Y3823624D01*
G01X2482908Y3824663D01*
G01X2481869Y3825875D01*
G01X2481349Y3826741D01*
G01X2480656Y3827953D01*
G01X2480137Y3829339D01*
G37*
G36*
G01X2527935Y3829858D02*
G01X2527069Y3829858D01*
G01X2525511Y3829166D01*
G01X2523952Y3828299D01*
G01X2522739Y3827434D01*
G01X2521008Y3825702D01*
G01X2520315Y3824836D01*
G01X2519796Y3823797D01*
G01X2519103Y3822238D01*
G01X2518583Y3819641D01*
G01X2518410Y3798512D01*
G01X2518237Y3783792D01*
G01X2517717Y3778769D01*
G01X2516505Y3778250D01*
G01X2513734Y3776864D01*
G01X2512349Y3775999D01*
G01X2509231Y3774440D01*
G01X2507846Y3773574D01*
G01X2504729Y3772016D01*
G01X2501092Y3769937D01*
G01X2500616Y3769504D01*
G01X2500572Y3768898D01*
G01X2501265Y3768032D01*
G01X2502477Y3768206D01*
G01X2504209Y3768898D01*
G01X2505768Y3769591D01*
G01X2506980Y3770111D01*
G01X2508366Y3770630D01*
G01X2509924Y3771323D01*
G01X2515119Y3773401D01*
G01X2516678Y3774094D01*
G01X2517891Y3774613D01*
G01X2518280Y3772189D01*
G01X2518410Y3764569D01*
G01X2518410Y3754351D01*
G01X2508885Y3754351D01*
G01X2501828Y3754221D01*
G01X2499706Y3753831D01*
G01X2500572Y3752966D01*
G01X2501438Y3752273D01*
G01X2502477Y3751061D01*
G01X2506287Y3747251D01*
G01X2506677Y3746947D01*
G01X2507153Y3747077D01*
G01X2510617Y3750541D01*
G01X2511483Y3751234D01*
G01X2515119Y3751580D01*
G01X2518410Y3751580D01*
G01X2518410Y3742921D01*
G01X2518280Y3736383D01*
G01X2517891Y3734089D01*
G01X2517024Y3733396D01*
G01X2515812Y3732357D01*
G01X2515293Y3731881D01*
G01X2515466Y3731491D01*
G01X2516851Y3730798D01*
G01X2518583Y3730106D01*
G01X2519969Y3729413D01*
G01X2523606Y3727854D01*
G01X2524644Y3727334D01*
G01X2524904Y3728893D01*
G01X2524991Y3734262D01*
G01X2524818Y3742055D01*
G01X2524644Y3747077D01*
G01X2524644Y3751580D01*
G01X2535555Y3751580D01*
G01X2543651Y3751710D01*
G01X2546119Y3752099D01*
G01X2544387Y3753831D01*
G01X2543348Y3754697D01*
G01X2541963Y3755044D01*
G01X2540751Y3754871D01*
G01X2538672Y3754524D01*
G01X2530879Y3754351D01*
G01X2524644Y3754351D01*
G01X2524644Y3777211D01*
G01X2525511Y3777384D01*
G01X2530186Y3778943D01*
G01X2531918Y3779636D01*
G01X2536074Y3781021D01*
G01X2537979Y3781541D01*
G01X2539538Y3782060D01*
G01X2543002Y3783099D01*
G01X2544387Y3783446D01*
G01X2545599Y3783619D01*
G01X2546119Y3784311D01*
G01X2545599Y3785177D01*
G01X2544907Y3786043D01*
G01X2544041Y3787429D01*
G01X2543002Y3788814D01*
G01X2541270Y3791239D01*
G01X2540880Y3791542D01*
G01X2540404Y3791412D01*
G01X2539538Y3790546D01*
G01X2538499Y3789680D01*
G01X2537460Y3788987D01*
G01X2536248Y3788121D01*
G01X2534516Y3787082D01*
G01X2532784Y3786216D01*
G01X2530359Y3784831D01*
G01X2525164Y3782233D01*
G01X2524774Y3786260D01*
G01X2524644Y3798686D01*
G01X2524818Y3815831D01*
G01X2525164Y3817043D01*
G01X2526203Y3818255D01*
G01X2527502Y3818645D01*
G01X2529667Y3818774D01*
G01X2532784Y3818601D01*
G01X2535209Y3818255D01*
G01X2540404Y3817216D01*
G01X2541616Y3817043D01*
G01X2541616Y3818082D01*
G01X2541443Y3818904D01*
G01X2540924Y3819294D01*
G01X2539711Y3819814D01*
G01X2535555Y3821892D01*
G01X2533996Y3822758D01*
G01X2532438Y3823797D01*
G01X2531226Y3824836D01*
G01X2529494Y3826568D01*
G01X2528801Y3827434D01*
G01X2528281Y3828646D01*
G01X2527935Y3829858D01*
G37*
G36*
G01X2423853Y3819987D02*
G01X2423506Y3820247D01*
G01X2423160Y3819987D01*
G01X2422294Y3819121D01*
G01X2421255Y3817909D01*
G01X2420043Y3816696D01*
G01X2400473Y3816350D01*
G01X2386402Y3816220D01*
G01X2381943Y3815831D01*
G01X2388004Y3809769D01*
G01X2388697Y3809249D01*
G01X2389389Y3809249D01*
G01X2390256Y3809942D01*
G01X2393199Y3812886D01*
G01X2394066Y3813579D01*
G01X2407574Y3813926D01*
G01X2420389Y3813926D01*
G01X2420389Y3775826D01*
G01X2420259Y3747164D01*
G01X2419869Y3737379D01*
G01X2418138Y3735994D01*
G01X2417272Y3735128D01*
G01X2417229Y3734651D01*
G01X2417791Y3734262D01*
G01X2424719Y3730798D01*
G01X2425931Y3730106D01*
G01X2426624Y3729759D01*
G01X2426624Y3731491D01*
G01X2426451Y3733742D01*
G01X2426104Y3756949D01*
G01X2425931Y3784484D01*
G01X2426061Y3804833D01*
G01X2426451Y3811847D01*
G01X2427316Y3812713D01*
G01X2429048Y3814099D01*
G01X2429221Y3814964D01*
G01X2427663Y3816523D01*
G01X2425584Y3818255D01*
G01X2423853Y3819987D01*
G37*
G36*
G01X2400993Y3807518D02*
G01X2400993Y3811501D01*
G01X2396663Y3809769D01*
G01X2395104Y3809076D01*
G01X2394585Y3807994D01*
G01X2394412Y3805439D01*
G01X2394585Y3801629D01*
G01X2394758Y3788294D01*
G01X2394628Y3778726D01*
G01X2394239Y3775652D01*
G01X2393373Y3776345D01*
G01X2392507Y3777211D01*
G01X2390429Y3779636D01*
G01X2389043Y3781367D01*
G01X2388177Y3782406D01*
G01X2387311Y3783792D01*
G01X2386272Y3785351D01*
G01X2385406Y3786736D01*
G01X2384021Y3789507D01*
G01X2382636Y3792624D01*
G01X2382116Y3793663D01*
G01X2381423Y3794702D01*
G01X2380860Y3795049D01*
G01X2380211Y3795049D01*
G01X2379172Y3794183D01*
G01X2378479Y3792797D01*
G01X2377786Y3790892D01*
G01X2377440Y3788468D01*
G01X2377786Y3786736D01*
G01X2378479Y3785351D01*
G01X2379345Y3784138D01*
G01X2380211Y3783099D01*
G01X2381423Y3781887D01*
G01X2382636Y3780848D01*
G01X2383501Y3780155D01*
G01X2384367Y3779636D01*
G01X2385233Y3778943D01*
G01X2386446Y3778077D01*
G01X2389563Y3775999D01*
G01X2392334Y3774267D01*
G01X2393892Y3773228D01*
G01X2394758Y3772708D01*
G01X2394758Y3767513D01*
G01X2384714Y3767513D01*
G01X2377267Y3767383D01*
G01X2375016Y3766993D01*
G01X2381077Y3760932D01*
G01X2381553Y3760802D01*
G01X2381943Y3761105D01*
G01X2385406Y3764569D01*
G01X2386792Y3764958D01*
G01X2390256Y3765088D01*
G01X2394758Y3765088D01*
G01X2394758Y3749675D01*
G01X2394628Y3738072D01*
G01X2394239Y3734089D01*
G01X2393373Y3733396D01*
G01X2391598Y3731881D01*
G01X2391641Y3731491D01*
G01X2392853Y3730798D01*
G01X2399781Y3727334D01*
G01X2400819Y3726988D01*
G01X2400993Y3732011D01*
G01X2400819Y3737552D01*
G01X2400646Y3751580D01*
G01X2400646Y3765088D01*
G01X2409825Y3765088D01*
G01X2416622Y3765218D01*
G01X2418657Y3765608D01*
G01X2416926Y3767339D01*
G01X2415886Y3768206D01*
G01X2413981Y3768206D01*
G01X2411211Y3767686D01*
G01X2406534Y3767513D01*
G01X2404197Y3767686D01*
G01X2403417Y3768206D01*
G01X2403591Y3769418D01*
G01X2404110Y3771149D01*
G01X2404976Y3774613D01*
G01X2406188Y3778250D01*
G01X2406881Y3779982D01*
G01X2407401Y3781541D01*
G01X2407920Y3782926D01*
G01X2408613Y3784484D01*
G01X2409306Y3786216D01*
G01X2409998Y3787775D01*
G01X2412769Y3793317D01*
G01X2413635Y3794876D01*
G01X2417099Y3800417D01*
G01X2418138Y3801976D01*
G01X2418657Y3803015D01*
G01X2418138Y3803361D01*
G01X2417099Y3803188D01*
G01X2415367Y3801456D01*
G01X2413981Y3799724D01*
G01X2411384Y3796607D01*
G01X2410691Y3795568D01*
G01X2409998Y3794702D01*
G01X2409132Y3793490D01*
G01X2408093Y3791931D01*
G01X2407227Y3790719D01*
G01X2406534Y3789680D01*
G01X2405669Y3788294D01*
G01X2404803Y3786736D01*
G01X2403417Y3784311D01*
G01X2401339Y3780155D01*
G01X2401036Y3779895D01*
G01X2400819Y3780155D01*
G01X2400646Y3791585D01*
G01X2400819Y3803015D01*
G01X2400993Y3807518D01*
G37*
G36*
G01X2391641Y3760932D02*
G01X2390775Y3761105D01*
G01X2390082Y3760412D01*
G01X2389216Y3759027D01*
G01X2388004Y3757295D01*
G01X2386272Y3754871D01*
G01X2382636Y3749675D01*
G01X2380557Y3746904D01*
G01X2378999Y3745519D01*
G01X2377613Y3744653D01*
G01X2376921Y3743960D01*
G01X2377267Y3743441D01*
G01X2378652Y3742574D01*
G01X2382116Y3740150D01*
G01X2383674Y3738938D01*
G01X2384237Y3738678D01*
G01X2384541Y3738938D01*
G01X2385233Y3742055D01*
G01X2385753Y3743787D01*
G01X2386446Y3746038D01*
G01X2387831Y3750194D01*
G01X2388524Y3751926D01*
G01X2389563Y3754697D01*
G01X2390256Y3756256D01*
G01X2391641Y3759719D01*
G01X2391641Y3760932D01*
G37*
G36*
G01X2408786Y3758854D02*
G01X2408223Y3759330D01*
G01X2407574Y3759373D01*
G01X2406534Y3758507D01*
G01X2405669Y3757122D01*
G01X2404803Y3755563D01*
G01X2404283Y3753485D01*
G01X2404456Y3751580D01*
G01X2405149Y3750194D01*
G01X2406188Y3748636D01*
G01X2407227Y3747251D01*
G01X2408093Y3746384D01*
G01X2409479Y3745346D01*
G01X2410691Y3744133D01*
G01X2413289Y3742055D01*
G01X2414154Y3741536D01*
G01X2415021Y3740843D01*
G01X2415497Y3740713D01*
G01X2415886Y3741016D01*
G01X2415886Y3742055D01*
G01X2415194Y3743441D01*
G01X2413808Y3745865D01*
G01X2413116Y3747597D01*
G01X2412423Y3748982D01*
G01X2411730Y3750541D01*
G01X2411037Y3752273D01*
G01X2409998Y3755736D01*
G01X2409479Y3757295D01*
G01X2408786Y3758854D01*
G37*
G36*
G01X1539803Y3828862D02*
G01X1540106Y3828126D01*
G01X1540626Y3826741D01*
G01X1541145Y3825875D01*
G01X1541838Y3825009D01*
G01X1542704Y3824316D01*
G01X1543916Y3823451D01*
G01X1545301Y3822584D01*
G01X1548072Y3821199D01*
G01X1549631Y3820506D01*
G01X1551536Y3819814D01*
G01X1552185Y3819337D01*
G01X1552402Y3818601D01*
G01X1552315Y3817995D01*
G01X1552056Y3817909D01*
G01X1550843Y3818082D01*
G01X1549458Y3818255D01*
G01X1543223Y3818948D01*
G01X1540972Y3819121D01*
G01X1538374Y3818601D01*
G01X1537162Y3817389D01*
G01X1536642Y3816177D01*
G01X1536469Y3800417D01*
G01X1536599Y3789031D01*
G01X1536989Y3785351D01*
G01X1538201Y3785870D01*
G01X1539586Y3786736D01*
G01X1543223Y3789334D01*
G01X1545994Y3791412D01*
G01X1547726Y3792797D01*
G01X1548592Y3793663D01*
G01X1549631Y3794876D01*
G01X1550237Y3795308D01*
G01X1550670Y3795222D01*
G01X1551536Y3794009D01*
G01X1554653Y3789334D01*
G01X1555519Y3788121D01*
G01X1555606Y3787645D01*
G01X1555173Y3787256D01*
G01X1553441Y3786563D01*
G01X1551363Y3785870D01*
G01X1549631Y3785177D01*
G01X1548246Y3784658D01*
G01X1547033Y3784138D01*
G01X1543916Y3782753D01*
G01X1541491Y3781714D01*
G01X1538721Y3780328D01*
G01X1537335Y3779809D01*
G01X1536469Y3779636D01*
G01X1536469Y3755736D01*
G01X1542184Y3755736D01*
G01X1549111Y3755909D01*
G01X1550843Y3756256D01*
G01X1552402Y3756429D01*
G01X1553961Y3755909D01*
G01X1555173Y3754697D01*
G01X1556212Y3753485D01*
G01X1553961Y3753095D01*
G01X1546514Y3752966D01*
G01X1536469Y3752966D01*
G01X1536469Y3741709D01*
G01X1536642Y3729932D01*
G01X1536816Y3727334D01*
G01X1536729Y3725863D01*
G01X1536469Y3725603D01*
G01X1535257Y3726296D01*
G01X1533871Y3726988D01*
G01X1530754Y3728374D01*
G01X1527983Y3729759D01*
G01X1526771Y3730279D01*
G01X1526338Y3730495D01*
G01X1526424Y3730798D01*
G01X1527117Y3731491D01*
G01X1527983Y3732011D01*
G01X1529715Y3733396D01*
G01X1530105Y3735950D01*
G01X1530234Y3743267D01*
G01X1530234Y3752966D01*
G01X1526944Y3752966D01*
G01X1524390Y3752836D01*
G01X1523307Y3752446D01*
G01X1519844Y3748982D01*
G01X1519497Y3748723D01*
G01X1519151Y3748982D01*
G01X1514475Y3753658D01*
G01X1513263Y3754524D01*
G01X1512570Y3755217D01*
G01X1514562Y3755606D01*
G01X1521229Y3755736D01*
G01X1530234Y3755736D01*
G01X1530234Y3776518D01*
G01X1529369Y3776172D01*
G01X1526598Y3774786D01*
G01X1524173Y3773401D01*
G01X1520017Y3771323D01*
G01X1517592Y3769937D01*
G01X1516380Y3769418D01*
G01X1515774Y3769504D01*
G01X1515341Y3770111D01*
G01X1515298Y3770890D01*
G01X1515861Y3771496D01*
G01X1517419Y3772535D01*
G01X1519844Y3774267D01*
G01X1521402Y3775306D01*
G01X1522788Y3776172D01*
G01X1523827Y3776864D01*
G01X1525039Y3777731D01*
G01X1528156Y3779809D01*
G01X1529542Y3780674D01*
G01X1530061Y3785524D01*
G01X1530234Y3799378D01*
G01X1530408Y3818601D01*
G01X1530754Y3820333D01*
G01X1531274Y3821719D01*
G01X1531793Y3822931D01*
G01X1532486Y3823970D01*
G01X1533871Y3825702D01*
G01X1535257Y3826741D01*
G01X1536816Y3827780D01*
G01X1538028Y3828473D01*
G01X1539240Y3828992D01*
G01X1539803Y3828862D01*
G37*
G36*
G01X1510838Y3829166D02*
G01X1510838Y3822411D01*
G01X1510665Y3815138D01*
G01X1510492Y3784831D01*
G01X1510665Y3754524D01*
G01X1510838Y3750714D01*
G01X1510838Y3747424D01*
G01X1509972Y3747943D01*
G01X1505296Y3751061D01*
G01X1503824Y3751450D01*
G01X1500794Y3751580D01*
G01X1497893Y3751407D01*
G01X1496811Y3750887D01*
G01X1496291Y3749675D01*
G01X1495771Y3748289D01*
G01X1493174Y3740496D01*
G01X1492134Y3737033D01*
G01X1490576Y3731318D01*
G01X1490056Y3728893D01*
G01X1489537Y3727161D01*
G01X1489277Y3726815D01*
G01X1488844Y3726815D01*
G01X1487805Y3727334D01*
G01X1482263Y3730798D01*
G01X1481051Y3731491D01*
G01X1480661Y3731837D01*
G01X1480878Y3732184D01*
G01X1481917Y3732703D01*
G01X1482783Y3733396D01*
G01X1484514Y3735128D01*
G01X1485207Y3735994D01*
G01X1486073Y3737206D01*
G01X1486939Y3738591D01*
G01X1487632Y3739804D01*
G01X1488498Y3741362D01*
G01X1489364Y3742748D01*
G01X1492827Y3748809D01*
G01X1493520Y3749848D01*
G01X1494039Y3750887D01*
G01X1494213Y3751580D01*
G01X1469621Y3751580D01*
G01X1469101Y3750714D01*
G01X1467889Y3748982D01*
G01X1467023Y3747597D01*
G01X1466807Y3747294D01*
G01X1466504Y3747424D01*
G01X1462867Y3750021D01*
G01X1461308Y3751061D01*
G01X1460096Y3751926D01*
G01X1459576Y3752619D01*
G01X1460096Y3753312D01*
G01X1461828Y3755044D01*
G01X1462217Y3762620D01*
G01X1462330Y3781714D01*
G01X1468582Y3781714D01*
G01X1468582Y3754351D01*
G01X1504257Y3754351D01*
G01X1504257Y3767859D01*
G01X1504257Y3767859D01*
G01X1504084Y3781541D01*
G01X1486246Y3781714D01*
G01X1468582Y3781714D01*
G01X1462330Y3781714D01*
G01X1462347Y3784658D01*
G01X1462175Y3814272D01*
G01X1468582Y3814272D01*
G01X1468582Y3784138D01*
G01X1504257Y3784138D01*
G01X1504257Y3799032D01*
G01X1504257Y3799032D01*
G01X1504084Y3814099D01*
G01X1486246Y3814272D01*
G01X1468582Y3814272D01*
G01X1462175Y3814272D01*
G01X1462174Y3814445D01*
G01X1462001Y3819814D01*
G01X1462131Y3823537D01*
G01X1462521Y3825009D01*
G01X1463559Y3825702D01*
G01X1466331Y3827087D01*
G01X1467716Y3827607D01*
G01X1468582Y3827780D01*
G01X1468582Y3816696D01*
G01X1504257Y3816696D01*
G01X1504257Y3821372D01*
G01X1504387Y3824966D01*
G01X1504777Y3826394D01*
G01X1505989Y3827087D01*
G01X1507548Y3827780D01*
G01X1508933Y3828473D01*
G01X1510146Y3828992D01*
G01X1510838Y3829166D01*
G37*
G36*
G01X1348350Y3826871D02*
G01X1348913Y3826394D01*
G01X1349779Y3824836D01*
G01X1350299Y3823451D01*
G01X1350645Y3822065D01*
G01X1351164Y3820506D01*
G01X1351857Y3818774D01*
G01X1352550Y3817216D01*
G01X1355494Y3811328D01*
G01X1357572Y3807864D01*
G01X1359651Y3804747D01*
G01X1360863Y3803015D01*
G01X1361556Y3801803D01*
G01X1361036Y3801110D01*
G01X1359997Y3801110D01*
G01X1359131Y3801803D01*
G01X1356533Y3803534D01*
G01X1353069Y3805959D01*
G01X1351684Y3806998D01*
G01X1348221Y3809769D01*
G01X1345276Y3812713D01*
G01X1344237Y3814445D01*
G01X1343544Y3816004D01*
G01X1343198Y3817736D01*
G01X1343371Y3819641D01*
G01X1343891Y3821372D01*
G01X1344584Y3822931D01*
G01X1345449Y3824316D01*
G01X1346489Y3825875D01*
G01X1347701Y3826914D01*
G01X1348350Y3826871D01*
G37*
G36*
G01X1400998Y3769678D02*
G01X1401387Y3769244D01*
G01X1401561Y3768206D01*
G01X1400694Y3767513D01*
G01X1399656Y3766647D01*
G01X1394114Y3761105D01*
G01X1393074Y3759719D01*
G01X1391689Y3757988D01*
G01X1390650Y3756602D01*
G01X1389438Y3754871D01*
G01X1388399Y3753312D01*
G01X1387533Y3751753D01*
G01X1386147Y3749329D01*
G01X1385454Y3747770D01*
G01X1384935Y3746384D01*
G01X1384416Y3745172D01*
G01X1383896Y3743787D01*
G01X1383376Y3741882D01*
G01X1382857Y3740323D01*
G01X1382164Y3736859D01*
G01X1381991Y3735474D01*
G01X1381991Y3734608D01*
G01X1383376Y3734608D01*
G01X1385281Y3734781D01*
G01X1386494Y3734954D01*
G01X1388399Y3735128D01*
G01X1390477Y3735474D01*
G01X1393074Y3735301D01*
G01X1394460Y3734911D01*
G01X1395153Y3734435D01*
G01X1396884Y3732703D01*
G01X1392036Y3732314D01*
G01X1376796Y3732184D01*
G01X1361426Y3732054D01*
G01X1356187Y3731664D01*
G01X1355494Y3730798D01*
G01X1353762Y3728720D01*
G01X1352723Y3728547D01*
G01X1351857Y3729239D01*
G01X1350991Y3730106D01*
G01X1350126Y3730798D01*
G01X1349259Y3731318D01*
G01X1346662Y3733396D01*
G01X1346532Y3733872D01*
G01X1346835Y3734262D01*
G01X1347701Y3734954D01*
G01X1348913Y3735821D01*
G01X1349606Y3736513D01*
G01X1349952Y3737552D01*
G01X1350299Y3739631D01*
G01X1350645Y3742055D01*
G01X1350991Y3744133D01*
G01X1351338Y3746038D01*
G01X1351857Y3748636D01*
G01X1352377Y3750368D01*
G01X1352723Y3751753D01*
G01X1353243Y3753312D01*
G01X1353762Y3754697D01*
G01X1354282Y3755909D01*
G01X1354974Y3757122D01*
G01X1355841Y3758161D01*
G01X1357572Y3759893D01*
G01X1358438Y3760586D01*
G01X1359651Y3761278D01*
G01X1361209Y3761971D01*
G01X1362768Y3762491D01*
G01X1363461Y3762491D01*
G01X1363807Y3762144D01*
G01X1364326Y3760932D01*
G01X1364846Y3759546D01*
G01X1365539Y3758507D01*
G01X1367271Y3756776D01*
G01X1368656Y3755909D01*
G01X1370388Y3755044D01*
G01X1372293Y3754351D01*
G01X1373505Y3753485D01*
G01X1373332Y3752619D01*
G01X1372466Y3752446D01*
G01X1368656Y3753139D01*
G01X1365019Y3753312D01*
G01X1361209Y3752966D01*
G01X1359824Y3752446D01*
G01X1359261Y3752143D01*
G01X1358958Y3751580D01*
G01X1358438Y3750194D01*
G01X1357919Y3748463D01*
G01X1357572Y3746904D01*
G01X1356879Y3742748D01*
G01X1356187Y3737206D01*
G01X1356014Y3735647D01*
G01X1356014Y3734608D01*
G01X1375410Y3734608D01*
G01X1375583Y3735994D01*
G01X1376103Y3738418D01*
G01X1376622Y3739977D01*
G01X1376969Y3741362D01*
G01X1378008Y3744479D01*
G01X1378527Y3745865D01*
G01X1381298Y3751407D01*
G01X1381991Y3752619D01*
G01X1382684Y3753658D01*
G01X1384416Y3756083D01*
G01X1386494Y3758681D01*
G01X1391169Y3763356D01*
G01X1392901Y3764742D01*
G01X1394287Y3765781D01*
G01X1395499Y3766647D01*
G01X1396884Y3767513D01*
G01X1397924Y3768206D01*
G01X1399136Y3768898D01*
G01X1400521Y3769591D01*
G01X1400998Y3769678D01*
G37*
G36*
G01X1390304Y3795914D02*
G01X1390304Y3793490D01*
G01X1390131Y3790546D01*
G01X1389957Y3780328D01*
G01X1390131Y3770111D01*
G01X1390304Y3767166D01*
G01X1390217Y3765391D01*
G01X1389957Y3764915D01*
G01X1388745Y3765434D01*
G01X1387359Y3766127D01*
G01X1384242Y3767513D01*
G01X1370907Y3767859D01*
G01X1361166Y3767729D01*
G01X1357572Y3767339D01*
G01X1356706Y3766301D01*
G01X1354974Y3763876D01*
G01X1354585Y3763573D01*
G01X1354109Y3763703D01*
G01X1351338Y3765781D01*
G01X1350472Y3766474D01*
G01X1349606Y3766993D01*
G01X1348740Y3767686D01*
G01X1348567Y3768725D01*
G01X1350645Y3770803D01*
G01X1351035Y3772448D01*
G01X1351164Y3777038D01*
G01X1350991Y3783619D01*
G01X1350818Y3787948D01*
G01X1350832Y3788294D01*
G01X1357399Y3788294D01*
G01X1357399Y3770284D01*
G01X1383723Y3770284D01*
G01X1383723Y3779116D01*
G01X1383723Y3779116D01*
G01X1383549Y3788121D01*
G01X1370388Y3788294D01*
G01X1357399Y3788294D01*
G01X1350832Y3788294D01*
G01X1350991Y3792278D01*
G01X1351857Y3793144D01*
G01X1356533Y3794702D01*
G01X1357399Y3794876D01*
G01X1357399Y3791066D01*
G01X1370388Y3791066D01*
G01X1380173Y3791195D01*
G01X1383549Y3791585D01*
G01X1383896Y3792971D01*
G01X1384242Y3793663D01*
G01X1384935Y3794009D01*
G01X1389611Y3795568D01*
G01X1390304Y3795914D01*
G37*
G36*
G01X1376796Y3824663D02*
G01X1377834Y3824316D01*
G01X1378527Y3823104D01*
G01X1379047Y3821372D01*
G01X1379393Y3819987D01*
G01X1379739Y3818255D01*
G01X1380259Y3816350D01*
G01X1381298Y3813233D01*
G01X1381818Y3811847D01*
G01X1382337Y3810635D01*
G01X1383030Y3809249D01*
G01X1384416Y3806132D01*
G01X1385108Y3804747D01*
G01X1386494Y3802322D01*
G01X1386494Y3801456D01*
G01X1385801Y3801110D01*
G01X1384935Y3801283D01*
G01X1384069Y3801976D01*
G01X1381991Y3803708D01*
G01X1379566Y3805786D01*
G01X1377834Y3807518D01*
G01X1376796Y3808384D01*
G01X1375756Y3809423D01*
G01X1374024Y3811501D01*
G01X1373159Y3813059D01*
G01X1372466Y3814791D01*
G01X1372119Y3816177D01*
G01X1372119Y3817043D01*
G01X1372293Y3818082D01*
G01X1372639Y3819814D01*
G01X1373332Y3821372D01*
G01X1374024Y3822584D01*
G01X1375237Y3823970D01*
G01X1376796Y3824663D01*
G37*
G36*
G01X1403119Y3825529D02*
G01X1404158Y3825356D01*
G01X1404851Y3824143D01*
G01X1405371Y3822065D01*
G01X1405717Y3819294D01*
G01X1406063Y3817216D01*
G01X1406409Y3815311D01*
G01X1406929Y3813233D01*
G01X1407449Y3811501D01*
G01X1407968Y3809942D01*
G01X1409007Y3807171D01*
G01X1409700Y3805786D01*
G01X1410393Y3804227D01*
G01X1410912Y3802842D01*
G01X1410912Y3802192D01*
G01X1410566Y3801629D01*
G01X1410090Y3801370D01*
G01X1409700Y3801629D01*
G01X1407968Y3803015D01*
G01X1403639Y3807344D01*
G01X1402253Y3809076D01*
G01X1401214Y3810289D01*
G01X1400175Y3811847D01*
G01X1399309Y3813406D01*
G01X1398616Y3814964D01*
G01X1398097Y3816696D01*
G01X1398097Y3818601D01*
G01X1398616Y3820506D01*
G01X1399482Y3822238D01*
G01X1400348Y3823451D01*
G01X1401561Y3824663D01*
G01X1403119Y3825529D01*
G37*
G36*
G01X1434638Y3800764D02*
G01X1434638Y3799898D01*
G01X1434465Y3798512D01*
G01X1434292Y3766127D01*
G01X1434465Y3733742D01*
G01X1434638Y3731837D01*
G01X1434465Y3730452D01*
G01X1433426Y3730971D01*
G01X1430309Y3733049D01*
G01X1429096Y3733916D01*
G01X1420091Y3734262D01*
G01X1413467Y3734089D01*
G01X1410912Y3733569D01*
G01X1410046Y3732357D01*
G01X1409181Y3730971D01*
G01X1408314Y3729759D01*
G01X1407968Y3729629D01*
G01X1407622Y3729932D01*
G01X1405544Y3731664D01*
G01X1404678Y3732530D01*
G01X1402946Y3733916D01*
G01X1402080Y3734781D01*
G01X1401950Y3735258D01*
G01X1402253Y3735647D01*
G01X1403119Y3736513D01*
G01X1404331Y3737552D01*
G01X1405197Y3738072D01*
G01X1405197Y3754351D01*
G01X1410912Y3754351D01*
G01X1410912Y3752619D01*
G01X1411086Y3744653D01*
G01X1411086Y3737033D01*
G01X1428404Y3737033D01*
G01X1428404Y3748636D01*
G01X1428404Y3748636D01*
G01X1428231Y3760412D01*
G01X1419571Y3760586D01*
G01X1411086Y3760586D01*
G01X1411086Y3758161D01*
G01X1410912Y3754351D01*
G01X1405197Y3754351D01*
G01X1405197Y3756083D01*
G01X1405052Y3771669D01*
G01X1410912Y3771669D01*
G01X1410912Y3766474D01*
G01X1411086Y3764742D01*
G01X1411086Y3763356D01*
G01X1428404Y3763356D01*
G01X1428404Y3775133D01*
G01X1428404Y3775133D01*
G01X1428231Y3787082D01*
G01X1419571Y3787256D01*
G01X1411086Y3787256D01*
G01X1411086Y3779982D01*
G01X1410912Y3771669D01*
G01X1405052Y3771669D01*
G01X1405024Y3774613D01*
G01X1404851Y3785004D01*
G01X1405024Y3792494D01*
G01X1405544Y3795222D01*
G01X1409007Y3796607D01*
G01X1410393Y3796954D01*
G01X1410869Y3796737D01*
G01X1410912Y3796088D01*
G01X1410912Y3790719D01*
G01X1413207Y3790199D01*
G01X1419744Y3790026D01*
G01X1428404Y3790026D01*
G01X1428404Y3793663D01*
G01X1428750Y3797646D01*
G01X1429616Y3798339D01*
G01X1433772Y3800417D01*
G01X1434638Y3800764D01*
G37*
G36*
G01X1433946Y3826221D02*
G01X1435677Y3826221D01*
G01X1437063Y3825702D01*
G01X1438794Y3825009D01*
G01X1439661Y3823970D01*
G01X1439314Y3822411D01*
G01X1438102Y3820853D01*
G01X1437236Y3819814D01*
G01X1435677Y3818255D01*
G01X1434984Y3817389D01*
G01X1434119Y3816177D01*
G01X1433079Y3814618D01*
G01X1432214Y3813059D01*
G01X1431521Y3811847D01*
G01X1430828Y3810462D01*
G01X1430136Y3808903D01*
G01X1429096Y3806479D01*
G01X1428404Y3804920D01*
G01X1427711Y3803015D01*
G01X1427235Y3802366D01*
G01X1426499Y3802149D01*
G01X1425633Y3802149D01*
G01X1425633Y3806306D01*
G01X1425806Y3810981D01*
G01X1425979Y3812367D01*
G01X1426152Y3814445D01*
G01X1426499Y3816523D01*
G01X1427191Y3819294D01*
G01X1427711Y3820679D01*
G01X1428404Y3822065D01*
G01X1429269Y3823277D01*
G01X1431001Y3825009D01*
G01X1432041Y3825702D01*
G01X1433946Y3826221D01*
G37*
G04 Text End*

G04 PolygonModel Start*
G54D10*
G01X4224312Y3908011D02*
G01X4224312Y3773320D01*
G01X4074312Y4102097D02*
G01X3774313Y4102097D01*
G01X3774313Y4078013D02*
G01X3774313Y4102097D01*
G01X4074312Y4078013D02*
G01X4074312Y4102097D01*
G01X4224312Y3578009D02*
G01X3624313Y3578009D01*
G01X3654207Y3908011D02*
G01X3654207Y3942410D01*
G01X3654207Y3942410D02*
G01X3695713Y3942410D01*
G01X3695713Y3942410D02*
G01X3695713Y3908011D01*
G01X4198376Y3908011D02*
G01X4198376Y3942410D01*
G01X4198376Y3942410D02*
G01X4152913Y3942410D01*
G01X4152913Y3942410D02*
G01X4152913Y3908011D01*
G01X3774313Y4078013D02*
G01X3774313Y3908011D01*
G01X4074312Y3908011D02*
G01X4074312Y4078013D01*
G01X3624313Y3908011D02*
G01X3624313Y3773320D01*
G01X4224312Y3908011D02*
G01X3624313Y3908011D01*
G01X3233712Y3908011D02*
G01X3233712Y3773320D01*
G01X3083712Y4102097D02*
G01X2783713Y4102097D01*
G01X2783713Y4078013D02*
G01X2783713Y4102097D01*
G01X3083712Y4078013D02*
G01X3083712Y4102097D01*
G01X3233712Y3578009D02*
G01X2633713Y3578009D01*
G01X2663607Y3908011D02*
G01X2663607Y3942410D01*
G01X2663607Y3942410D02*
G01X2705113Y3942410D01*
G01X2705113Y3942410D02*
G01X2705113Y3908011D01*
G01X3207776Y3908011D02*
G01X3207776Y3942410D01*
G01X3207776Y3942410D02*
G01X3162313Y3942410D01*
G01X3162313Y3942410D02*
G01X3162313Y3908011D01*
G01X2783713Y4078013D02*
G01X2783713Y3908011D01*
G01X3083712Y3908011D02*
G01X3083712Y4078013D01*
G01X2633713Y3908011D02*
G01X2633713Y3773320D01*
G01X3233712Y3908011D02*
G01X2633713Y3908011D01*
G01X2243112Y3908011D02*
G01X2243112Y3773320D01*
G01X2093112Y4102097D02*
G01X1793113Y4102097D01*
G01X1793113Y4078013D02*
G01X1793113Y4102097D01*
G01X2093112Y4078013D02*
G01X2093112Y4102097D01*
G01X2243112Y3578009D02*
G01X1643113Y3578009D01*
G01X1673007Y3908011D02*
G01X1673007Y3942410D01*
G01X1673007Y3942410D02*
G01X1714513Y3942410D01*
G01X1714513Y3942410D02*
G01X1714513Y3908011D01*
G01X2217176Y3908011D02*
G01X2217176Y3942410D01*
G01X2217176Y3942410D02*
G01X2171713Y3942410D01*
G01X2171713Y3942410D02*
G01X2171713Y3908011D01*
G01X1793113Y4078013D02*
G01X1793113Y3908011D01*
G01X2093112Y3908011D02*
G01X2093112Y4078013D01*
G01X1643113Y3908011D02*
G01X1643113Y3773320D01*
G01X2243112Y3908011D02*
G01X1643113Y3908011D01*
G01X5295905Y4290309D02*
G01X5092705Y4290309D01*
G01X5295905Y4290309D02*
G01X5295905Y3890310D01*
G01X5092705Y3890310D02*
G01X5092705Y4290309D01*
G01X4652706Y3450311D02*
G01X5532704Y3450311D01*
G01X4652706Y3890310D02*
G01X5532704Y3890310D01*
G01X5532704Y3450311D02*
G01X5532704Y3498835D01*
G01X5532704Y3841786D02*
G01X5532704Y3890310D01*
G01X4652706Y3450311D02*
G01X4652706Y3498835D01*
G01X4652706Y3841786D02*
G01X4652706Y3890310D01*
G01X1252512Y3908011D02*
G01X1252512Y3773320D01*
G01X1102512Y4102097D02*
G01X802513Y4102097D01*
G01X802513Y4078013D02*
G01X802513Y4102097D01*
G01X1102512Y4078013D02*
G01X1102512Y4102097D01*
G01X1252512Y3578009D02*
G01X652513Y3578009D01*
G01X682407Y3908011D02*
G01X682407Y3942410D01*
G01X682407Y3942410D02*
G01X723913Y3942410D01*
G01X723913Y3942410D02*
G01X723913Y3908011D01*
G01X1226576Y3908011D02*
G01X1226576Y3942410D01*
G01X1226576Y3942410D02*
G01X1181113Y3942410D01*
G01X1181113Y3942410D02*
G01X1181113Y3908011D01*
G01X802513Y4078013D02*
G01X802513Y3908011D01*
G01X1102512Y3908011D02*
G01X1102512Y4078013D01*
G01X652513Y3908011D02*
G01X652513Y3773320D01*
G01X1252512Y3908011D02*
G01X652513Y3908011D01*
G01X708797Y3124020D02*
G01X708797Y324020D01*
G01X5718797Y324020D01*
G01X5718797Y3124020D01*
G01X708797Y3124020D01*
G01X108797Y1729100D02*
G01X108797Y2629100D01*
G01X108797Y2629100D02*
G01X708797Y2629100D01*
G01X108797Y1729100D02*
G01X108797Y829100D01*
G01X108797Y829100D02*
G01X708797Y829100D01*

G04 Rect Start*
G01X648106Y40081D02*
G01X648106Y290093D01*
G01X5778094Y290093D01*
G01X5778094Y40081D01*
G01X648106Y40081D01*
G01X5778094Y3401619D02*
G01X5778094Y3151607D01*
G01X648106Y3151607D01*
G01X648106Y3401619D01*
G01X5778094Y3401619D01*
G04 Rect End*

M02*

