G04 Layer: TopSolderMaskLayer*
G04 EasyEDA Pro v2.2.43.4, 2025-12-31 16:20:31*
G04 Gerber Generator version 0.3*
G04 Scale: 100 percent, Rotated: No, Reflected: No*
G04 Dimensions in millimeters*
G04 Leading zeros omitted, absolute positions, 4 integers and 5 decimals*
G04 Generated by one-click*
%FSLAX45Y45*%
%MOMM*%
%ADD10C,1.7516*%
%ADD11C,1.9016*%
%ADD12O,2.1016X3.10159*%
%ADD13O,1.70155X1.7016*%
%ADD14C,1.6016*%
%ADD15C,0.5857*%
G75*


G04 Pad Start*
G54D10*
G01X800100Y165100D03*
G01X1054100Y165100D03*
G01X1308100Y165100D03*
G01X1562100Y165100D03*
G01X1816100Y165100D03*
G01X2070100Y165100D03*
G01X2324100Y165100D03*
G01X2578100Y165100D03*
G01X2832100Y165100D03*
G01X3086100Y165100D03*
G01X3340100Y165100D03*
G01X3594100Y165100D03*
G01X3848100Y165100D03*
G01X4102100Y165100D03*
G01X4356100Y165100D03*
G01X4610100Y165100D03*
G01X4864100Y165100D03*
G01X5118100Y165100D03*
G01X5372100Y165100D03*
G01X5626100Y165100D03*
G01X5626100Y3276600D03*
G01X5372100Y3276600D03*
G01X5118100Y3276600D03*
G01X4864100Y3276600D03*
G01X4610100Y3276600D03*
G01X4356100Y3276600D03*
G01X4102100Y3276600D03*
G01X3848100Y3276600D03*
G01X3594100Y3276600D03*
G01X3340100Y3276600D03*
G01X3086100Y3276600D03*
G01X2832100Y3276600D03*
G01X2578100Y3276600D03*
G01X2324100Y3276600D03*
G01X2070100Y3276600D03*
G01X1816100Y3276600D03*
G01X1562100Y3276600D03*
G01X1308100Y3276600D03*
G01X1054100Y3276600D03*
G01X800100Y3276600D03*
G54D11*
G01X4174300Y3683000D03*
G01X3674301Y3683000D03*
G01X3183700Y3683000D03*
G01X2683701Y3683000D03*
G01X2193100Y3683000D03*
G01X1693101Y3683000D03*
G54D12*
G01X5507711Y3670300D03*
G01X4677689Y3670300D03*
G54D13*
G01X5092700Y3670300D03*
G01X4892700Y3670300D03*
G01X5292700Y3670300D03*
G54D10*
G01X3736340Y916940D03*
G01X3482340Y916940D03*
G01X3228340Y916940D03*
G01X3342640Y2397760D03*
G01X3342640Y1635760D03*
G01X3596640Y2397760D03*
G01X3088640Y2397760D03*
G01X3088640Y1635760D03*
G01X3596640Y1635760D03*
G01X2209800Y2451100D03*
G01X2209800Y2197100D03*
G01X2209800Y1943100D03*
G01X2209800Y1689100D03*
G01X2209800Y1435100D03*
G01X2209800Y1181100D03*
G01X2209800Y927100D03*
G54D14*
G01X914400Y1562100D03*
G01X914400Y1816100D03*
G54D11*
G01X1202500Y3683000D03*
G01X702501Y3683000D03*
G54D14*
G01X801197Y452400D03*
G01X1055197Y452400D03*
G01X1309197Y452400D03*
G01X1563197Y452400D03*
G01X1817197Y452400D03*
G01X2071197Y452400D03*
G01X2325197Y452400D03*
G01X2579197Y452400D03*
G01X2833197Y452400D03*
G01X3087197Y452400D03*
G01X3341197Y452400D03*
G01X3595197Y452400D03*
G01X3849197Y452400D03*
G01X4103197Y452400D03*
G01X4357197Y452400D03*
G01X4611197Y452400D03*
G01X4865197Y452400D03*
G01X5119197Y452400D03*
G01X5373197Y452400D03*
G01X5627197Y452400D03*
G01X5627197Y2994940D03*
G01X5373197Y2994940D03*
G01X5119197Y2994940D03*
G01X4865197Y2994940D03*
G01X4611197Y2994940D03*
G01X4357197Y2994940D03*
G01X4103197Y2994940D03*
G01X3849197Y2994940D03*
G01X3595197Y2994940D03*
G01X3341197Y2994940D03*
G01X3087197Y2994940D03*
G01X2833197Y2994940D03*
G01X2579197Y2994940D03*
G01X2325197Y2994940D03*
G01X2071197Y2994940D03*
G01X1817197Y2994940D03*
G01X1563197Y2994940D03*
G01X1309197Y2994940D03*
G01X1055197Y2994940D03*
G01X801197Y2994940D03*
G04 Pad End*

M02*

