G04 Layer: TopLayer*
G04 EasyEDA Pro v2.2.43.4, 2025-12-31 16:20:31*
G04 Gerber Generator version 0.3*
G04 Scale: 100 percent, Rotated: No, Reflected: No*
G04 Dimensions in millimeters*
G04 Leading zeros omitted, absolute positions, 4 integers and 5 decimals*
G04 Generated by one-click*
%FSLAX45Y45*%
%MOMM*%
%ADD10C,0.2032*%
%ADD11C,0.254*%
%ADD12C,1.65*%
%ADD13C,1.8*%
%ADD14O,2.0X2.99999*%
%ADD15O,1.6017X1.6*%
%ADD16O,1.59995X1.6*%
%ADD17C,1.5*%
%ADD18C,0.61*%
G75*


G04 Copper Start*
G36*
G01X35814Y3724300D02*
G01X37835Y3749984D01*
G01X43850Y3775036D01*
G01X53709Y3798839D01*
G01X67171Y3820806D01*
G01X83903Y3840397D01*
G01X103494Y3857129D01*
G01X125461Y3870591D01*
G01X149264Y3880450D01*
G01X174316Y3886465D01*
G01X200000Y3888486D01*
G01X6100000Y3888486D01*
G01X6125684Y3886465D01*
G01X6150736Y3880450D01*
G01X6174539Y3870591D01*
G01X6196506Y3857129D01*
G01X6216097Y3840397D01*
G01X6232829Y3820806D01*
G01X6246291Y3798839D01*
G01X6256150Y3775036D01*
G01X6262165Y3749984D01*
G01X6264186Y3724300D01*
G01X6264186Y124300D01*
G01X6262165Y98616D01*
G01X6256150Y73564D01*
G01X6246291Y49761D01*
G01X6232829Y27794D01*
G01X6216097Y8203D01*
G01X6196506Y-8529D01*
G01X6174539Y-21991D01*
G01X6150736Y-31850D01*
G01X6125684Y-37864D01*
G01X6100000Y-39886D01*
G01X200000Y-39886D01*
G01X174316Y-37864D01*
G01X149264Y-31850D01*
G01X125461Y-21991D01*
G01X103494Y-8529D01*
G01X83903Y8203D01*
G01X67171Y27794D01*
G01X53709Y49761D01*
G01X43850Y73564D01*
G01X37835Y98616D01*
G01X35814Y124300D01*
G01X35814Y190500D01*
G01X55886Y190500D01*
G01X57850Y161794D01*
G01X63704Y133623D01*
G01X73339Y106512D01*
G01X86577Y80964D01*
G01X103169Y57458D01*
G01X122808Y36430D01*
G01X145128Y18271D01*
G01X169712Y3321D01*
G01X196103Y-8142D01*
G01X223809Y-15905D01*
G01X252314Y-19822D01*
G01X281086Y-19822D01*
G01X309591Y-15905D01*
G01X337297Y-8142D01*
G01X363688Y3321D01*
G01X388272Y18271D01*
G01X410592Y36430D01*
G01X430231Y57458D01*
G01X446823Y80964D01*
G01X460061Y106512D01*
G01X469696Y133623D01*
G01X475550Y161794D01*
G01X475776Y165100D01*
G01X681786Y165100D01*
G01X683801Y143360D01*
G01X689776Y122360D01*
G01X699507Y102816D01*
G01X712665Y85392D01*
G01X728800Y70683D01*
G01X747363Y59190D01*
G01X767722Y51303D01*
G01X789183Y47291D01*
G01X811017Y47291D01*
G01X832478Y51303D01*
G01X852837Y59190D01*
G01X871400Y70683D01*
G01X887535Y85392D01*
G01X900693Y102816D01*
G01X910424Y122360D01*
G01X916399Y143360D01*
G01X918414Y165100D01*
G01X918414Y165100D01*
G01X935786Y165100D01*
G01X937801Y143360D01*
G01X943776Y122360D01*
G01X953507Y102816D01*
G01X966665Y85392D01*
G01X982800Y70683D01*
G01X1001363Y59190D01*
G01X1021722Y51303D01*
G01X1043183Y47291D01*
G01X1065017Y47291D01*
G01X1086478Y51303D01*
G01X1106837Y59190D01*
G01X1125400Y70683D01*
G01X1141535Y85392D01*
G01X1154693Y102816D01*
G01X1164424Y122360D01*
G01X1170399Y143360D01*
G01X1172414Y165100D01*
G01X1172414Y165100D01*
G01X1189786Y165100D01*
G01X1191801Y143360D01*
G01X1197776Y122360D01*
G01X1207507Y102816D01*
G01X1220665Y85392D01*
G01X1236800Y70683D01*
G01X1255363Y59190D01*
G01X1275722Y51303D01*
G01X1297183Y47291D01*
G01X1319017Y47291D01*
G01X1340478Y51303D01*
G01X1360837Y59190D01*
G01X1379400Y70683D01*
G01X1395535Y85392D01*
G01X1408693Y102816D01*
G01X1418424Y122360D01*
G01X1424399Y143360D01*
G01X1426414Y165100D01*
G01X1426414Y165100D01*
G01X1443786Y165100D01*
G01X1445801Y143360D01*
G01X1451776Y122360D01*
G01X1461507Y102816D01*
G01X1474665Y85392D01*
G01X1490800Y70683D01*
G01X1509363Y59190D01*
G01X1529722Y51303D01*
G01X1551183Y47291D01*
G01X1573017Y47291D01*
G01X1594478Y51303D01*
G01X1614837Y59190D01*
G01X1633400Y70683D01*
G01X1649535Y85392D01*
G01X1662693Y102816D01*
G01X1672424Y122360D01*
G01X1678399Y143360D01*
G01X1680414Y165100D01*
G01X1680414Y165100D01*
G01X1697786Y165100D01*
G01X1699801Y143360D01*
G01X1705776Y122360D01*
G01X1715507Y102816D01*
G01X1728665Y85392D01*
G01X1744800Y70683D01*
G01X1763363Y59190D01*
G01X1783722Y51303D01*
G01X1805183Y47291D01*
G01X1827017Y47291D01*
G01X1848478Y51303D01*
G01X1868837Y59190D01*
G01X1887400Y70683D01*
G01X1903535Y85392D01*
G01X1916693Y102816D01*
G01X1926424Y122360D01*
G01X1932399Y143360D01*
G01X1934414Y165100D01*
G01X1934414Y165100D01*
G01X1951786Y165100D01*
G01X1953801Y143360D01*
G01X1959776Y122360D01*
G01X1969507Y102816D01*
G01X1982665Y85392D01*
G01X1998800Y70683D01*
G01X2017363Y59190D01*
G01X2037722Y51303D01*
G01X2059183Y47291D01*
G01X2081017Y47291D01*
G01X2102478Y51303D01*
G01X2122837Y59190D01*
G01X2141400Y70683D01*
G01X2157535Y85392D01*
G01X2170693Y102816D01*
G01X2180424Y122360D01*
G01X2186399Y143360D01*
G01X2188414Y165100D01*
G01X2188414Y165100D01*
G01X2205786Y165100D01*
G01X2207801Y143360D01*
G01X2213776Y122360D01*
G01X2223507Y102816D01*
G01X2236665Y85392D01*
G01X2252800Y70683D01*
G01X2271363Y59190D01*
G01X2291722Y51303D01*
G01X2313183Y47291D01*
G01X2335017Y47291D01*
G01X2356478Y51303D01*
G01X2376837Y59190D01*
G01X2395400Y70683D01*
G01X2411535Y85392D01*
G01X2424693Y102816D01*
G01X2434424Y122360D01*
G01X2440399Y143360D01*
G01X2442414Y165100D01*
G01X2442414Y165100D01*
G01X2459786Y165100D01*
G01X2461801Y143360D01*
G01X2467776Y122360D01*
G01X2477507Y102816D01*
G01X2490665Y85392D01*
G01X2506800Y70683D01*
G01X2525363Y59190D01*
G01X2545722Y51303D01*
G01X2567183Y47291D01*
G01X2589017Y47291D01*
G01X2610478Y51303D01*
G01X2630837Y59190D01*
G01X2649400Y70683D01*
G01X2665535Y85392D01*
G01X2678693Y102816D01*
G01X2688424Y122360D01*
G01X2694399Y143360D01*
G01X2696414Y165100D01*
G01X2696414Y165100D01*
G01X2713786Y165100D01*
G01X2715801Y143360D01*
G01X2721776Y122360D01*
G01X2731507Y102816D01*
G01X2744665Y85392D01*
G01X2760800Y70683D01*
G01X2779363Y59190D01*
G01X2799722Y51303D01*
G01X2821183Y47291D01*
G01X2843017Y47291D01*
G01X2864478Y51303D01*
G01X2884837Y59190D01*
G01X2903400Y70683D01*
G01X2919535Y85392D01*
G01X2932693Y102816D01*
G01X2942424Y122360D01*
G01X2948399Y143360D01*
G01X2950414Y165100D01*
G01X2950414Y165100D01*
G01X2967786Y165100D01*
G01X2969801Y143360D01*
G01X2975776Y122360D01*
G01X2985507Y102816D01*
G01X2998665Y85392D01*
G01X3014800Y70683D01*
G01X3033363Y59190D01*
G01X3053722Y51303D01*
G01X3075183Y47291D01*
G01X3097017Y47291D01*
G01X3118478Y51303D01*
G01X3138837Y59190D01*
G01X3157400Y70683D01*
G01X3173535Y85392D01*
G01X3186693Y102816D01*
G01X3196424Y122360D01*
G01X3202399Y143360D01*
G01X3204414Y165100D01*
G01X3204414Y165100D01*
G01X3221786Y165100D01*
G01X3223801Y143360D01*
G01X3229776Y122360D01*
G01X3239507Y102816D01*
G01X3252665Y85392D01*
G01X3268800Y70683D01*
G01X3287363Y59190D01*
G01X3307722Y51303D01*
G01X3329183Y47291D01*
G01X3351017Y47291D01*
G01X3372478Y51303D01*
G01X3392837Y59190D01*
G01X3411400Y70683D01*
G01X3427535Y85392D01*
G01X3440693Y102816D01*
G01X3450424Y122360D01*
G01X3456399Y143360D01*
G01X3458414Y165100D01*
G01X3456399Y186840D01*
G01X3450424Y207840D01*
G01X3440693Y227384D01*
G01X3427535Y244808D01*
G01X3411400Y259517D01*
G01X3392837Y271010D01*
G01X3372478Y278897D01*
G01X3351017Y282909D01*
G01X3329183Y282909D01*
G01X3307722Y278897D01*
G01X3287363Y271010D01*
G01X3268800Y259517D01*
G01X3252665Y244808D01*
G01X3239507Y227384D01*
G01X3229776Y207840D01*
G01X3223801Y186840D01*
G01X3221786Y165100D01*
G01X3221786Y165100D01*
G01X3204414Y165100D01*
G01X3202399Y186840D01*
G01X3196424Y207840D01*
G01X3186693Y227384D01*
G01X3173535Y244808D01*
G01X3157400Y259517D01*
G01X3138837Y271010D01*
G01X3118478Y278897D01*
G01X3097017Y282909D01*
G01X3075183Y282909D01*
G01X3053722Y278897D01*
G01X3033363Y271010D01*
G01X3014800Y259517D01*
G01X2998665Y244808D01*
G01X2985507Y227384D01*
G01X2975776Y207840D01*
G01X2969801Y186840D01*
G01X2967786Y165100D01*
G01X2967786Y165100D01*
G01X2950414Y165100D01*
G01X2948399Y186840D01*
G01X2942424Y207840D01*
G01X2932693Y227384D01*
G01X2919535Y244808D01*
G01X2903400Y259517D01*
G01X2884837Y271010D01*
G01X2864478Y278897D01*
G01X2843017Y282909D01*
G01X2821183Y282909D01*
G01X2799722Y278897D01*
G01X2779363Y271010D01*
G01X2760800Y259517D01*
G01X2744665Y244808D01*
G01X2731507Y227384D01*
G01X2721776Y207840D01*
G01X2715801Y186840D01*
G01X2713786Y165100D01*
G01X2713786Y165100D01*
G01X2696414Y165100D01*
G01X2694399Y186840D01*
G01X2688424Y207840D01*
G01X2678693Y227384D01*
G01X2665535Y244808D01*
G01X2649400Y259517D01*
G01X2630837Y271010D01*
G01X2610478Y278897D01*
G01X2589017Y282909D01*
G01X2567183Y282909D01*
G01X2545722Y278897D01*
G01X2525363Y271010D01*
G01X2506800Y259517D01*
G01X2490665Y244808D01*
G01X2477507Y227384D01*
G01X2467776Y207840D01*
G01X2461801Y186840D01*
G01X2459786Y165100D01*
G01X2459786Y165100D01*
G01X2442414Y165100D01*
G01X2440399Y186840D01*
G01X2434424Y207840D01*
G01X2424693Y227384D01*
G01X2411535Y244808D01*
G01X2395400Y259517D01*
G01X2376837Y271010D01*
G01X2356478Y278897D01*
G01X2335017Y282909D01*
G01X2313183Y282909D01*
G01X2291722Y278897D01*
G01X2271363Y271010D01*
G01X2252800Y259517D01*
G01X2236665Y244808D01*
G01X2223507Y227384D01*
G01X2213776Y207840D01*
G01X2207801Y186840D01*
G01X2205786Y165100D01*
G01X2205786Y165100D01*
G01X2188414Y165100D01*
G01X2186399Y186840D01*
G01X2180424Y207840D01*
G01X2170693Y227384D01*
G01X2157535Y244808D01*
G01X2141400Y259517D01*
G01X2122837Y271010D01*
G01X2102478Y278897D01*
G01X2081017Y282909D01*
G01X2059183Y282909D01*
G01X2037722Y278897D01*
G01X2017363Y271010D01*
G01X1998800Y259517D01*
G01X1982665Y244808D01*
G01X1969507Y227384D01*
G01X1959776Y207840D01*
G01X1953801Y186840D01*
G01X1951786Y165100D01*
G01X1951786Y165100D01*
G01X1934414Y165100D01*
G01X1932399Y186840D01*
G01X1926424Y207840D01*
G01X1916693Y227384D01*
G01X1903535Y244808D01*
G01X1887400Y259517D01*
G01X1868837Y271010D01*
G01X1848478Y278897D01*
G01X1827017Y282909D01*
G01X1805183Y282909D01*
G01X1783722Y278897D01*
G01X1763363Y271010D01*
G01X1744800Y259517D01*
G01X1728665Y244808D01*
G01X1715507Y227384D01*
G01X1705776Y207840D01*
G01X1699801Y186840D01*
G01X1697786Y165100D01*
G01X1697786Y165100D01*
G01X1680414Y165100D01*
G01X1678399Y186840D01*
G01X1672424Y207840D01*
G01X1662693Y227384D01*
G01X1649535Y244808D01*
G01X1633400Y259517D01*
G01X1614837Y271010D01*
G01X1594478Y278897D01*
G01X1573017Y282909D01*
G01X1551183Y282909D01*
G01X1529722Y278897D01*
G01X1509363Y271010D01*
G01X1490800Y259517D01*
G01X1474665Y244808D01*
G01X1461507Y227384D01*
G01X1451776Y207840D01*
G01X1445801Y186840D01*
G01X1443786Y165100D01*
G01X1443786Y165100D01*
G01X1426414Y165100D01*
G01X1424399Y186840D01*
G01X1418424Y207840D01*
G01X1408693Y227384D01*
G01X1395535Y244808D01*
G01X1379400Y259517D01*
G01X1360837Y271010D01*
G01X1340478Y278897D01*
G01X1319017Y282909D01*
G01X1297183Y282909D01*
G01X1275722Y278897D01*
G01X1255363Y271010D01*
G01X1236800Y259517D01*
G01X1220665Y244808D01*
G01X1207507Y227384D01*
G01X1197776Y207840D01*
G01X1191801Y186840D01*
G01X1189786Y165100D01*
G01X1189786Y165100D01*
G01X1172414Y165100D01*
G01X1170399Y186840D01*
G01X1164424Y207840D01*
G01X1154693Y227384D01*
G01X1141535Y244808D01*
G01X1125400Y259517D01*
G01X1106837Y271010D01*
G01X1086478Y278897D01*
G01X1065017Y282909D01*
G01X1043183Y282909D01*
G01X1021722Y278897D01*
G01X1001363Y271010D01*
G01X982800Y259517D01*
G01X966665Y244808D01*
G01X953507Y227384D01*
G01X943776Y207840D01*
G01X937801Y186840D01*
G01X935786Y165100D01*
G01X935786Y165100D01*
G01X918414Y165100D01*
G01X916399Y186840D01*
G01X910424Y207840D01*
G01X900693Y227384D01*
G01X887535Y244808D01*
G01X871400Y259517D01*
G01X852837Y271010D01*
G01X832478Y278897D01*
G01X811017Y282909D01*
G01X789183Y282909D01*
G01X767722Y278897D01*
G01X747363Y271010D01*
G01X728800Y259517D01*
G01X712665Y244808D01*
G01X699507Y227384D01*
G01X689776Y207840D01*
G01X683801Y186840D01*
G01X681786Y165100D01*
G01X681786Y165100D01*
G01X475776Y165100D01*
G01X477514Y190500D01*
G01X475550Y219206D01*
G01X469696Y247377D01*
G01X460061Y274488D01*
G01X446823Y300036D01*
G01X430231Y323542D01*
G01X410592Y344570D01*
G01X388272Y362729D01*
G01X363688Y377679D01*
G01X337297Y389142D01*
G01X309591Y396905D01*
G01X281086Y400822D01*
G01X252314Y400822D01*
G01X223809Y396905D01*
G01X196103Y389142D01*
G01X169712Y377679D01*
G01X145128Y362729D01*
G01X122808Y344570D01*
G01X103169Y323542D01*
G01X86577Y300036D01*
G01X73339Y274488D01*
G01X63704Y247377D01*
G01X57850Y219206D01*
G01X55886Y190500D01*
G01X55886Y190500D01*
G01X35814Y190500D01*
G01X35814Y462625D01*
G01X690856Y462625D01*
G01X690856Y442176D01*
G01X694613Y422074D01*
G01X702000Y403006D01*
G01X712766Y385620D01*
G01X726542Y370508D01*
G01X742861Y358184D01*
G01X761166Y349069D01*
G01X780835Y343473D01*
G01X801197Y341586D01*
G01X801197Y341586D01*
G01X821559Y343473D01*
G01X841228Y349069D01*
G01X859533Y358184D01*
G01X875852Y370508D01*
G01X889628Y385620D01*
G01X900394Y403006D01*
G01X907781Y422074D01*
G01X911538Y442176D01*
G01X911538Y462625D01*
G01X911538Y462625D01*
G01X944856Y462625D01*
G01X944856Y442176D01*
G01X948613Y422074D01*
G01X956000Y403006D01*
G01X966766Y385620D01*
G01X980542Y370508D01*
G01X996861Y358184D01*
G01X1015166Y349069D01*
G01X1034835Y343473D01*
G01X1055197Y341586D01*
G01X1055197Y341586D01*
G01X1075559Y343473D01*
G01X1095228Y349069D01*
G01X1113533Y358184D01*
G01X1129852Y370508D01*
G01X1143628Y385620D01*
G01X1154394Y403006D01*
G01X1161781Y422074D01*
G01X1165538Y442176D01*
G01X1165538Y462625D01*
G01X1165538Y462625D01*
G01X1198856Y462625D01*
G01X1198856Y442176D01*
G01X1202613Y422074D01*
G01X1210000Y403006D01*
G01X1220766Y385620D01*
G01X1234542Y370508D01*
G01X1250861Y358184D01*
G01X1269166Y349069D01*
G01X1288835Y343473D01*
G01X1309197Y341586D01*
G01X1309197Y341586D01*
G01X1329559Y343473D01*
G01X1349228Y349069D01*
G01X1367533Y358184D01*
G01X1383852Y370508D01*
G01X1397628Y385620D01*
G01X1408394Y403006D01*
G01X1415781Y422074D01*
G01X1419538Y442176D01*
G01X1419538Y462625D01*
G01X1419538Y462625D01*
G01X1452856Y462625D01*
G01X1452856Y442176D01*
G01X1456613Y422074D01*
G01X1464000Y403006D01*
G01X1474766Y385620D01*
G01X1488542Y370508D01*
G01X1504861Y358184D01*
G01X1523166Y349069D01*
G01X1542835Y343473D01*
G01X1563197Y341586D01*
G01X1563197Y341586D01*
G01X1583559Y343473D01*
G01X1603228Y349069D01*
G01X1621533Y358184D01*
G01X1637852Y370508D01*
G01X1651628Y385620D01*
G01X1662394Y403006D01*
G01X1669781Y422074D01*
G01X1673538Y442176D01*
G01X1673538Y462625D01*
G01X1673538Y462625D01*
G01X1706856Y462625D01*
G01X1706856Y442176D01*
G01X1710613Y422074D01*
G01X1718000Y403006D01*
G01X1728766Y385620D01*
G01X1742542Y370508D01*
G01X1758861Y358184D01*
G01X1777166Y349069D01*
G01X1796835Y343473D01*
G01X1817197Y341586D01*
G01X1817197Y341586D01*
G01X1837559Y343473D01*
G01X1857228Y349069D01*
G01X1875533Y358184D01*
G01X1891852Y370508D01*
G01X1905628Y385620D01*
G01X1916394Y403006D01*
G01X1923781Y422074D01*
G01X1927538Y442176D01*
G01X1927538Y462625D01*
G01X1927538Y462625D01*
G01X1960856Y462625D01*
G01X1960856Y442176D01*
G01X1964613Y422074D01*
G01X1972000Y403006D01*
G01X1982766Y385620D01*
G01X1996542Y370508D01*
G01X2012861Y358184D01*
G01X2031166Y349069D01*
G01X2050835Y343473D01*
G01X2071197Y341586D01*
G01X2071197Y341586D01*
G01X2091559Y343473D01*
G01X2111228Y349069D01*
G01X2129533Y358184D01*
G01X2145852Y370508D01*
G01X2159628Y385620D01*
G01X2170394Y403006D01*
G01X2177781Y422074D01*
G01X2181538Y442176D01*
G01X2181538Y462625D01*
G01X2181538Y462625D01*
G01X2214856Y462625D01*
G01X2214856Y442176D01*
G01X2218613Y422074D01*
G01X2226000Y403006D01*
G01X2236766Y385620D01*
G01X2250542Y370508D01*
G01X2266861Y358184D01*
G01X2285166Y349069D01*
G01X2304835Y343473D01*
G01X2325197Y341586D01*
G01X2325197Y341586D01*
G01X2345559Y343473D01*
G01X2365228Y349069D01*
G01X2383533Y358184D01*
G01X2399852Y370508D01*
G01X2413628Y385620D01*
G01X2424394Y403006D01*
G01X2431781Y422074D01*
G01X2435538Y442176D01*
G01X2435538Y462625D01*
G01X2435538Y462625D01*
G01X2468856Y462625D01*
G01X2468856Y442176D01*
G01X2472613Y422074D01*
G01X2480000Y403006D01*
G01X2490766Y385620D01*
G01X2504542Y370508D01*
G01X2520861Y358184D01*
G01X2539166Y349069D01*
G01X2558835Y343473D01*
G01X2579197Y341586D01*
G01X2579197Y341586D01*
G01X2599559Y343473D01*
G01X2619228Y349069D01*
G01X2637533Y358184D01*
G01X2653852Y370508D01*
G01X2667628Y385620D01*
G01X2678394Y403006D01*
G01X2685781Y422074D01*
G01X2689538Y442176D01*
G01X2689538Y462625D01*
G01X2689538Y462625D01*
G01X2722856Y462625D01*
G01X2722856Y442176D01*
G01X2726613Y422074D01*
G01X2734000Y403006D01*
G01X2744766Y385620D01*
G01X2758542Y370508D01*
G01X2774861Y358184D01*
G01X2793166Y349069D01*
G01X2812835Y343473D01*
G01X2833197Y341586D01*
G01X2833197Y341586D01*
G01X2853559Y343473D01*
G01X2873228Y349069D01*
G01X2891533Y358184D01*
G01X2907852Y370508D01*
G01X2921628Y385620D01*
G01X2932394Y403006D01*
G01X2939781Y422074D01*
G01X2943538Y442176D01*
G01X2943538Y462625D01*
G01X2943538Y462625D01*
G01X2976856Y462625D01*
G01X2976856Y442176D01*
G01X2980613Y422074D01*
G01X2988000Y403006D01*
G01X2998766Y385620D01*
G01X3012542Y370508D01*
G01X3028861Y358184D01*
G01X3047166Y349069D01*
G01X3066835Y343473D01*
G01X3087197Y341586D01*
G01X3087197Y341586D01*
G01X3107559Y343473D01*
G01X3127228Y349069D01*
G01X3145533Y358184D01*
G01X3161852Y370508D01*
G01X3175628Y385620D01*
G01X3186394Y403006D01*
G01X3193781Y422074D01*
G01X3197538Y442176D01*
G01X3197538Y462625D01*
G01X3193781Y482726D01*
G01X3186394Y501794D01*
G01X3175628Y519181D01*
G01X3161852Y534293D01*
G01X3145533Y546616D01*
G01X3127228Y555731D01*
G01X3107559Y561327D01*
G01X3087197Y563214D01*
G01X3066835Y561327D01*
G01X3047166Y555731D01*
G01X3028861Y546616D01*
G01X3012542Y534293D01*
G01X2998766Y519181D01*
G01X2988000Y501794D01*
G01X2980613Y482726D01*
G01X2976856Y462625D01*
G01X2943538Y462625D01*
G01X2939781Y482726D01*
G01X2932394Y501794D01*
G01X2921628Y519181D01*
G01X2907852Y534293D01*
G01X2891533Y546616D01*
G01X2873228Y555731D01*
G01X2853559Y561327D01*
G01X2833197Y563214D01*
G01X2812835Y561327D01*
G01X2793166Y555731D01*
G01X2774861Y546616D01*
G01X2758542Y534293D01*
G01X2744766Y519181D01*
G01X2734000Y501794D01*
G01X2726613Y482726D01*
G01X2722856Y462625D01*
G01X2689538Y462625D01*
G01X2685781Y482726D01*
G01X2678394Y501794D01*
G01X2667628Y519181D01*
G01X2653852Y534293D01*
G01X2637533Y546616D01*
G01X2619228Y555731D01*
G01X2599559Y561327D01*
G01X2579197Y563214D01*
G01X2558835Y561327D01*
G01X2539166Y555731D01*
G01X2520861Y546616D01*
G01X2504542Y534293D01*
G01X2490766Y519181D01*
G01X2480000Y501794D01*
G01X2472613Y482726D01*
G01X2468856Y462625D01*
G01X2435538Y462625D01*
G01X2431781Y482726D01*
G01X2424394Y501794D01*
G01X2413628Y519181D01*
G01X2399852Y534293D01*
G01X2383533Y546616D01*
G01X2365228Y555731D01*
G01X2345559Y561327D01*
G01X2325197Y563214D01*
G01X2304835Y561327D01*
G01X2285166Y555731D01*
G01X2266861Y546616D01*
G01X2250542Y534293D01*
G01X2236766Y519181D01*
G01X2226000Y501794D01*
G01X2218613Y482726D01*
G01X2214856Y462625D01*
G01X2181538Y462625D01*
G01X2177781Y482726D01*
G01X2170394Y501794D01*
G01X2159628Y519181D01*
G01X2145852Y534293D01*
G01X2129533Y546616D01*
G01X2111228Y555731D01*
G01X2091559Y561327D01*
G01X2071197Y563214D01*
G01X2050835Y561327D01*
G01X2031166Y555731D01*
G01X2012861Y546616D01*
G01X1996542Y534293D01*
G01X1982766Y519181D01*
G01X1972000Y501794D01*
G01X1964613Y482726D01*
G01X1960856Y462625D01*
G01X1927538Y462625D01*
G01X1923781Y482726D01*
G01X1916394Y501794D01*
G01X1905628Y519181D01*
G01X1891852Y534293D01*
G01X1875533Y546616D01*
G01X1857228Y555731D01*
G01X1837559Y561327D01*
G01X1817197Y563214D01*
G01X1796835Y561327D01*
G01X1777166Y555731D01*
G01X1758861Y546616D01*
G01X1742542Y534293D01*
G01X1728766Y519181D01*
G01X1718000Y501794D01*
G01X1710613Y482726D01*
G01X1706856Y462625D01*
G01X1673538Y462625D01*
G01X1669781Y482726D01*
G01X1662394Y501794D01*
G01X1651628Y519181D01*
G01X1637852Y534293D01*
G01X1621533Y546616D01*
G01X1603228Y555731D01*
G01X1583559Y561327D01*
G01X1563197Y563214D01*
G01X1542835Y561327D01*
G01X1523166Y555731D01*
G01X1504861Y546616D01*
G01X1488542Y534293D01*
G01X1474766Y519181D01*
G01X1464000Y501794D01*
G01X1456613Y482726D01*
G01X1452856Y462625D01*
G01X1419538Y462625D01*
G01X1415781Y482726D01*
G01X1408394Y501794D01*
G01X1397628Y519181D01*
G01X1383852Y534293D01*
G01X1367533Y546616D01*
G01X1349228Y555731D01*
G01X1329559Y561327D01*
G01X1309197Y563214D01*
G01X1288835Y561327D01*
G01X1269166Y555731D01*
G01X1250861Y546616D01*
G01X1234542Y534293D01*
G01X1220766Y519181D01*
G01X1210000Y501794D01*
G01X1202613Y482726D01*
G01X1198856Y462625D01*
G01X1165538Y462625D01*
G01X1161781Y482726D01*
G01X1154394Y501794D01*
G01X1143628Y519181D01*
G01X1129852Y534293D01*
G01X1113533Y546616D01*
G01X1095228Y555731D01*
G01X1075559Y561327D01*
G01X1055197Y563214D01*
G01X1034835Y561327D01*
G01X1015166Y555731D01*
G01X996861Y546616D01*
G01X980542Y534293D01*
G01X966766Y519181D01*
G01X956000Y501794D01*
G01X948613Y482726D01*
G01X944856Y462625D01*
G01X911538Y462625D01*
G01X907781Y482726D01*
G01X900394Y501794D01*
G01X889628Y519181D01*
G01X875852Y534293D01*
G01X859533Y546616D01*
G01X841228Y555731D01*
G01X821559Y561327D01*
G01X801197Y563214D01*
G01X780835Y561327D01*
G01X761166Y555731D01*
G01X742861Y546616D01*
G01X726542Y534293D01*
G01X712766Y519181D01*
G01X702000Y501794D01*
G01X694613Y482726D01*
G01X690856Y462625D01*
G01X35814Y462625D01*
G01X35814Y1572325D01*
G01X804059Y1572325D01*
G01X804059Y1551875D01*
G01X807816Y1531774D01*
G01X815203Y1512706D01*
G01X825969Y1495320D01*
G01X839745Y1480207D01*
G01X856064Y1467884D01*
G01X874369Y1458769D01*
G01X894038Y1453173D01*
G01X914400Y1451286D01*
G01X934762Y1453173D01*
G01X954431Y1458769D01*
G01X972736Y1467884D01*
G01X989055Y1480207D01*
G01X1002831Y1495320D01*
G01X1013597Y1512706D01*
G01X1020984Y1531774D01*
G01X1024741Y1551875D01*
G01X1024741Y1572325D01*
G01X1020984Y1592426D01*
G01X1013597Y1611494D01*
G01X1002831Y1628880D01*
G01X989055Y1643993D01*
G01X972736Y1656316D01*
G01X954431Y1665431D01*
G01X934762Y1671027D01*
G01X914400Y1672914D01*
G01X914400Y1672914D01*
G01X894038Y1671027D01*
G01X874369Y1665431D01*
G01X856064Y1656316D01*
G01X839745Y1643993D01*
G01X825969Y1628880D01*
G01X815203Y1611494D01*
G01X807816Y1592426D01*
G01X804059Y1572325D01*
G01X35814Y1572325D01*
G01X35814Y1826325D01*
G01X804059Y1826325D01*
G01X804059Y1805875D01*
G01X807816Y1785774D01*
G01X815203Y1766706D01*
G01X825969Y1749320D01*
G01X839745Y1734207D01*
G01X856064Y1721884D01*
G01X874369Y1712769D01*
G01X894038Y1707173D01*
G01X914400Y1705286D01*
G01X934762Y1707173D01*
G01X954431Y1712769D01*
G01X972736Y1721884D01*
G01X989055Y1734207D01*
G01X1002831Y1749320D01*
G01X1013597Y1766706D01*
G01X1020984Y1785774D01*
G01X1024741Y1805875D01*
G01X1024741Y1826325D01*
G01X1020984Y1846426D01*
G01X1013597Y1865494D01*
G01X1002831Y1882880D01*
G01X989055Y1897993D01*
G01X972736Y1910316D01*
G01X954431Y1919431D01*
G01X934762Y1925027D01*
G01X914400Y1926914D01*
G01X914400Y1926914D01*
G01X894038Y1925027D01*
G01X874369Y1919431D01*
G01X856064Y1910316D01*
G01X839745Y1897993D01*
G01X825969Y1882880D01*
G01X815203Y1865494D01*
G01X807816Y1846426D01*
G01X804059Y1826325D01*
G01X35814Y1826325D01*
G01X35814Y3005165D01*
G01X690856Y3005165D01*
G01X690856Y2984715D01*
G01X694613Y2964614D01*
G01X702000Y2945546D01*
G01X712766Y2928160D01*
G01X726542Y2913047D01*
G01X742861Y2900724D01*
G01X761166Y2891609D01*
G01X780835Y2886013D01*
G01X801197Y2884126D01*
G01X801197Y2884126D01*
G01X821559Y2886013D01*
G01X841228Y2891609D01*
G01X859533Y2900724D01*
G01X875852Y2913047D01*
G01X889628Y2928160D01*
G01X900394Y2945546D01*
G01X907781Y2964614D01*
G01X911538Y2984715D01*
G01X911538Y3005165D01*
G01X907781Y3025266D01*
G01X900394Y3044334D01*
G01X889628Y3061720D01*
G01X875852Y3076832D01*
G01X859533Y3089156D01*
G01X841228Y3098271D01*
G01X821559Y3103867D01*
G01X801197Y3105754D01*
G01X780835Y3103867D01*
G01X761166Y3098271D01*
G01X742861Y3089156D01*
G01X726542Y3076832D01*
G01X712766Y3061720D01*
G01X702000Y3044334D01*
G01X694613Y3025266D01*
G01X690856Y3005165D01*
G01X35814Y3005165D01*
G01X35814Y3276600D01*
G01X681786Y3276600D01*
G01X683801Y3254860D01*
G01X689776Y3233860D01*
G01X699507Y3214316D01*
G01X712665Y3196892D01*
G01X728800Y3182183D01*
G01X747363Y3170690D01*
G01X767722Y3162803D01*
G01X789183Y3158791D01*
G01X811017Y3158791D01*
G01X832478Y3162803D01*
G01X852837Y3170690D01*
G01X871400Y3182183D01*
G01X887535Y3196892D01*
G01X900693Y3214316D01*
G01X910424Y3233860D01*
G01X916399Y3254860D01*
G01X918414Y3276600D01*
G01X918414Y3276600D01*
G01X935786Y3276600D01*
G01X937556Y3256209D01*
G01X942815Y3236428D01*
G01X951404Y3217849D01*
G01X963066Y3201029D01*
G01X977453Y3186470D01*
G01X994134Y3174608D01*
G01X1012609Y3165800D01*
G01X1032327Y3160307D01*
G01X1052695Y3158294D01*
G01X1073106Y3159823D01*
G01X1092948Y3164846D01*
G01X1111628Y3173214D01*
G01X1128586Y3184676D01*
G01X1128586Y3077969D01*
G01X1111468Y3090404D01*
G01X1092298Y3099358D01*
G01X1071777Y3104507D01*
G01X1050651Y3105661D01*
G01X1029690Y3102778D01*
G01X1009660Y3095965D01*
G01X991289Y3085469D01*
G01X975248Y3071673D01*
G01X962122Y3055080D01*
G01X952389Y3036294D01*
G01X946403Y3016001D01*
G01X944383Y2994940D01*
G01X946403Y2973879D01*
G01X952389Y2953586D01*
G01X962122Y2934800D01*
G01X975248Y2918207D01*
G01X991289Y2904411D01*
G01X1009660Y2893915D01*
G01X1029690Y2887101D01*
G01X1050651Y2884219D01*
G01X1071777Y2885373D01*
G01X1092298Y2890521D01*
G01X1111468Y2899476D01*
G01X1128586Y2911911D01*
G01X1128586Y2057400D01*
G01X1130239Y2044844D01*
G01X1135085Y2033143D01*
G01X1142795Y2023095D01*
G01X2141900Y1023990D01*
G01X2141900Y1023990D01*
G01X2126287Y1010908D01*
G01X2113150Y995342D01*
G01X2102877Y977753D01*
G01X2095774Y958663D01*
G01X2092050Y938638D01*
G01X2091816Y918270D01*
G01X2095079Y898164D01*
G01X2101742Y878916D01*
G01X2111608Y861096D01*
G01X2124384Y845232D01*
G01X2139692Y831795D01*
G01X2157078Y821182D01*
G01X2176026Y813709D01*
G01X2195976Y809596D01*
G01X2216335Y808967D01*
G01X2236500Y811838D01*
G01X2255874Y818126D01*
G01X2273883Y827644D01*
G01X2289992Y840109D01*
G01X2303724Y855153D01*
G01X2314673Y872329D01*
G01X2322513Y891129D01*
G01X2327013Y910994D01*
G01X2328038Y931337D01*
G01X2325559Y951555D01*
G01X2319649Y971047D01*
G01X2310483Y989238D01*
G01X2298333Y1005586D01*
G01X2871504Y1005586D01*
G01X3316633Y560457D01*
G01X3297899Y554405D01*
G01X3280532Y545134D01*
G01X3265080Y532935D01*
G01X3252030Y518195D01*
G01X3241794Y501378D01*
G01X3234696Y483016D01*
G01X3230959Y463687D01*
G01X3230702Y444001D01*
G01X3233932Y424581D01*
G01X3240547Y406039D01*
G01X3250339Y388960D01*
G01X3262999Y373884D01*
G01X3278127Y361285D01*
G01X3295246Y351562D01*
G01X3313815Y345023D01*
G01X3333248Y341872D01*
G01X3352932Y342209D01*
G01X3372246Y346025D01*
G01X3390579Y353198D01*
G01X3407354Y363502D01*
G01X3422042Y376612D01*
G01X3434177Y392113D01*
G01X3517695Y308595D01*
G01X3527743Y300886D01*
G01X3539443Y296039D01*
G01X3552000Y294386D01*
G01X3557304Y294386D01*
G01X3570628Y281062D01*
G01X3550830Y275218D01*
G01X3532350Y266021D01*
G01X3515749Y253753D01*
G01X3501533Y238785D01*
G01X3490135Y221575D01*
G01X3481901Y202646D01*
G01X3477083Y182573D01*
G01X3475827Y161969D01*
G01X3478172Y141460D01*
G01X3484045Y121671D01*
G01X3493268Y103204D01*
G01X3505561Y86621D01*
G01X3520549Y72426D01*
G01X3537776Y61053D01*
G01X3556717Y52847D01*
G01X3576796Y48058D01*
G01X3597402Y46832D01*
G01X3617908Y49206D01*
G01X3637688Y55108D01*
G01X3656142Y64358D01*
G01X3672708Y76675D01*
G01X3686880Y91683D01*
G01X3690748Y85515D01*
G01X3695495Y79995D01*
G01X3771695Y3795D01*
G01X3781743Y-3914D01*
G01X3793443Y-8761D01*
G01X3806000Y-10414D01*
G01X5245100Y-10414D01*
G01X5257656Y-8761D01*
G01X5269357Y-3914D01*
G01X5279405Y3795D01*
G01X5330101Y54491D01*
G01X5350729Y48732D01*
G01X5372059Y46786D01*
G01X5393389Y48717D01*
G01X5414022Y54462D01*
G01X5433281Y63833D01*
G01X5450535Y76522D01*
G01X5465219Y92113D01*
G01X5476851Y110097D01*
G01X5485051Y129883D01*
G01X5489549Y150823D01*
G01X5489983Y165100D01*
G01X5507786Y165100D01*
G01X5509801Y143360D01*
G01X5515776Y122360D01*
G01X5525507Y102816D01*
G01X5538665Y85392D01*
G01X5554800Y70683D01*
G01X5573363Y59190D01*
G01X5593722Y51303D01*
G01X5615183Y47291D01*
G01X5637017Y47291D01*
G01X5658478Y51303D01*
G01X5678837Y59190D01*
G01X5697400Y70683D01*
G01X5713535Y85392D01*
G01X5726693Y102816D01*
G01X5736424Y122360D01*
G01X5742399Y143360D01*
G01X5744414Y165100D01*
G01X5742399Y186840D01*
G01X5741358Y190500D01*
G01X5834386Y190500D01*
G01X5836350Y161794D01*
G01X5842204Y133623D01*
G01X5851839Y106512D01*
G01X5865077Y80964D01*
G01X5881669Y57458D01*
G01X5901308Y36430D01*
G01X5923628Y18271D01*
G01X5948212Y3321D01*
G01X5974603Y-8142D01*
G01X6002309Y-15905D01*
G01X6030814Y-19822D01*
G01X6059586Y-19822D01*
G01X6088091Y-15905D01*
G01X6115797Y-8142D01*
G01X6142188Y3321D01*
G01X6166772Y18271D01*
G01X6189092Y36430D01*
G01X6208731Y57458D01*
G01X6225323Y80964D01*
G01X6238561Y106512D01*
G01X6248196Y133623D01*
G01X6254050Y161794D01*
G01X6256014Y190500D01*
G01X6254050Y219206D01*
G01X6248196Y247377D01*
G01X6238561Y274488D01*
G01X6225323Y300036D01*
G01X6208731Y323542D01*
G01X6189092Y344570D01*
G01X6166772Y362729D01*
G01X6142188Y377679D01*
G01X6115797Y389142D01*
G01X6088091Y396905D01*
G01X6059586Y400822D01*
G01X6030814Y400822D01*
G01X6002309Y396905D01*
G01X5974603Y389142D01*
G01X5948212Y377679D01*
G01X5923628Y362729D01*
G01X5901308Y344570D01*
G01X5881669Y323542D01*
G01X5865077Y300036D01*
G01X5851839Y274488D01*
G01X5842204Y247377D01*
G01X5836350Y219206D01*
G01X5834386Y190500D01*
G01X5834386Y190500D01*
G01X5741358Y190500D01*
G01X5736424Y207840D01*
G01X5726693Y227384D01*
G01X5713535Y244808D01*
G01X5697400Y259517D01*
G01X5678837Y271010D01*
G01X5658478Y278897D01*
G01X5637017Y282909D01*
G01X5615183Y282909D01*
G01X5593722Y278897D01*
G01X5573363Y271010D01*
G01X5554800Y259517D01*
G01X5538665Y244808D01*
G01X5525507Y227384D01*
G01X5515776Y207840D01*
G01X5509801Y186840D01*
G01X5507786Y165100D01*
G01X5507786Y165100D01*
G01X5489983Y165100D01*
G01X5490199Y172231D01*
G01X5486978Y193405D01*
G01X5479993Y213652D01*
G01X5469472Y232307D01*
G01X5455761Y248761D01*
G01X5439307Y262472D01*
G01X5420652Y272993D01*
G01X5400405Y279978D01*
G01X5379231Y283199D01*
G01X5357823Y282549D01*
G01X5336883Y278051D01*
G01X5317097Y269851D01*
G01X5299113Y258219D01*
G01X5283522Y243535D01*
G01X5270833Y226281D01*
G01X5261462Y207022D01*
G01X5255717Y186389D01*
G01X5253786Y165059D01*
G01X5255732Y143729D01*
G01X5261491Y123101D01*
G01X5225005Y86614D01*
G01X5206633Y86614D01*
G01X5219046Y103391D01*
G01X5228319Y122088D01*
G01X5234161Y142123D01*
G01X5236393Y162874D01*
G01X5234944Y183693D01*
G01X5229859Y203934D01*
G01X5221297Y222967D01*
G01X5209524Y240199D01*
G01X5194906Y255095D01*
G01X5177899Y267190D01*
G01X5159030Y276109D01*
G01X5138889Y281573D01*
G01X5118100Y283414D01*
G01X5097311Y281573D01*
G01X5077170Y276109D01*
G01X5058301Y267190D01*
G01X5041294Y255095D01*
G01X5026676Y240199D01*
G01X5014903Y222967D01*
G01X5006341Y203934D01*
G01X5001256Y183693D01*
G01X4999807Y162874D01*
G01X5002039Y142123D01*
G01X5007881Y122088D01*
G01X5017154Y103391D01*
G01X5029567Y86614D01*
G01X4952633Y86614D01*
G01X4965046Y103391D01*
G01X4974319Y122088D01*
G01X4980161Y142123D01*
G01X4982393Y162874D01*
G01X4980944Y183693D01*
G01X4975859Y203934D01*
G01X4967297Y222967D01*
G01X4955524Y240199D01*
G01X4940906Y255095D01*
G01X4923899Y267190D01*
G01X4905030Y276109D01*
G01X4884889Y281573D01*
G01X4864100Y283414D01*
G01X4843311Y281573D01*
G01X4823170Y276109D01*
G01X4804301Y267190D01*
G01X4787294Y255095D01*
G01X4772676Y240199D01*
G01X4760903Y222967D01*
G01X4752341Y203934D01*
G01X4747256Y183693D01*
G01X4745807Y162874D01*
G01X4748039Y142123D01*
G01X4753881Y122088D01*
G01X4763154Y103391D01*
G01X4775567Y86614D01*
G01X4698633Y86614D01*
G01X4711046Y103391D01*
G01X4720319Y122088D01*
G01X4726161Y142123D01*
G01X4728393Y162874D01*
G01X4726944Y183693D01*
G01X4721859Y203934D01*
G01X4713297Y222967D01*
G01X4701524Y240199D01*
G01X4686906Y255095D01*
G01X4669899Y267190D01*
G01X4651030Y276109D01*
G01X4630889Y281573D01*
G01X4610100Y283414D01*
G01X4589311Y281573D01*
G01X4569170Y276109D01*
G01X4550301Y267190D01*
G01X4533294Y255095D01*
G01X4518676Y240199D01*
G01X4506903Y222967D01*
G01X4498341Y203934D01*
G01X4493256Y183693D01*
G01X4491807Y162874D01*
G01X4494039Y142123D01*
G01X4499881Y122088D01*
G01X4509154Y103391D01*
G01X4521567Y86614D01*
G01X4444633Y86614D01*
G01X4457046Y103391D01*
G01X4466319Y122088D01*
G01X4472161Y142123D01*
G01X4474393Y162874D01*
G01X4472944Y183693D01*
G01X4467859Y203934D01*
G01X4459297Y222967D01*
G01X4447524Y240199D01*
G01X4432906Y255095D01*
G01X4415899Y267190D01*
G01X4397030Y276109D01*
G01X4376889Y281573D01*
G01X4356100Y283414D01*
G01X4335311Y281573D01*
G01X4315170Y276109D01*
G01X4296301Y267190D01*
G01X4279294Y255095D01*
G01X4264676Y240199D01*
G01X4252903Y222967D01*
G01X4244341Y203934D01*
G01X4239256Y183693D01*
G01X4237807Y162874D01*
G01X4240039Y142123D01*
G01X4245881Y122088D01*
G01X4255154Y103391D01*
G01X4267567Y86614D01*
G01X4190633Y86614D01*
G01X4203046Y103391D01*
G01X4212319Y122088D01*
G01X4218161Y142123D01*
G01X4220393Y162874D01*
G01X4218944Y183693D01*
G01X4213859Y203934D01*
G01X4205297Y222967D01*
G01X4193524Y240199D01*
G01X4178906Y255095D01*
G01X4161899Y267190D01*
G01X4143030Y276109D01*
G01X4122889Y281573D01*
G01X4102100Y283414D01*
G01X4081311Y281573D01*
G01X4061170Y276109D01*
G01X4042301Y267190D01*
G01X4025294Y255095D01*
G01X4010676Y240199D01*
G01X3998903Y222967D01*
G01X3990341Y203934D01*
G01X3985256Y183693D01*
G01X3983807Y162874D01*
G01X3986039Y142123D01*
G01X3991881Y122088D01*
G01X4001154Y103391D01*
G01X4013567Y86614D01*
G01X3936633Y86614D01*
G01X3947761Y101336D01*
G01X3956464Y117609D01*
G01X3962531Y135037D01*
G01X3965814Y153197D01*
G01X3966233Y171646D01*
G01X3963778Y189936D01*
G01X3958509Y207622D01*
G01X3950554Y224273D01*
G01X3940106Y239485D01*
G01X3927420Y252887D01*
G01X3912804Y264153D01*
G01X3896614Y273010D01*
G01X3896614Y352243D01*
G01X3914507Y362877D01*
G01X3930095Y376669D01*
G01X3942830Y393133D01*
G01X3952261Y411687D01*
G01X3958056Y431678D01*
G01X3960011Y452400D01*
G01X3959047Y462625D01*
G01X3992856Y462625D01*
G01X3992856Y442176D01*
G01X3996614Y422074D01*
G01X4004001Y403006D01*
G01X4014766Y385620D01*
G01X4028542Y370508D01*
G01X4044861Y358184D01*
G01X4063167Y349069D01*
G01X4082835Y343473D01*
G01X4103197Y341586D01*
G01X4103197Y341586D01*
G01X4123559Y343473D01*
G01X4143228Y349069D01*
G01X4161533Y358184D01*
G01X4177852Y370508D01*
G01X4191629Y385620D01*
G01X4202394Y403006D01*
G01X4209781Y422074D01*
G01X4213539Y442176D01*
G01X4213539Y462625D01*
G01X4213539Y462625D01*
G01X4246856Y462625D01*
G01X4246856Y442176D01*
G01X4250613Y422074D01*
G01X4258000Y403006D01*
G01X4268766Y385620D01*
G01X4282542Y370508D01*
G01X4298861Y358184D01*
G01X4317166Y349069D01*
G01X4336835Y343473D01*
G01X4357197Y341586D01*
G01X4357197Y341586D01*
G01X4377559Y343473D01*
G01X4397228Y349069D01*
G01X4415533Y358184D01*
G01X4431852Y370508D01*
G01X4445628Y385620D01*
G01X4456394Y403006D01*
G01X4463781Y422074D01*
G01X4467538Y442176D01*
G01X4467538Y462625D01*
G01X4467538Y462625D01*
G01X4500856Y462625D01*
G01X4500856Y442176D01*
G01X4504613Y422074D01*
G01X4512000Y403006D01*
G01X4522766Y385620D01*
G01X4536542Y370508D01*
G01X4552861Y358184D01*
G01X4571166Y349069D01*
G01X4590835Y343473D01*
G01X4611197Y341586D01*
G01X4611197Y341586D01*
G01X4631559Y343473D01*
G01X4651228Y349069D01*
G01X4669533Y358184D01*
G01X4685852Y370508D01*
G01X4699628Y385620D01*
G01X4710394Y403006D01*
G01X4717781Y422074D01*
G01X4721538Y442176D01*
G01X4721538Y462625D01*
G01X4754856Y462625D01*
G01X4754856Y442175D01*
G01X4758613Y422074D01*
G01X4766000Y403006D01*
G01X4776766Y385620D01*
G01X4790542Y370507D01*
G01X4806861Y358184D01*
G01X4825166Y349069D01*
G01X4844835Y343473D01*
G01X4865197Y341586D01*
G01X4865197Y341586D01*
G01X4885559Y343473D01*
G01X4905228Y349069D01*
G01X4923533Y358184D01*
G01X4939852Y370507D01*
G01X4953628Y385620D01*
G01X4964394Y403006D01*
G01X4971781Y422074D01*
G01X4975538Y442175D01*
G01X4975538Y462625D01*
G01X4975538Y462625D01*
G01X5008856Y462625D01*
G01X5008856Y442175D01*
G01X5012614Y422074D01*
G01X5020001Y403006D01*
G01X5030766Y385620D01*
G01X5044542Y370507D01*
G01X5060861Y358184D01*
G01X5079167Y349069D01*
G01X5098835Y343473D01*
G01X5119197Y341586D01*
G01X5119197Y341586D01*
G01X5139559Y343473D01*
G01X5159228Y349069D01*
G01X5177533Y358184D01*
G01X5193852Y370507D01*
G01X5207629Y385620D01*
G01X5218394Y403006D01*
G01X5225781Y422074D01*
G01X5229539Y442175D01*
G01X5229539Y462625D01*
G01X5229539Y462625D01*
G01X5262856Y462625D01*
G01X5262856Y442175D01*
G01X5266614Y422074D01*
G01X5274001Y403006D01*
G01X5284766Y385620D01*
G01X5298542Y370507D01*
G01X5314861Y358184D01*
G01X5333167Y349069D01*
G01X5352835Y343473D01*
G01X5373197Y341586D01*
G01X5373197Y341586D01*
G01X5393559Y343473D01*
G01X5413228Y349069D01*
G01X5431533Y358184D01*
G01X5447852Y370507D01*
G01X5461629Y385620D01*
G01X5472394Y403006D01*
G01X5479781Y422074D01*
G01X5483539Y442175D01*
G01X5483539Y462625D01*
G01X5483539Y462625D01*
G01X5516856Y462625D01*
G01X5516856Y442175D01*
G01X5520614Y422074D01*
G01X5528001Y403006D01*
G01X5538766Y385620D01*
G01X5552542Y370507D01*
G01X5568861Y358184D01*
G01X5587167Y349069D01*
G01X5606835Y343473D01*
G01X5627197Y341586D01*
G01X5627197Y341586D01*
G01X5647559Y343473D01*
G01X5667228Y349069D01*
G01X5685533Y358184D01*
G01X5701852Y370507D01*
G01X5715629Y385620D01*
G01X5726394Y403006D01*
G01X5733781Y422074D01*
G01X5737539Y442175D01*
G01X5737539Y462625D01*
G01X5733781Y482726D01*
G01X5726394Y501794D01*
G01X5715629Y519180D01*
G01X5701852Y534292D01*
G01X5685533Y546616D01*
G01X5667228Y555731D01*
G01X5647559Y561327D01*
G01X5627197Y563214D01*
G01X5606835Y561327D01*
G01X5587167Y555731D01*
G01X5568861Y546616D01*
G01X5552542Y534292D01*
G01X5538766Y519180D01*
G01X5528001Y501794D01*
G01X5520614Y482726D01*
G01X5516856Y462625D01*
G01X5483539Y462625D01*
G01X5479781Y482726D01*
G01X5472394Y501794D01*
G01X5461629Y519180D01*
G01X5447852Y534292D01*
G01X5431533Y546616D01*
G01X5413228Y555731D01*
G01X5393559Y561327D01*
G01X5373197Y563214D01*
G01X5352835Y561327D01*
G01X5333167Y555731D01*
G01X5314861Y546616D01*
G01X5298542Y534292D01*
G01X5284766Y519180D01*
G01X5274001Y501794D01*
G01X5266614Y482726D01*
G01X5262856Y462625D01*
G01X5229539Y462625D01*
G01X5225781Y482726D01*
G01X5218394Y501794D01*
G01X5207629Y519180D01*
G01X5193852Y534292D01*
G01X5177533Y546616D01*
G01X5159228Y555731D01*
G01X5139559Y561327D01*
G01X5119197Y563214D01*
G01X5098835Y561327D01*
G01X5079167Y555731D01*
G01X5060861Y546616D01*
G01X5044542Y534292D01*
G01X5030766Y519180D01*
G01X5020001Y501794D01*
G01X5012614Y482726D01*
G01X5008856Y462625D01*
G01X4975538Y462625D01*
G01X4971781Y482726D01*
G01X4964394Y501794D01*
G01X4953628Y519180D01*
G01X4939852Y534292D01*
G01X4923533Y546616D01*
G01X4905228Y555731D01*
G01X4885559Y561327D01*
G01X4865197Y563214D01*
G01X4844835Y561327D01*
G01X4825166Y555731D01*
G01X4806861Y546616D01*
G01X4790542Y534292D01*
G01X4776766Y519180D01*
G01X4766000Y501794D01*
G01X4758613Y482726D01*
G01X4754856Y462625D01*
G01X4721538Y462625D01*
G01X4721538Y462625D01*
G01X4717781Y482726D01*
G01X4710394Y501794D01*
G01X4699628Y519181D01*
G01X4685852Y534293D01*
G01X4669533Y546616D01*
G01X4651228Y555731D01*
G01X4631559Y561327D01*
G01X4611197Y563214D01*
G01X4590835Y561327D01*
G01X4571166Y555731D01*
G01X4552861Y546616D01*
G01X4536542Y534293D01*
G01X4522766Y519181D01*
G01X4512000Y501794D01*
G01X4504613Y482726D01*
G01X4500856Y462625D01*
G01X4467538Y462625D01*
G01X4463781Y482726D01*
G01X4456394Y501794D01*
G01X4445628Y519181D01*
G01X4431852Y534293D01*
G01X4415533Y546616D01*
G01X4397228Y555731D01*
G01X4377559Y561327D01*
G01X4357197Y563214D01*
G01X4336835Y561327D01*
G01X4317166Y555731D01*
G01X4298861Y546616D01*
G01X4282542Y534293D01*
G01X4268766Y519181D01*
G01X4258000Y501794D01*
G01X4250613Y482726D01*
G01X4246856Y462625D01*
G01X4213539Y462625D01*
G01X4209781Y482726D01*
G01X4202394Y501794D01*
G01X4191629Y519181D01*
G01X4177852Y534293D01*
G01X4161533Y546616D01*
G01X4143228Y555731D01*
G01X4123559Y561327D01*
G01X4103197Y563214D01*
G01X4082835Y561327D01*
G01X4063167Y555731D01*
G01X4044861Y546616D01*
G01X4028542Y534293D01*
G01X4014766Y519181D01*
G01X4004001Y501794D01*
G01X3996614Y482726D01*
G01X3992856Y462625D01*
G01X3959047Y462625D01*
G01X3958056Y473122D01*
G01X3952261Y493113D01*
G01X3942830Y511668D01*
G01X3930095Y528131D01*
G01X3914507Y541923D01*
G01X3896614Y552557D01*
G01X3896614Y2710405D01*
G01X4009405Y2823195D01*
G01X4017114Y2833243D01*
G01X4021961Y2844944D01*
G01X4023614Y2857500D01*
G01X4023614Y2917828D01*
G01X4039051Y2904580D01*
G01X4056649Y2894377D01*
G01X4075816Y2887562D01*
G01X4095905Y2884366D01*
G01X4116240Y2884896D01*
G01X4136136Y2889134D01*
G01X4124751Y2878977D01*
G01X4115990Y2866486D01*
G01X4110315Y2852324D01*
G01X4108027Y2837239D01*
G01X3941892Y2671105D01*
G01X3934183Y2661057D01*
G01X3929336Y2649357D01*
G01X3927683Y2636800D01*
G01X3927683Y878610D01*
G01X3918585Y866239D01*
G01X3912576Y852107D01*
G01X3909979Y836971D01*
G01X3910933Y821644D01*
G01X3915387Y806947D01*
G01X3923103Y793669D01*
G01X3933665Y782522D01*
G01X3946508Y774103D01*
G01X3960944Y768864D01*
G01X3976197Y767086D01*
G01X3991450Y768864D01*
G01X4005886Y774103D01*
G01X4018729Y782522D01*
G01X4029292Y793669D01*
G01X4037007Y806947D01*
G01X4041461Y821644D01*
G01X4042415Y836971D01*
G01X4039818Y852107D01*
G01X4033809Y866239D01*
G01X4024711Y878610D01*
G01X4024711Y1854450D01*
G01X4191319Y1854450D01*
G01X4191733Y1839099D01*
G01X4195666Y1824255D01*
G01X4202909Y1810713D01*
G01X4213072Y1799200D01*
G01X4225611Y1790334D01*
G01X4239853Y1784590D01*
G01X4255034Y1782276D01*
G01X4699097Y1338212D01*
G01X4701412Y1323031D01*
G01X4707156Y1308789D01*
G01X4716022Y1296250D01*
G01X4727535Y1286087D01*
G01X4741076Y1278845D01*
G01X4755921Y1274911D01*
G01X4771272Y1274498D01*
G01X4786306Y1277626D01*
G01X4800218Y1284129D01*
G01X4812261Y1293657D01*
G01X4821790Y1305700D01*
G01X4828293Y1319612D01*
G01X4831421Y1334647D01*
G01X4831008Y1349998D01*
G01X4827074Y1364842D01*
G01X4819831Y1378384D01*
G01X4809668Y1389897D01*
G01X4797130Y1398763D01*
G01X4782888Y1404507D01*
G01X4767706Y1406821D01*
G01X4323643Y1850885D01*
G01X4323643Y1850885D01*
G01X4321329Y1866066D01*
G01X4315584Y1880308D01*
G01X4306718Y1892847D01*
G01X4295206Y1903010D01*
G01X4281664Y1910252D01*
G01X4266820Y1914186D01*
G01X4251469Y1914599D01*
G01X4236434Y1911471D01*
G01X4222522Y1904968D01*
G01X4210479Y1895440D01*
G01X4200951Y1883397D01*
G01X4194448Y1869485D01*
G01X4191319Y1854450D01*
G01X4024711Y1854450D01*
G01X4024711Y2616705D01*
G01X4176636Y2768630D01*
G01X4192460Y2771124D01*
G01X4207224Y2777339D01*
G01X4220067Y2786914D01*
G01X4230239Y2799289D01*
G01X4771233Y2258295D01*
G01X4773823Y2242139D01*
G01X4780289Y2227109D01*
G01X4790239Y2214119D01*
G01X4803066Y2203962D01*
G01X4817990Y2197254D01*
G01X4834102Y2194404D01*
G01X4850421Y2195587D01*
G01X4865954Y2200729D01*
G01X4865954Y1783704D01*
G01X4851762Y1776374D01*
G01X4839735Y1765863D01*
G01X4830570Y1752781D01*
G01X4824799Y1737888D01*
G01X4822756Y1722046D01*
G01X4824561Y1706175D01*
G01X4830108Y1691196D01*
G01X4839076Y1677979D01*
G01X4850944Y1667289D01*
G01X4865025Y1659747D01*
G01X4880500Y1655790D01*
G01X4896472Y1655649D01*
G01X4912015Y1659331D01*
G01X4926226Y1666623D01*
G01X4938282Y1677101D01*
G01X4947482Y1690158D01*
G01X4953294Y1705037D01*
G01X4955379Y1720873D01*
G01X4961043Y1733368D01*
G01X4962982Y1746949D01*
G01X4962982Y2655413D01*
G01X4973896Y2655413D01*
G01X4977032Y2640380D01*
G01X4983542Y2626472D01*
G01X4993077Y2614434D01*
G01X5005125Y2604911D01*
G01X5019040Y2598415D01*
G01X5034076Y2595295D01*
G01X5049427Y2595716D01*
G01X5064269Y2599657D01*
G01X5077807Y2606906D01*
G01X5089315Y2617075D01*
G01X5098175Y2629619D01*
G01X5103912Y2643863D01*
G01X5106218Y2659046D01*
G01X5337106Y2890168D01*
G01X5357407Y2885257D01*
G01X5378269Y2884242D01*
G01X5398950Y2887160D01*
G01X5418717Y2893907D01*
G01X5436866Y2904243D01*
G01X5452754Y2917801D01*
G01X5465816Y2934099D01*
G01X5475587Y2952559D01*
G01X5481721Y2972525D01*
G01X5483999Y2993286D01*
G01X5483053Y3005165D01*
G01X5516856Y3005165D01*
G01X5516856Y2984715D01*
G01X5520614Y2964614D01*
G01X5528001Y2945546D01*
G01X5538766Y2928160D01*
G01X5552542Y2913047D01*
G01X5568861Y2900724D01*
G01X5587167Y2891609D01*
G01X5606835Y2886013D01*
G01X5627197Y2884126D01*
G01X5627197Y2884126D01*
G01X5647559Y2886013D01*
G01X5667228Y2891609D01*
G01X5685533Y2900724D01*
G01X5701852Y2913047D01*
G01X5715629Y2928160D01*
G01X5726394Y2945546D01*
G01X5733781Y2964614D01*
G01X5737539Y2984715D01*
G01X5737539Y3005165D01*
G01X5733781Y3025266D01*
G01X5726394Y3044334D01*
G01X5715629Y3061720D01*
G01X5701852Y3076832D01*
G01X5685533Y3089156D01*
G01X5667228Y3098271D01*
G01X5647559Y3103867D01*
G01X5627197Y3105754D01*
G01X5606835Y3103867D01*
G01X5587167Y3098271D01*
G01X5568861Y3089156D01*
G01X5552542Y3076832D01*
G01X5538766Y3061720D01*
G01X5528001Y3044334D01*
G01X5520614Y3025266D01*
G01X5516856Y3005165D01*
G01X5483053Y3005165D01*
G01X5482341Y3014107D01*
G01X5476806Y3034247D01*
G01X5467590Y3052990D01*
G01X5455021Y3069671D01*
G01X5439544Y3083697D01*
G01X5421711Y3094570D01*
G01X5421711Y3169190D01*
G01X5440262Y3179894D01*
G01X5456580Y3193767D01*
G01X5470129Y3210354D01*
G01X5480465Y3229112D01*
G01X5487251Y3249426D01*
G01X5490263Y3270631D01*
G01X5490023Y3276600D01*
G01X5507786Y3276600D01*
G01X5509801Y3254860D01*
G01X5515776Y3233860D01*
G01X5525507Y3214316D01*
G01X5538665Y3196892D01*
G01X5554800Y3182183D01*
G01X5573363Y3170690D01*
G01X5593722Y3162803D01*
G01X5615183Y3158791D01*
G01X5637017Y3158791D01*
G01X5658478Y3162803D01*
G01X5678837Y3170690D01*
G01X5697400Y3182183D01*
G01X5713535Y3196892D01*
G01X5726693Y3214316D01*
G01X5736424Y3233860D01*
G01X5742399Y3254860D01*
G01X5744414Y3276600D01*
G01X5744414Y3276600D01*
G01X5742399Y3298340D01*
G01X5736424Y3319340D01*
G01X5726693Y3338884D01*
G01X5713535Y3356308D01*
G01X5697400Y3371017D01*
G01X5678837Y3382510D01*
G01X5658478Y3390397D01*
G01X5637017Y3394409D01*
G01X5615183Y3394409D01*
G01X5593722Y3390397D01*
G01X5573363Y3382510D01*
G01X5554800Y3371017D01*
G01X5538665Y3356308D01*
G01X5525507Y3338884D01*
G01X5515776Y3319340D01*
G01X5509801Y3298340D01*
G01X5507786Y3276600D01*
G01X5490023Y3276600D01*
G01X5489403Y3292031D01*
G01X5484699Y3312926D01*
G01X5476306Y3332630D01*
G01X5464497Y3350498D01*
G01X5449661Y3365945D01*
G01X5432283Y3378463D01*
G01X5412933Y3387644D01*
G01X5392245Y3393186D01*
G01X5370897Y3394908D01*
G01X5349588Y3392753D01*
G01X5329017Y3386791D01*
G01X5309858Y3377219D01*
G01X5292738Y3364349D01*
G01X5278219Y3348604D01*
G01X5266776Y3330499D01*
G01X5258785Y3310628D01*
G01X5254507Y3289642D01*
G01X5254083Y3268229D01*
G01X5257525Y3247090D01*
G01X5264723Y3226918D01*
G01X5275439Y3208374D01*
G01X5289322Y3192066D01*
G01X5305918Y3178528D01*
G01X5324683Y3168203D01*
G01X5324683Y3094570D01*
G01X5307514Y3084189D01*
G01X5292498Y3070883D01*
G01X5280128Y3055088D01*
G01X5270808Y3037321D01*
G01X5264844Y3018164D01*
G01X5262433Y2998246D01*
G01X5263652Y2978220D01*
G01X5268462Y2958742D01*
G01X5037574Y2727620D01*
G01X5037574Y2727620D01*
G01X5022394Y2725298D01*
G01X5008155Y2719547D01*
G01X4995621Y2710674D01*
G01X4985464Y2699156D01*
G01X4978228Y2685611D01*
G01X4974302Y2670765D01*
G01X4973896Y2655413D01*
G01X4962982Y2655413D01*
G01X4962982Y2691669D01*
G01X4961329Y2704225D01*
G01X4956483Y2715926D01*
G01X4948773Y2725973D01*
G01X4715951Y2958795D01*
G01X4720750Y2978269D01*
G01X4721960Y2998289D01*
G01X4721125Y3005165D01*
G01X4754856Y3005165D01*
G01X4754856Y2984715D01*
G01X4758613Y2964614D01*
G01X4766000Y2945546D01*
G01X4776766Y2928160D01*
G01X4790542Y2913047D01*
G01X4806861Y2900724D01*
G01X4825166Y2891609D01*
G01X4844835Y2886013D01*
G01X4865197Y2884126D01*
G01X4865197Y2884126D01*
G01X4885559Y2886013D01*
G01X4905228Y2891609D01*
G01X4923533Y2900724D01*
G01X4939852Y2913047D01*
G01X4953628Y2928160D01*
G01X4964394Y2945546D01*
G01X4971781Y2964614D01*
G01X4975538Y2984715D01*
G01X4975538Y3005165D01*
G01X5008856Y3005165D01*
G01X5008856Y2984715D01*
G01X5012614Y2964614D01*
G01X5020001Y2945546D01*
G01X5030766Y2928160D01*
G01X5044542Y2913047D01*
G01X5060861Y2900724D01*
G01X5079167Y2891609D01*
G01X5098835Y2886013D01*
G01X5119197Y2884126D01*
G01X5119197Y2884126D01*
G01X5139559Y2886013D01*
G01X5159228Y2891609D01*
G01X5177533Y2900724D01*
G01X5193852Y2913047D01*
G01X5207629Y2928160D01*
G01X5218394Y2945546D01*
G01X5225781Y2964614D01*
G01X5229539Y2984715D01*
G01X5229539Y3005165D01*
G01X5225781Y3025266D01*
G01X5218394Y3044334D01*
G01X5207629Y3061720D01*
G01X5193852Y3076832D01*
G01X5177533Y3089156D01*
G01X5159228Y3098271D01*
G01X5139559Y3103867D01*
G01X5119197Y3105754D01*
G01X5098835Y3103867D01*
G01X5079167Y3098271D01*
G01X5060861Y3089156D01*
G01X5044542Y3076832D01*
G01X5030766Y3061720D01*
G01X5020001Y3044334D01*
G01X5012614Y3025266D01*
G01X5008856Y3005165D01*
G01X4975538Y3005165D01*
G01X4971781Y3025266D01*
G01X4964394Y3044334D01*
G01X4953628Y3061720D01*
G01X4939852Y3076832D01*
G01X4923533Y3089156D01*
G01X4905228Y3098271D01*
G01X4885559Y3103867D01*
G01X4865197Y3105754D01*
G01X4844835Y3103867D01*
G01X4825166Y3098271D01*
G01X4806861Y3089156D01*
G01X4790542Y3076832D01*
G01X4776766Y3061720D01*
G01X4766000Y3044334D01*
G01X4758613Y3025266D01*
G01X4754856Y3005165D01*
G01X4721125Y3005165D01*
G01X4719543Y3018199D01*
G01X4713576Y3037347D01*
G01X4704255Y3055105D01*
G01X4691886Y3070894D01*
G01X4676874Y3084194D01*
G01X4659711Y3094570D01*
G01X4659711Y3169190D01*
G01X4678262Y3179894D01*
G01X4694579Y3193766D01*
G01X4708129Y3210354D01*
G01X4718465Y3229112D01*
G01X4725251Y3249426D01*
G01X4728263Y3270630D01*
G01X4728023Y3276600D01*
G01X4745786Y3276600D01*
G01X4747801Y3254860D01*
G01X4753776Y3233860D01*
G01X4763507Y3214316D01*
G01X4776665Y3196892D01*
G01X4792800Y3182183D01*
G01X4811363Y3170690D01*
G01X4831722Y3162803D01*
G01X4853183Y3158791D01*
G01X4875017Y3158791D01*
G01X4896478Y3162803D01*
G01X4916837Y3170690D01*
G01X4935400Y3182183D01*
G01X4951535Y3196892D01*
G01X4964693Y3214316D01*
G01X4974424Y3233860D01*
G01X4980399Y3254860D01*
G01X4982414Y3276600D01*
G01X4982414Y3276600D01*
G01X4999786Y3276600D01*
G01X5001801Y3254860D01*
G01X5007776Y3233860D01*
G01X5017507Y3214316D01*
G01X5030665Y3196892D01*
G01X5046800Y3182183D01*
G01X5065363Y3170690D01*
G01X5085722Y3162803D01*
G01X5107183Y3158791D01*
G01X5129017Y3158791D01*
G01X5150478Y3162803D01*
G01X5170837Y3170690D01*
G01X5189400Y3182183D01*
G01X5205535Y3196892D01*
G01X5218693Y3214316D01*
G01X5228424Y3233860D01*
G01X5234399Y3254860D01*
G01X5236414Y3276600D01*
G01X5236414Y3276600D01*
G01X5234399Y3298340D01*
G01X5228424Y3319340D01*
G01X5218693Y3338884D01*
G01X5205535Y3356308D01*
G01X5189400Y3371017D01*
G01X5170837Y3382510D01*
G01X5150478Y3390397D01*
G01X5129017Y3394409D01*
G01X5107183Y3394409D01*
G01X5085722Y3390397D01*
G01X5065363Y3382510D01*
G01X5046800Y3371017D01*
G01X5030665Y3356308D01*
G01X5017507Y3338884D01*
G01X5007776Y3319340D01*
G01X5001801Y3298340D01*
G01X4999786Y3276600D01*
G01X4982414Y3276600D01*
G01X4980399Y3298340D01*
G01X4974424Y3319340D01*
G01X4964693Y3338884D01*
G01X4951535Y3356308D01*
G01X4935400Y3371017D01*
G01X4916837Y3382510D01*
G01X4896478Y3390397D01*
G01X4875017Y3394409D01*
G01X4853183Y3394409D01*
G01X4831722Y3390397D01*
G01X4811363Y3382510D01*
G01X4792800Y3371017D01*
G01X4776665Y3356308D01*
G01X4763507Y3338884D01*
G01X4753776Y3319340D01*
G01X4747801Y3298340D01*
G01X4745786Y3276600D01*
G01X4728023Y3276600D01*
G01X4727403Y3292031D01*
G01X4722700Y3312925D01*
G01X4714306Y3332630D01*
G01X4702498Y3350498D01*
G01X4687661Y3365944D01*
G01X4670284Y3378463D01*
G01X4650934Y3387644D01*
G01X4630245Y3393186D01*
G01X4608897Y3394908D01*
G01X4587588Y3392753D01*
G01X4567017Y3386791D01*
G01X4547858Y3377219D01*
G01X4530738Y3364349D01*
G01X4516219Y3348604D01*
G01X4504776Y3330499D01*
G01X4496785Y3310628D01*
G01X4492507Y3289643D01*
G01X4492083Y3268229D01*
G01X4495525Y3247090D01*
G01X4502723Y3226918D01*
G01X4513439Y3208374D01*
G01X4527322Y3192066D01*
G01X4543918Y3178528D01*
G01X4562683Y3168203D01*
G01X4562683Y3094570D01*
G01X4544847Y3083695D01*
G01X4529369Y3069666D01*
G01X4516799Y3052981D01*
G01X4507584Y3034233D01*
G01X4502050Y3014090D01*
G01X4500396Y2993265D01*
G01X4502679Y2972501D01*
G01X4508818Y2952533D01*
G01X4518596Y2934073D01*
G01X4531665Y2917776D01*
G01X4547559Y2904221D01*
G01X4565716Y2893889D01*
G01X4585489Y2887149D01*
G01X4606175Y2884240D01*
G01X4627040Y2885264D01*
G01X4647341Y2890186D01*
G01X4865954Y2671574D01*
G01X4865954Y2320533D01*
G01X4853224Y2325055D01*
G01X4839842Y2326904D01*
G01X4207951Y2958795D01*
G01X4212750Y2978269D01*
G01X4213961Y2998289D01*
G01X4213126Y3005165D01*
G01X4246856Y3005165D01*
G01X4246856Y2984715D01*
G01X4250613Y2964614D01*
G01X4258000Y2945546D01*
G01X4268766Y2928160D01*
G01X4282542Y2913047D01*
G01X4298861Y2900724D01*
G01X4317166Y2891609D01*
G01X4336835Y2886013D01*
G01X4357197Y2884126D01*
G01X4357197Y2884126D01*
G01X4377559Y2886013D01*
G01X4397228Y2891609D01*
G01X4415533Y2900724D01*
G01X4431852Y2913047D01*
G01X4445628Y2928160D01*
G01X4456394Y2945546D01*
G01X4463781Y2964614D01*
G01X4467538Y2984715D01*
G01X4467538Y3005165D01*
G01X4463781Y3025266D01*
G01X4456394Y3044334D01*
G01X4445628Y3061720D01*
G01X4431852Y3076832D01*
G01X4415533Y3089156D01*
G01X4397228Y3098271D01*
G01X4377559Y3103867D01*
G01X4357197Y3105754D01*
G01X4336835Y3103867D01*
G01X4317166Y3098271D01*
G01X4298861Y3089156D01*
G01X4282542Y3076832D01*
G01X4268766Y3061720D01*
G01X4258000Y3044334D01*
G01X4250613Y3025266D01*
G01X4246856Y3005165D01*
G01X4213126Y3005165D01*
G01X4211543Y3018199D01*
G01X4205576Y3037347D01*
G01X4196256Y3055105D01*
G01X4183887Y3070894D01*
G01X4168875Y3084194D01*
G01X4151711Y3094570D01*
G01X4151711Y3169190D01*
G01X4170206Y3179854D01*
G01X4186483Y3193668D01*
G01X4200013Y3210182D01*
G01X4210354Y3228859D01*
G01X4217171Y3249090D01*
G01X4220242Y3270217D01*
G01X4220009Y3276600D01*
G01X4237786Y3276600D01*
G01X4239801Y3254860D01*
G01X4245776Y3233860D01*
G01X4255507Y3214316D01*
G01X4268665Y3196892D01*
G01X4284800Y3182183D01*
G01X4303363Y3170690D01*
G01X4323722Y3162803D01*
G01X4345183Y3158791D01*
G01X4367017Y3158791D01*
G01X4388478Y3162803D01*
G01X4408837Y3170690D01*
G01X4427400Y3182183D01*
G01X4443535Y3196892D01*
G01X4456693Y3214316D01*
G01X4466424Y3233860D01*
G01X4472399Y3254860D01*
G01X4474414Y3276600D01*
G01X4474414Y3276600D01*
G01X4472399Y3298340D01*
G01X4466424Y3319340D01*
G01X4456693Y3338884D01*
G01X4443535Y3356308D01*
G01X4427400Y3371017D01*
G01X4408837Y3382510D01*
G01X4388478Y3390397D01*
G01X4367017Y3394409D01*
G01X4345183Y3394409D01*
G01X4323722Y3390397D01*
G01X4303363Y3382510D01*
G01X4284800Y3371017D01*
G01X4268665Y3356308D01*
G01X4255507Y3338884D01*
G01X4245776Y3319340D01*
G01X4239801Y3298340D01*
G01X4237786Y3276600D01*
G01X4220009Y3276600D01*
G01X4219465Y3291552D01*
G01X4214868Y3312400D01*
G01X4206598Y3332082D01*
G01X4194927Y3349958D01*
G01X4180233Y3365445D01*
G01X4162995Y3378040D01*
G01X4143774Y3387332D01*
G01X4123196Y3393018D01*
G01X4101932Y3394914D01*
G01X4080673Y3392957D01*
G01X4060111Y3387213D01*
G01X4040917Y3377866D01*
G01X4023715Y3365223D01*
G01X4009065Y3349694D01*
G01X3780805Y3577605D01*
G01X3770811Y3585283D01*
G01X3759177Y3590128D01*
G01X3773831Y3606040D01*
G01X3785543Y3624227D01*
G01X3793966Y3644151D01*
G01X3798852Y3665223D01*
G01X3799843Y3683000D01*
G01X4048486Y3683000D01*
G01X4050397Y3661153D01*
G01X4056073Y3639969D01*
G01X4065342Y3620093D01*
G01X4077921Y3602128D01*
G01X4093428Y3586621D01*
G01X4111393Y3574042D01*
G01X4131269Y3564774D01*
G01X4152452Y3559098D01*
G01X4174300Y3557186D01*
G01X4196147Y3559098D01*
G01X4217330Y3564774D01*
G01X4237206Y3574042D01*
G01X4255171Y3586621D01*
G01X4270678Y3602128D01*
G01X4283257Y3620093D01*
G01X4292526Y3639969D01*
G01X4298202Y3661153D01*
G01X4300113Y3683000D01*
G01X4300113Y3683000D01*
G01X4298202Y3704847D01*
G01X4294061Y3720300D01*
G01X4541876Y3720300D01*
G01X4541876Y3620300D01*
G01X4543862Y3597155D01*
G01X4549765Y3574686D01*
G01X4559410Y3553552D01*
G01X4572515Y3534371D01*
G01X4588698Y3517704D01*
G01X4607484Y3504039D01*
G01X4628324Y3493775D01*
G01X4650609Y3487214D01*
G01X4673686Y3484545D01*
G01X4696880Y3485849D01*
G01X4719513Y3491086D01*
G01X4740922Y3500104D01*
G01X4760480Y3512638D01*
G01X4777617Y3528323D01*
G01X4791830Y3546698D01*
G01X4802704Y3567227D01*
G01X4809920Y3589308D01*
G01X4826121Y3575540D01*
G01X4844566Y3564966D01*
G01X4864633Y3557941D01*
G01X4885646Y3554704D01*
G01X4906897Y3555362D01*
G01X4927670Y3559894D01*
G01X4947264Y3568148D01*
G01X4965019Y3579844D01*
G01X4980336Y3594589D01*
G01X4992700Y3611885D01*
G01X5004300Y3595483D01*
G01X5018559Y3581332D01*
G01X5035050Y3569858D01*
G01X5053275Y3561406D01*
G01X5072686Y3556231D01*
G01X5092700Y3554489D01*
G01X5112714Y3556231D01*
G01X5132125Y3561406D01*
G01X5150350Y3569858D01*
G01X5166841Y3581332D01*
G01X5181100Y3595483D01*
G01X5192700Y3611885D01*
G01X5205064Y3594589D01*
G01X5220381Y3579844D01*
G01X5238136Y3568148D01*
G01X5257730Y3559894D01*
G01X5278503Y3555362D01*
G01X5299754Y3554704D01*
G01X5320767Y3557941D01*
G01X5340834Y3564966D01*
G01X5359279Y3575540D01*
G01X5375480Y3589308D01*
G01X5382696Y3567227D01*
G01X5393570Y3546698D01*
G01X5407783Y3528323D01*
G01X5424920Y3512638D01*
G01X5444478Y3500104D01*
G01X5465887Y3491086D01*
G01X5488520Y3485849D01*
G01X5511714Y3484545D01*
G01X5534791Y3487214D01*
G01X5557076Y3493775D01*
G01X5577916Y3504039D01*
G01X5596702Y3517704D01*
G01X5612885Y3534371D01*
G01X5625990Y3553552D01*
G01X5635635Y3574686D01*
G01X5641538Y3597155D01*
G01X5643524Y3620300D01*
G01X5643524Y3670300D01*
G01X5834386Y3670300D01*
G01X5836350Y3641594D01*
G01X5842204Y3613423D01*
G01X5851839Y3586312D01*
G01X5865077Y3560764D01*
G01X5881669Y3537258D01*
G01X5901308Y3516230D01*
G01X5923628Y3498071D01*
G01X5948212Y3483121D01*
G01X5974603Y3471658D01*
G01X6002309Y3463895D01*
G01X6030814Y3459978D01*
G01X6059586Y3459978D01*
G01X6088091Y3463895D01*
G01X6115797Y3471658D01*
G01X6142188Y3483121D01*
G01X6166772Y3498071D01*
G01X6189092Y3516230D01*
G01X6208731Y3537258D01*
G01X6225323Y3560764D01*
G01X6238561Y3586312D01*
G01X6248196Y3613423D01*
G01X6254050Y3641594D01*
G01X6256014Y3670300D01*
G01X6254050Y3699006D01*
G01X6248196Y3727177D01*
G01X6238561Y3754288D01*
G01X6225323Y3779836D01*
G01X6208731Y3803342D01*
G01X6189092Y3824370D01*
G01X6166772Y3842529D01*
G01X6142188Y3857479D01*
G01X6115797Y3868942D01*
G01X6088091Y3876705D01*
G01X6059586Y3880622D01*
G01X6030814Y3880622D01*
G01X6002309Y3876705D01*
G01X5974603Y3868942D01*
G01X5948212Y3857479D01*
G01X5923628Y3842529D01*
G01X5901308Y3824370D01*
G01X5881669Y3803342D01*
G01X5865077Y3779836D01*
G01X5851839Y3754288D01*
G01X5842204Y3727177D01*
G01X5836350Y3699006D01*
G01X5834386Y3670300D01*
G01X5834386Y3670300D01*
G01X5643524Y3670300D01*
G01X5643524Y3720300D01*
G01X5641538Y3743445D01*
G01X5635635Y3765914D01*
G01X5625990Y3787048D01*
G01X5612885Y3806229D01*
G01X5596702Y3822896D01*
G01X5577916Y3836561D01*
G01X5557076Y3846825D01*
G01X5534791Y3853386D01*
G01X5511714Y3856055D01*
G01X5488520Y3854751D01*
G01X5465887Y3849514D01*
G01X5444478Y3840496D01*
G01X5424920Y3827962D01*
G01X5407783Y3812277D01*
G01X5393570Y3793902D01*
G01X5382696Y3773373D01*
G01X5375480Y3751292D01*
G01X5359279Y3765060D01*
G01X5340834Y3775634D01*
G01X5320767Y3782659D01*
G01X5299754Y3785896D01*
G01X5278503Y3785238D01*
G01X5257730Y3780706D01*
G01X5238136Y3772452D01*
G01X5220381Y3760756D01*
G01X5205064Y3746011D01*
G01X5192700Y3728715D01*
G01X5181100Y3745117D01*
G01X5166841Y3759268D01*
G01X5150350Y3770742D01*
G01X5132125Y3779194D01*
G01X5112714Y3784369D01*
G01X5092700Y3786111D01*
G01X5072686Y3784369D01*
G01X5053275Y3779194D01*
G01X5035050Y3770742D01*
G01X5018559Y3759268D01*
G01X5004300Y3745117D01*
G01X4992700Y3728715D01*
G01X4980336Y3746011D01*
G01X4965019Y3760756D01*
G01X4947264Y3772452D01*
G01X4927670Y3780706D01*
G01X4906897Y3785238D01*
G01X4885646Y3785896D01*
G01X4864633Y3782659D01*
G01X4844566Y3775634D01*
G01X4826121Y3765060D01*
G01X4809920Y3751292D01*
G01X4802704Y3773373D01*
G01X4791830Y3793902D01*
G01X4777617Y3812277D01*
G01X4760480Y3827962D01*
G01X4740922Y3840496D01*
G01X4719513Y3849514D01*
G01X4696880Y3854751D01*
G01X4673686Y3856055D01*
G01X4650609Y3853386D01*
G01X4628324Y3846825D01*
G01X4607484Y3836561D01*
G01X4588698Y3822896D01*
G01X4572515Y3806229D01*
G01X4559410Y3787048D01*
G01X4549765Y3765914D01*
G01X4543862Y3743445D01*
G01X4541876Y3720300D01*
G01X4541876Y3720300D01*
G01X4294061Y3720300D01*
G01X4292526Y3726031D01*
G01X4283257Y3745907D01*
G01X4270678Y3763872D01*
G01X4255171Y3779379D01*
G01X4237206Y3791958D01*
G01X4217330Y3801226D01*
G01X4196147Y3806902D01*
G01X4174300Y3808814D01*
G01X4152452Y3806902D01*
G01X4131269Y3801226D01*
G01X4111393Y3791958D01*
G01X4093428Y3779379D01*
G01X4077921Y3763872D01*
G01X4065342Y3745907D01*
G01X4056073Y3726031D01*
G01X4050397Y3704847D01*
G01X4048486Y3683000D01*
G01X3799843Y3683000D01*
G01X3800056Y3686821D01*
G01X3797543Y3708306D01*
G01X3791387Y3729043D01*
G01X3781769Y3748419D01*
G01X3768975Y3765861D01*
G01X3753381Y3780854D01*
G01X3735451Y3792954D01*
G01X3715712Y3801803D01*
G01X3694750Y3807141D01*
G01X3673183Y3808809D01*
G01X3651648Y3806758D01*
G01X3630784Y3801048D01*
G01X3611206Y3791849D01*
G01X3593493Y3779433D01*
G01X3578169Y3764165D01*
G01X3565686Y3746499D01*
G01X3556415Y3726955D01*
G01X3550628Y3706112D01*
G01X3540887Y3713023D01*
G01X3529753Y3717344D01*
G01X3517900Y3718814D01*
G01X3304308Y3718814D01*
G01X3296156Y3739415D01*
G01X3284516Y3758267D01*
G01X3269750Y3774785D01*
G01X3252315Y3788456D01*
G01X3232752Y3798858D01*
G01X3211668Y3805666D01*
G01X3189717Y3808670D01*
G01X3167579Y3807777D01*
G01X3145941Y3803014D01*
G01X3125474Y3794530D01*
G01X3106813Y3782587D01*
G01X3090536Y3767556D01*
G01X3077148Y3749902D01*
G01X3067064Y3730174D01*
G01X3060598Y3708983D01*
G01X3057949Y3686986D01*
G01X3059200Y3664865D01*
G01X3064311Y3643307D01*
G01X3073125Y3622980D01*
G01X3085368Y3604514D01*
G01X2782032Y3604514D01*
G01X2794053Y3622573D01*
G01X2802793Y3642429D01*
G01X2807993Y3663492D01*
G01X2809496Y3685134D01*
G01X2807259Y3706713D01*
G01X2801349Y3727587D01*
G01X2791940Y3747135D01*
G01X2779313Y3764776D01*
G01X2763843Y3779986D01*
G01X2745990Y3792312D01*
G01X2726285Y3801388D01*
G01X2705314Y3806943D01*
G01X2683701Y3808814D01*
G01X2662087Y3806943D01*
G01X2641116Y3801388D01*
G01X2621411Y3792312D01*
G01X2603558Y3779986D01*
G01X2588088Y3764776D01*
G01X2575461Y3747135D01*
G01X2566052Y3727587D01*
G01X2560142Y3706713D01*
G01X2557905Y3685134D01*
G01X2559408Y3663492D01*
G01X2564608Y3642429D01*
G01X2573348Y3622573D01*
G01X2585369Y3604514D01*
G01X2340195Y3604514D01*
G01X2309488Y3635221D01*
G01X2315937Y3655798D01*
G01X2318778Y3677174D01*
G01X2317927Y3698722D01*
G01X2313409Y3719807D01*
G01X2305356Y3739811D01*
G01X2294006Y3758147D01*
G01X2279691Y3774274D01*
G01X2262833Y3787721D01*
G01X2243925Y3798091D01*
G01X2223525Y3805079D01*
G01X2202231Y3808482D01*
G01X2180669Y3808198D01*
G01X2159471Y3804236D01*
G01X2139262Y3796713D01*
G01X2120635Y3785849D01*
G01X2104136Y3771964D01*
G01X2090250Y3755465D01*
G01X2079386Y3736837D01*
G01X2071863Y3716628D01*
G01X2067901Y3695431D01*
G01X2067617Y3673868D01*
G01X2071020Y3652574D01*
G01X2078009Y3632174D01*
G01X2088379Y3613267D01*
G01X2101825Y3596408D01*
G01X2117953Y3582094D01*
G01X2136288Y3570743D01*
G01X2156292Y3562691D01*
G01X2177378Y3558172D01*
G01X2198925Y3557321D01*
G01X2220302Y3560162D01*
G01X2240879Y3566612D01*
G01X2285795Y3521695D01*
G01X2295843Y3513986D01*
G01X2307543Y3509139D01*
G01X2320100Y3507486D01*
G01X3548605Y3507486D01*
G01X3737491Y3318599D01*
G01X3732068Y3299723D01*
G01X3729841Y3280210D01*
G01X3730873Y3260598D01*
G01X3735135Y3241426D01*
G01X3742510Y3223224D01*
G01X3752795Y3206492D01*
G01X3765706Y3191692D01*
G01X3780886Y3179232D01*
G01X3797920Y3169455D01*
G01X3816335Y3162630D01*
G01X3835626Y3158945D01*
G01X3855261Y3158503D01*
G01X3874698Y3161315D01*
G01X3893403Y3167303D01*
G01X3910859Y3176303D01*
G01X3926586Y3188067D01*
G01X3926586Y3074254D01*
G01X3911109Y3086846D01*
G01X3893624Y3096458D01*
G01X3874699Y3102780D01*
G01X3854947Y3105605D01*
G01X3835009Y3104842D01*
G01X3815531Y3100516D01*
G01X3797144Y3092767D01*
G01X3780445Y3081847D01*
G01X3765974Y3068109D01*
G01X3754202Y3051999D01*
G01X3745510Y3034039D01*
G01X3740179Y3014812D01*
G01X3738383Y2994940D01*
G01X3740179Y2975068D01*
G01X3745510Y2955841D01*
G01X3754202Y2937881D01*
G01X3765974Y2921771D01*
G01X3780445Y2908033D01*
G01X3797144Y2897113D01*
G01X3815531Y2889364D01*
G01X3835009Y2885038D01*
G01X3854947Y2884275D01*
G01X3874699Y2887100D01*
G01X3893624Y2893421D01*
G01X3911109Y2903034D01*
G01X3926586Y2915626D01*
G01X3926586Y2877595D01*
G01X3813795Y2764805D01*
G01X3806086Y2754757D01*
G01X3801239Y2743056D01*
G01X3799586Y2730500D01*
G01X3799586Y1016931D01*
G01X3780758Y1026600D01*
G01X3760508Y1032759D01*
G01X3739485Y1035212D01*
G01X3718361Y1033880D01*
G01X3697813Y1028805D01*
G01X3678497Y1020151D01*
G01X3661033Y1008193D01*
G01X3645979Y993315D01*
G01X3633817Y975992D01*
G01X3624935Y956780D01*
G01X3619620Y936293D01*
G01X3618039Y915186D01*
G01X3620245Y894135D01*
G01X3626166Y873815D01*
G01X3635612Y854874D01*
G01X3648283Y837920D01*
G01X3648283Y777010D01*
G01X3639185Y764639D01*
G01X3633176Y750507D01*
G01X3630579Y735371D01*
G01X3631533Y720044D01*
G01X3635987Y705347D01*
G01X3643703Y692069D01*
G01X3654265Y680922D01*
G01X3667108Y672503D01*
G01X3681544Y667264D01*
G01X3696797Y665486D01*
G01X3712050Y667264D01*
G01X3726486Y672503D01*
G01X3739329Y680922D01*
G01X3749892Y692069D01*
G01X3757607Y705347D01*
G01X3762061Y720044D01*
G01X3763015Y735371D01*
G01X3760418Y750507D01*
G01X3754409Y764639D01*
G01X3745311Y777010D01*
G01X3745311Y798967D01*
G01X3764302Y801978D01*
G01X3782554Y808025D01*
G01X3799586Y816949D01*
G01X3799586Y551488D01*
G01X3782256Y540710D01*
G01X3767196Y526935D01*
G01X3754917Y510633D01*
G01X3745837Y492355D01*
G01X3740262Y472722D01*
G01X3738383Y452400D01*
G01X3740262Y432078D01*
G01X3745837Y412445D01*
G01X3754917Y394167D01*
G01X3767196Y377865D01*
G01X3782256Y364091D01*
G01X3799586Y353312D01*
G01X3799586Y273010D01*
G01X3782075Y263278D01*
G01X3766457Y250731D01*
G01X3753180Y235729D01*
G01X3638508Y350401D01*
G01X3657050Y360455D01*
G01X3673351Y373840D01*
G01X3686820Y390071D01*
G01X3696970Y408560D01*
G01X3703433Y428638D01*
G01X3705975Y449576D01*
G01X3704503Y470617D01*
G01X3699072Y490998D01*
G01X3689877Y509980D01*
G01X3677252Y526877D01*
G01X3661654Y541075D01*
G01X3643649Y552060D01*
G01X3623888Y559436D01*
G01X3603088Y562933D01*
G01X3582002Y562426D01*
G01X3561394Y557932D01*
G01X3542010Y549616D01*
G01X3524554Y537777D01*
G01X3509657Y522846D01*
G01X3497859Y505362D01*
G01X3493040Y518438D01*
G01X3484704Y529605D01*
G01X3214919Y799390D01*
G01X3235758Y798859D01*
G01X3256367Y801994D01*
G01X3276106Y808697D01*
G01X3294362Y818760D01*
G01X3310568Y831871D01*
G01X3324222Y847623D01*
G01X3334899Y865527D01*
G01X3342269Y885026D01*
G01X3346101Y905517D01*
G01X3346278Y926362D01*
G01X3346025Y927857D01*
G01X3364531Y927857D01*
G01X3364531Y906023D01*
G01X3368543Y884562D01*
G01X3376430Y864203D01*
G01X3387923Y845640D01*
G01X3402632Y829505D01*
G01X3420056Y816347D01*
G01X3439600Y806616D01*
G01X3460600Y800641D01*
G01X3482340Y798626D01*
G01X3482340Y798626D01*
G01X3504080Y800641D01*
G01X3525080Y806616D01*
G01X3544624Y816347D01*
G01X3562048Y829505D01*
G01X3576757Y845640D01*
G01X3588250Y864203D01*
G01X3596137Y884562D01*
G01X3600149Y906023D01*
G01X3600149Y927857D01*
G01X3596137Y949318D01*
G01X3588250Y969677D01*
G01X3576757Y988240D01*
G01X3562048Y1004375D01*
G01X3544624Y1017533D01*
G01X3525080Y1027264D01*
G01X3504080Y1033239D01*
G01X3482340Y1035254D01*
G01X3460600Y1033239D01*
G01X3439600Y1027264D01*
G01X3420056Y1017533D01*
G01X3402632Y1004375D01*
G01X3387923Y988240D01*
G01X3376430Y969677D01*
G01X3368543Y949318D01*
G01X3364531Y927857D01*
G01X3346025Y927857D01*
G01X3342794Y946915D01*
G01X3335757Y966537D01*
G01X3325385Y984619D01*
G01X3312001Y1000601D01*
G01X3296019Y1013985D01*
G01X3277937Y1024357D01*
G01X3258315Y1031394D01*
G01X3237762Y1034878D01*
G01X3216917Y1034701D01*
G01X3196426Y1030869D01*
G01X3176927Y1023499D01*
G01X3159023Y1012822D01*
G01X3143271Y999168D01*
G01X3130160Y982962D01*
G01X3120097Y964706D01*
G01X3113394Y944967D01*
G01X3110259Y924358D01*
G01X3110790Y903519D01*
G01X2925904Y1088405D01*
G01X2915857Y1096114D01*
G01X2904156Y1100961D01*
G01X2891600Y1102614D01*
G01X2298333Y1102614D01*
G01X2311058Y1119903D01*
G01X2320449Y1139208D01*
G01X2326197Y1159891D01*
G01X2328114Y1181272D01*
G01X2326135Y1202648D01*
G01X2320327Y1223315D01*
G01X2310879Y1242591D01*
G01X2298104Y1259844D01*
G01X2282422Y1274504D01*
G01X2264349Y1286089D01*
G01X2244480Y1294217D01*
G01X2223470Y1298622D01*
G01X2202009Y1299157D01*
G01X2180805Y1295806D01*
G01X2160556Y1288679D01*
G01X2141927Y1278010D01*
G01X2125533Y1264150D01*
G01X2111914Y1247557D01*
G01X2101517Y1228775D01*
G01X2094684Y1208424D01*
G01X1868009Y1435100D01*
G01X2091486Y1435100D01*
G01X2093501Y1413360D01*
G01X2099476Y1392360D01*
G01X2109207Y1372816D01*
G01X2122365Y1355392D01*
G01X2138500Y1340683D01*
G01X2157063Y1329190D01*
G01X2177422Y1321303D01*
G01X2198883Y1317291D01*
G01X2220717Y1317291D01*
G01X2242178Y1321303D01*
G01X2262537Y1329190D01*
G01X2281100Y1340683D01*
G01X2297235Y1355392D01*
G01X2310393Y1372816D01*
G01X2320124Y1392360D01*
G01X2326099Y1413360D01*
G01X2328114Y1435100D01*
G01X2328114Y1435100D01*
G01X2326099Y1456840D01*
G01X2320124Y1477840D01*
G01X2310393Y1497384D01*
G01X2297235Y1514808D01*
G01X2281100Y1529517D01*
G01X2262537Y1541010D01*
G01X2242178Y1548897D01*
G01X2220717Y1552909D01*
G01X2198883Y1552909D01*
G01X2177422Y1548897D01*
G01X2157063Y1541010D01*
G01X2138500Y1529517D01*
G01X2122365Y1514808D01*
G01X2109207Y1497384D01*
G01X2099476Y1477840D01*
G01X2093501Y1456840D01*
G01X2091486Y1435100D01*
G01X1868009Y1435100D01*
G01X1614009Y1689100D01*
G01X2091486Y1689100D01*
G01X2093501Y1667360D01*
G01X2099476Y1646360D01*
G01X2109207Y1626816D01*
G01X2122365Y1609392D01*
G01X2138500Y1594683D01*
G01X2157063Y1583190D01*
G01X2177422Y1575303D01*
G01X2198883Y1571291D01*
G01X2220717Y1571291D01*
G01X2242178Y1575303D01*
G01X2262537Y1583190D01*
G01X2281100Y1594683D01*
G01X2297235Y1609392D01*
G01X2310393Y1626816D01*
G01X2320124Y1646360D01*
G01X2320215Y1646677D01*
G01X2970831Y1646677D01*
G01X2970831Y1624843D01*
G01X2974843Y1603382D01*
G01X2982730Y1583023D01*
G01X2994223Y1564460D01*
G01X3008932Y1548325D01*
G01X3026356Y1535167D01*
G01X3045900Y1525436D01*
G01X3066900Y1519461D01*
G01X3088640Y1517446D01*
G01X3088640Y1517446D01*
G01X3110380Y1519461D01*
G01X3131380Y1525436D01*
G01X3150924Y1535167D01*
G01X3168348Y1548325D01*
G01X3183057Y1564460D01*
G01X3194550Y1583023D01*
G01X3202437Y1603382D01*
G01X3206449Y1624843D01*
G01X3206449Y1646677D01*
G01X3206449Y1646677D01*
G01X3224831Y1646677D01*
G01X3224831Y1624843D01*
G01X3228843Y1603382D01*
G01X3236730Y1583023D01*
G01X3248223Y1564460D01*
G01X3262932Y1548325D01*
G01X3280356Y1535167D01*
G01X3299900Y1525436D01*
G01X3320900Y1519461D01*
G01X3342640Y1517446D01*
G01X3364380Y1519461D01*
G01X3385380Y1525436D01*
G01X3404924Y1535167D01*
G01X3422348Y1548325D01*
G01X3437057Y1564460D01*
G01X3448550Y1583023D01*
G01X3456437Y1603382D01*
G01X3460449Y1624843D01*
G01X3460449Y1646677D01*
G01X3460449Y1646677D01*
G01X3478831Y1646677D01*
G01X3478831Y1624843D01*
G01X3482843Y1603382D01*
G01X3490730Y1583023D01*
G01X3502223Y1564460D01*
G01X3516932Y1548325D01*
G01X3534356Y1535167D01*
G01X3553900Y1525436D01*
G01X3574900Y1519461D01*
G01X3596640Y1517446D01*
G01X3596640Y1517446D01*
G01X3618380Y1519461D01*
G01X3639380Y1525436D01*
G01X3658924Y1535167D01*
G01X3676348Y1548325D01*
G01X3691057Y1564460D01*
G01X3702550Y1583023D01*
G01X3710437Y1603382D01*
G01X3714449Y1624843D01*
G01X3714449Y1646677D01*
G01X3710437Y1668138D01*
G01X3702550Y1688497D01*
G01X3691057Y1707060D01*
G01X3676348Y1723195D01*
G01X3658924Y1736353D01*
G01X3639380Y1746084D01*
G01X3618380Y1752059D01*
G01X3596640Y1754074D01*
G01X3574900Y1752059D01*
G01X3553900Y1746084D01*
G01X3534356Y1736353D01*
G01X3516932Y1723195D01*
G01X3502223Y1707060D01*
G01X3490730Y1688497D01*
G01X3482843Y1668138D01*
G01X3478831Y1646677D01*
G01X3460449Y1646677D01*
G01X3456437Y1668138D01*
G01X3448550Y1688497D01*
G01X3437057Y1707060D01*
G01X3422348Y1723195D01*
G01X3404924Y1736353D01*
G01X3385380Y1746084D01*
G01X3364380Y1752059D01*
G01X3342640Y1754074D01*
G01X3342640Y1754074D01*
G01X3320900Y1752059D01*
G01X3299900Y1746084D01*
G01X3280356Y1736353D01*
G01X3262932Y1723195D01*
G01X3248223Y1707060D01*
G01X3236730Y1688497D01*
G01X3228843Y1668138D01*
G01X3224831Y1646677D01*
G01X3206449Y1646677D01*
G01X3202437Y1668138D01*
G01X3194550Y1688497D01*
G01X3183057Y1707060D01*
G01X3168348Y1723195D01*
G01X3150924Y1736353D01*
G01X3131380Y1746084D01*
G01X3110380Y1752059D01*
G01X3088640Y1754074D01*
G01X3066900Y1752059D01*
G01X3045900Y1746084D01*
G01X3026356Y1736353D01*
G01X3008932Y1723195D01*
G01X2994223Y1707060D01*
G01X2982730Y1688497D01*
G01X2974843Y1668138D01*
G01X2970831Y1646677D01*
G01X2320215Y1646677D01*
G01X2326099Y1667360D01*
G01X2328114Y1689100D01*
G01X2328114Y1689100D01*
G01X2326099Y1710840D01*
G01X2320124Y1731840D01*
G01X2310393Y1751384D01*
G01X2297235Y1768808D01*
G01X2281100Y1783517D01*
G01X2262537Y1795010D01*
G01X2242178Y1802897D01*
G01X2220717Y1806909D01*
G01X2198883Y1806909D01*
G01X2177422Y1802897D01*
G01X2157063Y1795010D01*
G01X2138500Y1783517D01*
G01X2122365Y1768808D01*
G01X2109207Y1751384D01*
G01X2099476Y1731840D01*
G01X2093501Y1710840D01*
G01X2091486Y1689100D01*
G01X1614009Y1689100D01*
G01X1360009Y1943100D01*
G01X2091486Y1943100D01*
G01X2093501Y1921360D01*
G01X2099476Y1900360D01*
G01X2109207Y1880816D01*
G01X2122365Y1863392D01*
G01X2138500Y1848683D01*
G01X2157063Y1837190D01*
G01X2177422Y1829303D01*
G01X2198883Y1825291D01*
G01X2220717Y1825291D01*
G01X2242178Y1829303D01*
G01X2262537Y1837190D01*
G01X2281100Y1848683D01*
G01X2297235Y1863392D01*
G01X2310393Y1880816D01*
G01X2320124Y1900360D01*
G01X2326099Y1921360D01*
G01X2328114Y1943100D01*
G01X2328114Y1943100D01*
G01X2326099Y1964840D01*
G01X2320124Y1985840D01*
G01X2310393Y2005384D01*
G01X2297235Y2022808D01*
G01X2281100Y2037517D01*
G01X2262537Y2049010D01*
G01X2242178Y2056897D01*
G01X2220717Y2060909D01*
G01X2198883Y2060909D01*
G01X2177422Y2056897D01*
G01X2157063Y2049010D01*
G01X2138500Y2037517D01*
G01X2122365Y2022808D01*
G01X2109207Y2005384D01*
G01X2099476Y1985840D01*
G01X2093501Y1964840D01*
G01X2091486Y1943100D01*
G01X1360009Y1943100D01*
G01X1225614Y2077495D01*
G01X1225614Y2451100D01*
G01X2091486Y2451100D01*
G01X2093418Y2429806D01*
G01X2099151Y2409207D01*
G01X2108498Y2389977D01*
G01X2121153Y2372742D01*
G01X2136703Y2358067D01*
G01X2154641Y2346431D01*
G01X2174380Y2338212D01*
G01X2195276Y2333681D01*
G01X2216647Y2332984D01*
G01X2237793Y2336145D01*
G01X2258026Y2343061D01*
G01X2276683Y2353505D01*
G01X2276683Y2332592D01*
G01X2251799Y2307709D01*
G01X2231171Y2313468D01*
G01X2209841Y2315414D01*
G01X2188511Y2313483D01*
G01X2167878Y2307738D01*
G01X2148619Y2298367D01*
G01X2131365Y2285678D01*
G01X2116681Y2270087D01*
G01X2105049Y2252103D01*
G01X2096849Y2232317D01*
G01X2092351Y2211377D01*
G01X2091701Y2189969D01*
G01X2094922Y2168795D01*
G01X2101907Y2148548D01*
G01X2112428Y2129893D01*
G01X2126139Y2113439D01*
G01X2142593Y2099728D01*
G01X2161248Y2089207D01*
G01X2181495Y2082222D01*
G01X2202669Y2079001D01*
G01X2224077Y2079651D01*
G01X2245017Y2084149D01*
G01X2264803Y2092349D01*
G01X2282787Y2103981D01*
G01X2298378Y2118665D01*
G01X2311067Y2135919D01*
G01X2320438Y2155178D01*
G01X2326183Y2175811D01*
G01X2328114Y2197141D01*
G01X2326168Y2218471D01*
G01X2320409Y2239099D01*
G01X2359502Y2278192D01*
G01X2367211Y2288240D01*
G01X2372058Y2299941D01*
G01X2373711Y2312497D01*
G01X2373711Y2740940D01*
G01X2372058Y2753496D01*
G01X2367211Y2765197D01*
G01X2359502Y2775244D01*
G01X2340670Y2794076D01*
G01X2338356Y2809257D01*
G01X2332611Y2823499D01*
G01X2323745Y2836038D01*
G01X2312233Y2846201D01*
G01X2298691Y2853444D01*
G01X2283847Y2857377D01*
G01X2268496Y2857791D01*
G01X2253461Y2854662D01*
G01X2239549Y2848159D01*
G01X2227506Y2838631D01*
G01X2217977Y2826588D01*
G01X2211475Y2812676D01*
G01X2208346Y2797641D01*
G01X2208760Y2782290D01*
G01X2212693Y2767446D01*
G01X2219936Y2753904D01*
G01X2230099Y2742392D01*
G01X2242638Y2733526D01*
G01X2256879Y2727781D01*
G01X2272061Y2725467D01*
G01X2276683Y2720845D01*
G01X2276683Y2548695D01*
G01X2276683Y2548695D01*
G01X2258026Y2559139D01*
G01X2237793Y2566055D01*
G01X2216647Y2569216D01*
G01X2195276Y2568519D01*
G01X2174380Y2563988D01*
G01X2154641Y2555769D01*
G01X2136703Y2544133D01*
G01X2121153Y2529458D01*
G01X2108498Y2512223D01*
G01X2099151Y2492993D01*
G01X2093418Y2472394D01*
G01X2091486Y2451100D01*
G01X1225614Y2451100D01*
G01X1225614Y2922183D01*
G01X1240559Y2907942D01*
G01X1257887Y2896721D01*
G01X1276995Y2888908D01*
G01X1297221Y2884775D01*
G01X1317863Y2884465D01*
G01X1338204Y2887990D01*
G01X1357538Y2895226D01*
G01X1375194Y2905923D01*
G01X1390561Y2919709D01*
G01X1403103Y2936106D01*
G01X1412386Y2954545D01*
G01X1418088Y2974386D01*
G01X1420011Y2994940D01*
G01X1418088Y3015494D01*
G01X1412386Y3035335D01*
G01X1403103Y3053774D01*
G01X1390561Y3070171D01*
G01X1375194Y3083957D01*
G01X1357538Y3094654D01*
G01X1338204Y3101890D01*
G01X1317863Y3105415D01*
G01X1297221Y3105105D01*
G01X1276995Y3100972D01*
G01X1257887Y3093159D01*
G01X1240559Y3081937D01*
G01X1225614Y3067697D01*
G01X1225614Y3191782D01*
G01X1240379Y3179584D01*
G01X1256919Y3169929D01*
G01X1274800Y3163069D01*
G01X1293554Y3159184D01*
G01X1312689Y3158375D01*
G01X1331703Y3160664D01*
G01X1350099Y3165991D01*
G01X1426195Y3089895D01*
G01X1436243Y3082186D01*
G01X1447944Y3077339D01*
G01X1460500Y3075686D01*
G01X1487304Y3075686D01*
G01X1473836Y3060471D01*
G01X1463372Y3043052D01*
G01X1456265Y3024015D01*
G01X1452754Y3004001D01*
G01X1452956Y2983682D01*
G01X1456866Y2963741D01*
G01X1464350Y2944850D01*
G01X1475158Y2927643D01*
G01X1488927Y2912698D01*
G01X1505192Y2900520D01*
G01X1523409Y2891515D01*
G01X1542963Y2885989D01*
G01X1563197Y2884126D01*
G01X1583431Y2885989D01*
G01X1602985Y2891515D01*
G01X1621202Y2900520D01*
G01X1637467Y2912698D01*
G01X1651236Y2927643D01*
G01X1662044Y2944850D01*
G01X1669528Y2963741D01*
G01X1673438Y2983682D01*
G01X1673640Y3004001D01*
G01X1670129Y3024015D01*
G01X1663022Y3043052D01*
G01X1652559Y3060471D01*
G01X1639090Y3075686D01*
G01X1741304Y3075686D01*
G01X1727836Y3060471D01*
G01X1717372Y3043052D01*
G01X1710265Y3024015D01*
G01X1706754Y3004001D01*
G01X1706956Y2983682D01*
G01X1710866Y2963741D01*
G01X1718350Y2944850D01*
G01X1729158Y2927643D01*
G01X1742927Y2912698D01*
G01X1759192Y2900520D01*
G01X1777409Y2891515D01*
G01X1796963Y2885989D01*
G01X1817197Y2884126D01*
G01X1837431Y2885989D01*
G01X1856985Y2891515D01*
G01X1875202Y2900520D01*
G01X1891467Y2912698D01*
G01X1905236Y2927643D01*
G01X1916044Y2944850D01*
G01X1923528Y2963741D01*
G01X1927438Y2983682D01*
G01X1927640Y3004001D01*
G01X1924129Y3024015D01*
G01X1917022Y3043052D01*
G01X1906559Y3060471D01*
G01X1893090Y3075686D01*
G01X1995304Y3075686D01*
G01X1981836Y3060471D01*
G01X1971372Y3043052D01*
G01X1964265Y3024015D01*
G01X1960754Y3004001D01*
G01X1960956Y2983682D01*
G01X1964866Y2963741D01*
G01X1972350Y2944850D01*
G01X1983158Y2927643D01*
G01X1996927Y2912698D01*
G01X2013192Y2900520D01*
G01X2031409Y2891515D01*
G01X2050963Y2885989D01*
G01X2071197Y2884126D01*
G01X2091431Y2885989D01*
G01X2110985Y2891515D01*
G01X2129202Y2900520D01*
G01X2145467Y2912698D01*
G01X2159236Y2927643D01*
G01X2170044Y2944850D01*
G01X2177528Y2963741D01*
G01X2181438Y2983682D01*
G01X2181640Y3004001D01*
G01X2178129Y3024015D01*
G01X2171022Y3043052D01*
G01X2160559Y3060471D01*
G01X2147090Y3075686D01*
G01X2249304Y3075686D01*
G01X2235836Y3060471D01*
G01X2225372Y3043052D01*
G01X2218265Y3024015D01*
G01X2214754Y3004001D01*
G01X2214956Y2983682D01*
G01X2218866Y2963741D01*
G01X2226350Y2944850D01*
G01X2237158Y2927643D01*
G01X2250927Y2912698D01*
G01X2267192Y2900520D01*
G01X2285409Y2891515D01*
G01X2304963Y2885989D01*
G01X2325197Y2884126D01*
G01X2345431Y2885989D01*
G01X2364985Y2891515D01*
G01X2383202Y2900520D01*
G01X2399467Y2912698D01*
G01X2413236Y2927643D01*
G01X2424044Y2944850D01*
G01X2431528Y2963741D01*
G01X2435438Y2983682D01*
G01X2435640Y3004001D01*
G01X2432129Y3024015D01*
G01X2425022Y3043052D01*
G01X2414559Y3060471D01*
G01X2401090Y3075686D01*
G01X2503304Y3075686D01*
G01X2489520Y3060038D01*
G01X2478912Y3042085D01*
G01X2471855Y3022462D01*
G01X2468600Y3001865D01*
G01X2469261Y2981022D01*
G01X2473815Y2960673D01*
G01X2482100Y2941536D01*
G01X2493824Y2924291D01*
G01X2508572Y2909548D01*
G01X2525820Y2897829D01*
G01X2544958Y2889548D01*
G01X2565309Y2885000D01*
G01X2586152Y2884344D01*
G01X2606748Y2887606D01*
G01X2626369Y2894668D01*
G01X2644320Y2905280D01*
G01X2659964Y2919068D01*
G01X2672748Y2935543D01*
G01X3092273Y2516018D01*
G01X3070620Y2514694D01*
G01X3049574Y2509438D01*
G01X3029840Y2500428D01*
G01X3012084Y2487967D01*
G01X2996901Y2472473D01*
G01X2984802Y2454468D01*
G01X2976193Y2434556D01*
G01X2971365Y2413407D01*
G01X2970480Y2391733D01*
G01X2973566Y2370260D01*
G01X2980521Y2349713D01*
G01X2991111Y2330780D01*
G01X3004979Y2314099D01*
G01X3021660Y2300231D01*
G01X3040593Y2289641D01*
G01X3061140Y2282686D01*
G01X3082613Y2279600D01*
G01X3104287Y2280485D01*
G01X3125436Y2285313D01*
G01X3145348Y2293922D01*
G01X3163353Y2306021D01*
G01X3178847Y2321204D01*
G01X3191308Y2338960D01*
G01X3200318Y2358694D01*
G01X3205574Y2379740D01*
G01X3206898Y2401393D01*
G01X3225245Y2383046D01*
G01X3229915Y2361826D01*
G01X3238387Y2341818D01*
G01X3250375Y2323696D01*
G01X3265475Y2308073D01*
G01X3283178Y2295474D01*
G01X3302886Y2286325D01*
G01X3323934Y2280934D01*
G01X3345614Y2279483D01*
G01X3367193Y2282022D01*
G01X3387944Y2288463D01*
G01X3407167Y2298591D01*
G01X3424214Y2312064D01*
G01X3438510Y2328427D01*
G01X3449572Y2347128D01*
G01X3457028Y2367536D01*
G01X3460627Y2388964D01*
G01X3482323Y2367268D01*
G01X3489432Y2347714D01*
G01X3499856Y2329708D01*
G01X3513274Y2313806D01*
G01X3529270Y2300500D01*
G01X3547349Y2290203D01*
G01X3566952Y2283231D01*
G01X3587474Y2279802D01*
G01X3608279Y2280020D01*
G01X3628724Y2283879D01*
G01X3648177Y2291261D01*
G01X3666036Y2301935D01*
G01X3681749Y2315574D01*
G01X3694830Y2331754D01*
G01X3704875Y2349975D01*
G01X3711572Y2369674D01*
G01X3714715Y2390241D01*
G01X3714206Y2411041D01*
G01X3710062Y2431430D01*
G01X3702410Y2450778D01*
G01X3691487Y2468487D01*
G01X3677631Y2484008D01*
G01X3661270Y2496862D01*
G01X3642910Y2506651D01*
G01X3623120Y2513073D01*
G01X3602510Y2515928D01*
G01X3581719Y2515129D01*
G01X3561390Y2510701D01*
G01X3542151Y2502780D01*
G01X3524596Y2491610D01*
G01X3509270Y2477539D01*
G01X3101727Y2885083D01*
G01X3120957Y2889394D01*
G01X3139120Y2897043D01*
G01X3155641Y2907790D01*
G01X3169997Y2921292D01*
G01X3181734Y2937125D01*
G01X3190480Y2954786D01*
G01X3195960Y2973717D01*
G01X3197999Y2993319D01*
G01X3197116Y3005165D01*
G01X3230856Y3005165D01*
G01X3230856Y2984715D01*
G01X3234614Y2964614D01*
G01X3242001Y2945546D01*
G01X3252766Y2928160D01*
G01X3266542Y2913047D01*
G01X3282861Y2900724D01*
G01X3301167Y2891609D01*
G01X3320835Y2886013D01*
G01X3341197Y2884126D01*
G01X3341197Y2884126D01*
G01X3361559Y2886013D01*
G01X3381228Y2891609D01*
G01X3399533Y2900724D01*
G01X3415852Y2913047D01*
G01X3429629Y2928160D01*
G01X3440394Y2945546D01*
G01X3447781Y2964614D01*
G01X3451539Y2984715D01*
G01X3451539Y3005165D01*
G01X3484856Y3005165D01*
G01X3484856Y2984715D01*
G01X3488614Y2964614D01*
G01X3496001Y2945546D01*
G01X3506766Y2928160D01*
G01X3520542Y2913047D01*
G01X3536861Y2900724D01*
G01X3555167Y2891609D01*
G01X3574835Y2886013D01*
G01X3595197Y2884126D01*
G01X3595197Y2884126D01*
G01X3615559Y2886013D01*
G01X3635228Y2891609D01*
G01X3653533Y2900724D01*
G01X3669852Y2913047D01*
G01X3683629Y2928160D01*
G01X3694394Y2945546D01*
G01X3701781Y2964614D01*
G01X3705539Y2984715D01*
G01X3705539Y3005165D01*
G01X3701781Y3025266D01*
G01X3694394Y3044334D01*
G01X3683629Y3061720D01*
G01X3669852Y3076832D01*
G01X3653533Y3089156D01*
G01X3635228Y3098271D01*
G01X3615559Y3103867D01*
G01X3595197Y3105754D01*
G01X3574835Y3103867D01*
G01X3555167Y3098271D01*
G01X3536861Y3089156D01*
G01X3520542Y3076832D01*
G01X3506766Y3061720D01*
G01X3496001Y3044334D01*
G01X3488614Y3025266D01*
G01X3484856Y3005165D01*
G01X3451539Y3005165D01*
G01X3447781Y3025266D01*
G01X3440394Y3044334D01*
G01X3429629Y3061720D01*
G01X3415852Y3076832D01*
G01X3399533Y3089156D01*
G01X3381228Y3098271D01*
G01X3361559Y3103867D01*
G01X3341197Y3105754D01*
G01X3320835Y3103867D01*
G01X3301167Y3098271D01*
G01X3282861Y3089156D01*
G01X3266542Y3076832D01*
G01X3252766Y3061720D01*
G01X3242001Y3044334D01*
G01X3234614Y3025266D01*
G01X3230856Y3005165D01*
G01X3197116Y3005165D01*
G01X3196534Y3012973D01*
G01X3191611Y3032056D01*
G01X3183384Y3049965D01*
G01X3172116Y3066134D01*
G01X3158161Y3080051D01*
G01X3141962Y3091276D01*
G01X3124030Y3099453D01*
G01X3104934Y3104325D01*
G01X3085276Y3105737D01*
G01X3065679Y3103645D01*
G01X3046763Y3098114D01*
G01X3029126Y3089319D01*
G01X3013326Y3077540D01*
G01X2999862Y3063147D01*
G01X2929905Y3133105D01*
G01X2919857Y3140814D01*
G01X2908156Y3145661D01*
G01X2895600Y3147314D01*
G01X2864895Y3147314D01*
G01X2852203Y3160006D01*
G01X2872336Y3165338D01*
G01X2891223Y3174118D01*
G01X2908278Y3186073D01*
G01X2922972Y3200834D01*
G01X2934849Y3217942D01*
G01X2943543Y3236868D01*
G01X2948784Y3257026D01*
G01X2950315Y3276600D01*
G01X2967786Y3276600D01*
G01X2969801Y3254860D01*
G01X2975776Y3233860D01*
G01X2985507Y3214316D01*
G01X2998665Y3196892D01*
G01X3014800Y3182183D01*
G01X3033363Y3170690D01*
G01X3053722Y3162803D01*
G01X3075183Y3158791D01*
G01X3097017Y3158791D01*
G01X3118478Y3162803D01*
G01X3138837Y3170690D01*
G01X3157400Y3182183D01*
G01X3173535Y3196892D01*
G01X3186693Y3214316D01*
G01X3196424Y3233860D01*
G01X3202399Y3254860D01*
G01X3204414Y3276600D01*
G01X3204414Y3276600D01*
G01X3221786Y3276600D01*
G01X3223801Y3254860D01*
G01X3229776Y3233860D01*
G01X3239507Y3214316D01*
G01X3252665Y3196892D01*
G01X3268800Y3182183D01*
G01X3287363Y3170690D01*
G01X3307722Y3162803D01*
G01X3329183Y3158791D01*
G01X3351017Y3158791D01*
G01X3372478Y3162803D01*
G01X3392837Y3170690D01*
G01X3411400Y3182183D01*
G01X3427535Y3196892D01*
G01X3440693Y3214316D01*
G01X3450424Y3233860D01*
G01X3456399Y3254860D01*
G01X3458414Y3276600D01*
G01X3458414Y3276600D01*
G01X3475786Y3276600D01*
G01X3477801Y3254860D01*
G01X3483776Y3233860D01*
G01X3493507Y3214316D01*
G01X3506665Y3196892D01*
G01X3522800Y3182183D01*
G01X3541363Y3170690D01*
G01X3561722Y3162803D01*
G01X3583183Y3158791D01*
G01X3605017Y3158791D01*
G01X3626478Y3162803D01*
G01X3646837Y3170690D01*
G01X3665400Y3182183D01*
G01X3681535Y3196892D01*
G01X3694693Y3214316D01*
G01X3704424Y3233860D01*
G01X3710399Y3254860D01*
G01X3712414Y3276600D01*
G01X3712414Y3276600D01*
G01X3710399Y3298340D01*
G01X3704424Y3319340D01*
G01X3694693Y3338884D01*
G01X3681535Y3356308D01*
G01X3665400Y3371017D01*
G01X3646837Y3382510D01*
G01X3626478Y3390397D01*
G01X3605017Y3394409D01*
G01X3583183Y3394409D01*
G01X3561722Y3390397D01*
G01X3541363Y3382510D01*
G01X3522800Y3371017D01*
G01X3506665Y3356308D01*
G01X3493507Y3338884D01*
G01X3483776Y3319340D01*
G01X3477801Y3298340D01*
G01X3475786Y3276600D01*
G01X3458414Y3276600D01*
G01X3456399Y3298340D01*
G01X3450424Y3319340D01*
G01X3440693Y3338884D01*
G01X3427535Y3356308D01*
G01X3411400Y3371017D01*
G01X3392837Y3382510D01*
G01X3372478Y3390397D01*
G01X3351017Y3394409D01*
G01X3329183Y3394409D01*
G01X3307722Y3390397D01*
G01X3287363Y3382510D01*
G01X3268800Y3371017D01*
G01X3252665Y3356308D01*
G01X3239507Y3338884D01*
G01X3229776Y3319340D01*
G01X3223801Y3298340D01*
G01X3221786Y3276600D01*
G01X3204414Y3276600D01*
G01X3202399Y3298340D01*
G01X3196424Y3319340D01*
G01X3186693Y3338884D01*
G01X3173535Y3356308D01*
G01X3157400Y3371017D01*
G01X3138837Y3382510D01*
G01X3118478Y3390397D01*
G01X3097017Y3394409D01*
G01X3075183Y3394409D01*
G01X3053722Y3390397D01*
G01X3033363Y3382510D01*
G01X3014800Y3371017D01*
G01X2998665Y3356308D01*
G01X2985507Y3338884D01*
G01X2975776Y3319340D01*
G01X2969801Y3298340D01*
G01X2967786Y3276600D01*
G01X2950315Y3276600D01*
G01X2950408Y3277790D01*
G01X2948366Y3298517D01*
G01X2942721Y3318565D01*
G01X2933649Y3337313D01*
G01X2921429Y3354179D01*
G01X2906441Y3368641D01*
G01X2889150Y3380251D01*
G01X2870090Y3388649D01*
G01X2849853Y3393574D01*
G01X2829066Y3394875D01*
G01X2808373Y3392511D01*
G01X2788416Y3386554D01*
G01X2769812Y3377190D01*
G01X2753138Y3364709D01*
G01X2738911Y3349498D01*
G01X2650505Y3437905D01*
G01X2640457Y3445614D01*
G01X2628756Y3450461D01*
G01X2616200Y3452114D01*
G01X1689100Y3452114D01*
G01X1676544Y3450461D01*
G01X1664843Y3445614D01*
G01X1654795Y3437905D01*
G01X1604099Y3387209D01*
G01X1585133Y3392650D01*
G01X1565525Y3394864D01*
G01X1545822Y3393789D01*
G01X1526573Y3389454D01*
G01X1508311Y3381980D01*
G01X1491545Y3371575D01*
G01X1476742Y3358528D01*
G01X1464313Y3343202D01*
G01X1454604Y3326024D01*
G01X1447885Y3307472D01*
G01X1444342Y3288060D01*
G01X1444075Y3268330D01*
G01X1447091Y3248830D01*
G01X1453306Y3230102D01*
G01X1462547Y3212668D01*
G01X1474557Y3197011D01*
G01X1489001Y3183569D01*
G01X1505479Y3172714D01*
G01X1480595Y3172714D01*
G01X1418709Y3234601D01*
G01X1424448Y3255121D01*
G01X1426414Y3276339D01*
G01X1424542Y3297565D01*
G01X1418893Y3318110D01*
G01X1409650Y3337310D01*
G01X1397114Y3354540D01*
G01X1381691Y3369242D01*
G01X1363880Y3380940D01*
G01X1344260Y3389253D01*
G01X1323468Y3393912D01*
G01X1302177Y3394766D01*
G01X1281078Y3391787D01*
G01X1260855Y3385072D01*
G01X1242165Y3374838D01*
G01X1225614Y3361418D01*
G01X1225614Y3559328D01*
G01X1246316Y3565063D01*
G01X1265741Y3574236D01*
G01X1283322Y3586580D01*
G01X1298547Y3601735D01*
G01X1310972Y3619259D01*
G01X1320234Y3638642D01*
G01X1326064Y3659317D01*
G01X1328292Y3680683D01*
G01X1328136Y3683000D01*
G01X1567287Y3683000D01*
G01X1569198Y3661153D01*
G01X1574874Y3639969D01*
G01X1584143Y3620093D01*
G01X1596722Y3602128D01*
G01X1612229Y3586621D01*
G01X1630194Y3574042D01*
G01X1650070Y3564774D01*
G01X1671253Y3559098D01*
G01X1693101Y3557186D01*
G01X1714948Y3559098D01*
G01X1736131Y3564774D01*
G01X1756007Y3574042D01*
G01X1773972Y3586621D01*
G01X1789479Y3602128D01*
G01X1802058Y3620093D01*
G01X1811327Y3639969D01*
G01X1817003Y3661153D01*
G01X1818914Y3683000D01*
G01X1818914Y3683000D01*
G01X1817003Y3704847D01*
G01X1811327Y3726031D01*
G01X1802058Y3745907D01*
G01X1789479Y3763872D01*
G01X1773972Y3779379D01*
G01X1756007Y3791958D01*
G01X1736131Y3801226D01*
G01X1714948Y3806902D01*
G01X1693101Y3808814D01*
G01X1671253Y3806902D01*
G01X1650070Y3801226D01*
G01X1630194Y3791958D01*
G01X1612229Y3779379D01*
G01X1596722Y3763872D01*
G01X1584143Y3745907D01*
G01X1574874Y3726031D01*
G01X1569198Y3704847D01*
G01X1567287Y3683000D01*
G01X1328136Y3683000D01*
G01X1326852Y3702117D01*
G01X1321788Y3722993D01*
G01X1313245Y3742704D01*
G01X1301474Y3760674D01*
G01X1286817Y3776379D01*
G01X1269702Y3789362D01*
G01X1250628Y3799244D01*
G01X1230151Y3805738D01*
G01X1208868Y3808653D01*
G01X1187399Y3807904D01*
G01X1166370Y3803515D01*
G01X1146395Y3795612D01*
G01X1128055Y3784426D01*
G01X1111886Y3770283D01*
G01X1098358Y3753595D01*
G01X1087866Y3734849D01*
G01X1080717Y3714592D01*
G01X1077117Y3693414D01*
G01X1077173Y3671932D01*
G01X1080883Y3650773D01*
G01X1088139Y3630553D01*
G01X1098728Y3611862D01*
G01X1112342Y3595246D01*
G01X1128586Y3581187D01*
G01X1128586Y3368524D01*
G01X1111628Y3379986D01*
G01X1092948Y3388354D01*
G01X1073106Y3393377D01*
G01X1052695Y3394906D01*
G01X1032327Y3392893D01*
G01X1012609Y3387400D01*
G01X994134Y3378592D01*
G01X977453Y3366730D01*
G01X963066Y3352171D01*
G01X951404Y3335351D01*
G01X942815Y3316772D01*
G01X937556Y3296991D01*
G01X935786Y3276600D01*
G01X918414Y3276600D01*
G01X916399Y3298340D01*
G01X910424Y3319340D01*
G01X900693Y3338884D01*
G01X887535Y3356308D01*
G01X871400Y3371017D01*
G01X852837Y3382510D01*
G01X832478Y3390397D01*
G01X811017Y3394409D01*
G01X789183Y3394409D01*
G01X767722Y3390397D01*
G01X747363Y3382510D01*
G01X728800Y3371017D01*
G01X712665Y3356308D01*
G01X699507Y3338884D01*
G01X689776Y3319340D01*
G01X683801Y3298340D01*
G01X681786Y3276600D01*
G01X35814Y3276600D01*
G01X35814Y3657600D01*
G01X55886Y3657600D01*
G01X57850Y3628894D01*
G01X63704Y3600723D01*
G01X73339Y3573612D01*
G01X86577Y3548064D01*
G01X103169Y3524558D01*
G01X122808Y3503530D01*
G01X145128Y3485371D01*
G01X169712Y3470421D01*
G01X196103Y3458958D01*
G01X223809Y3451195D01*
G01X252314Y3447278D01*
G01X281086Y3447278D01*
G01X309591Y3451195D01*
G01X337297Y3458958D01*
G01X363688Y3470421D01*
G01X388272Y3485371D01*
G01X410592Y3503530D01*
G01X430231Y3524558D01*
G01X446823Y3548064D01*
G01X460061Y3573612D01*
G01X469696Y3600723D01*
G01X475550Y3628894D01*
G01X477514Y3657600D01*
G01X475776Y3683000D01*
G01X576687Y3683000D01*
G01X578598Y3661153D01*
G01X584274Y3639969D01*
G01X593543Y3620093D01*
G01X606122Y3602128D01*
G01X621629Y3586621D01*
G01X639594Y3574042D01*
G01X659470Y3564774D01*
G01X680653Y3559098D01*
G01X702501Y3557186D01*
G01X724348Y3559098D01*
G01X745531Y3564774D01*
G01X765407Y3574042D01*
G01X783372Y3586621D01*
G01X798879Y3602128D01*
G01X811458Y3620093D01*
G01X820727Y3639969D01*
G01X826403Y3661153D01*
G01X828314Y3683000D01*
G01X828314Y3683000D01*
G01X826403Y3704847D01*
G01X820727Y3726031D01*
G01X811458Y3745907D01*
G01X798879Y3763872D01*
G01X783372Y3779379D01*
G01X765407Y3791958D01*
G01X745531Y3801226D01*
G01X724348Y3806902D01*
G01X702501Y3808814D01*
G01X680653Y3806902D01*
G01X659470Y3801226D01*
G01X639594Y3791958D01*
G01X621629Y3779379D01*
G01X606122Y3763872D01*
G01X593543Y3745907D01*
G01X584274Y3726031D01*
G01X578598Y3704847D01*
G01X576687Y3683000D01*
G01X475776Y3683000D01*
G01X475550Y3686306D01*
G01X469696Y3714477D01*
G01X460061Y3741588D01*
G01X446823Y3767136D01*
G01X430231Y3790642D01*
G01X410592Y3811670D01*
G01X388272Y3829829D01*
G01X363688Y3844779D01*
G01X337297Y3856242D01*
G01X309591Y3864005D01*
G01X281086Y3867922D01*
G01X252314Y3867922D01*
G01X223809Y3864005D01*
G01X196103Y3856242D01*
G01X169712Y3844779D01*
G01X145128Y3829829D01*
G01X122808Y3811670D01*
G01X103169Y3790642D01*
G01X86577Y3767136D01*
G01X73339Y3741588D01*
G01X63704Y3714477D01*
G01X57850Y3686306D01*
G01X55886Y3657600D01*
G01X55886Y3657600D01*
G01X35814Y3657600D01*
G01X35814Y3724300D01*
G37*
G54D10*
G01X35814Y3724300D02*
G02X200000Y3888486I164186J0D01*
G01X6100000Y3888486D01*
G02X6264186Y3724300I0J-164186D01*
G01X6264186Y124300D01*
G02X6100000Y-39886I-164186J0D01*
G01X200000Y-39886D01*
G02X35814Y124300I0J164186D01*
G01X35814Y3724300D01*
G01X55886Y3657600D02*
G03X477514Y3657600I210814J0D01*
G03X55886Y3657600I-210814J0D01*
G01X55886Y190500D02*
G03X477514Y190500I210814J0D01*
G03X55886Y190500I-210814J0D01*
G01X828314Y3683000D02*
G03X576687Y3683000I-125814J0D01*
G03X828314Y3683000I125814J0D01*
G01X918414Y3276600D02*
G03X681786Y3276600I-118314J0D01*
G03X918414Y3276600I118314J0D01*
G01X681786Y165100D02*
G03X918414Y165100I118314J0D01*
G03X681786Y165100I-118314J0D01*
G01X801197Y2884126D02*
G03X801197Y3105754I0J110814D01*
G03X801197Y2884126I0J-110814D01*
G01X801197Y341586D02*
G03X801197Y563214I0J110814D01*
G03X801197Y341586I0J-110814D01*
G01X914400Y1672914D02*
G03X914400Y1451286I0J-110814D01*
G03X914400Y1672914I0J110814D01*
G01X914400Y1926914D02*
G03X914400Y1705286I0J-110814D01*
G03X914400Y1926914I0J110814D01*
G01X935786Y165100D02*
G03X1172414Y165100I118314J0D01*
G03X935786Y165100I-118314J0D01*
G01X2141900Y1023990D02*
G03X2195976Y809596I67900J-96890D01*
G03X2298333Y1005586I13824J117504D01*
G01X2871504Y1005586D01*
G01X3316633Y560457D01*
G03X3250339Y388960I24564J-108057D01*
G03X3434177Y392113I90858J63440D01*
G01X3517695Y308595D01*
G03X3552000Y294386I34305J34305D01*
G01X3557304Y294386D01*
G01X3570628Y281062D01*
G03X3493268Y103204I23472J-115962D01*
G03X3686880Y91683I100832J61896D01*
G03X3695495Y79995I42919J22617D01*
G01X3771695Y3795D01*
G03X3806000Y-10414I34305J34305D01*
G01X5245100Y-10414D01*
G03X5279405Y3795I0J48514D01*
G01X5330101Y54491D01*
G03X5455761Y248761I41999J110609D01*
G03X5261491Y123101I-83661J-83661D01*
G01X5225005Y86614D01*
G01X5206633Y86614D01*
G03X5118100Y283414I-88533J78486D01*
G03X5029567Y86614I0J-118314D01*
G01X4952633Y86614D01*
G03X4864100Y283414I-88533J78486D01*
G03X4775567Y86614I0J-118314D01*
G01X4698633Y86614D01*
G03X4610100Y283414I-88533J78486D01*
G03X4521567Y86614I0J-118314D01*
G01X4444633Y86614D01*
G03X4356100Y283414I-88533J78486D01*
G03X4267567Y86614I0J-118314D01*
G01X4190633Y86614D01*
G03X4102100Y283414I-88533J78486D01*
G03X4013567Y86614I0J-118314D01*
G01X3936633Y86614D01*
G03X3963778Y189936I-88533J78486D01*
G03X3896614Y273010I-115678J-24836D01*
G01X3896614Y352243D01*
G03X3896614Y552557I-47417J100157D01*
G01X3896614Y2710405D01*
G01X4009405Y2823195D01*
G03X4023614Y2857500I-34305J34305D01*
G01X4023614Y2917828D01*
G03X4136136Y2889134I79583J77112D01*
G03X4108027Y2837239I38164J-54232D01*
G01X3941892Y2671105D01*
G03X3927683Y2636800I34305J-34305D01*
G01X3927683Y878610D01*
G03X3976197Y767086I48514J-45210D01*
G03X4024711Y878610I0J66314D01*
G01X4024711Y2616705D01*
G01X4176636Y2768630D01*
G03X4230239Y2799289I-2336J66273D01*
G01X4771233Y2258295D01*
G03X4865954Y2200729I66273J2336D01*
G01X4865954Y1783704D01*
G03X4850944Y1667289I23114J-62155D01*
G03X4955379Y1720873I38124J54260D01*
G03X4962982Y1746949I-40911J26075D01*
G01X4962982Y2691669D01*
G03X4948773Y2725973I-48514J0D01*
G01X4715951Y2958795D01*
G03X4659711Y3094570I-104754J36144D01*
G01X4659711Y3169190D01*
G03X4608897Y3394908I-49611J107410D01*
G03X4562683Y3168203I1203J-118308D01*
G01X4562683Y3094570D01*
G03X4508818Y2952533I48514J-99630D01*
G03X4647341Y2890186I102379J42407D01*
G01X4865954Y2671574D01*
G01X4865954Y2320533D01*
G03X4839842Y2326904I-28448J-59902D01*
G01X4207951Y2958795D01*
G03X4151711Y3094570I-104754J36144D01*
G01X4151711Y3169190D01*
G03X4194927Y3349958I-49611J107410D01*
G03X4009065Y3349694I-92827J-73358D01*
G01X3780805Y3577605D01*
G03X3759177Y3590128I-34305J-34305D01*
G03X3735451Y3792954I-84876J92872D01*
G03X3550628Y3706112I-61150J-109954D01*
G03X3517900Y3718814I-32728J-35812D01*
G01X3304308Y3718814D01*
G03X3125474Y3794530I-120609J-35814D01*
G03X3085368Y3604514I58225J-111530D01*
G01X2782032Y3604514D01*
G03X2683701Y3808814I-98331J78486D01*
G03X2585369Y3604514I0J-125814D01*
G01X2340195Y3604514D01*
G01X2309488Y3635221D01*
G03X2104136Y3771964I-116388J47779D01*
G03X2240879Y3566612I88964J-88964D01*
G01X2285795Y3521695D01*
G03X2320100Y3507486I34305J34305D01*
G01X3548605Y3507486D01*
G01X3737491Y3318599D01*
G03X3780886Y3179232I110609J-41999D01*
G03X3926586Y3188067I67214J97368D01*
G01X3926586Y3074254D01*
G03X3738383Y2994940I-77389J-79314D01*
G03X3926586Y2915626I110814J0D01*
G01X3926586Y2877595D01*
G01X3813795Y2764805D01*
G03X3799586Y2730500I34305J-34305D01*
G01X3799586Y1016931D01*
G03X3645979Y993315I-63246J-99991D01*
G03X3648283Y837920I90361J-76375D01*
G01X3648283Y777010D01*
G03X3696797Y665486I48514J-45210D01*
G03X3745311Y777010I0J66314D01*
G01X3745311Y798967D01*
G03X3799586Y816949I-8971J117973D01*
G01X3799586Y551488D01*
G03X3799586Y353312I49611J-99088D01*
G01X3799586Y273010D01*
G03X3753180Y235729I48514J-107910D01*
G01X3638508Y350401D01*
G03X3677252Y526877I-43311J101999D01*
G03X3497859Y505362I-82055J-74476D01*
G03X3484704Y529605I-47459J-10062D01*
G01X3214919Y799390D01*
G03X3312001Y1000601I13421J117550D01*
G03X3110790Y903519I-83661J-83661D01*
G01X2925904Y1088405D01*
G03X2891600Y1102614I-34305J-34305D01*
G01X2298333Y1102614D01*
G03X2264349Y1286089I-88533J78486D01*
G03X2094684Y1208424I-54549J-104989D01*
G01X1225614Y2077495D01*
G01X1225614Y2922183D01*
G03X1420011Y2994940I83584J72757D01*
G03X1225614Y3067697I-110814J0D01*
G01X1225614Y3191782D01*
G03X1350099Y3165991I82487J84818D01*
G01X1426195Y3089895D01*
G03X1460500Y3075686I34305J34305D01*
G01X1487304Y3075686D01*
G03X1563197Y2884126I75893J-80746D01*
G03X1639090Y3075686I0J110814D01*
G01X1741304Y3075686D01*
G03X1817197Y2884126I75893J-80746D01*
G03X1893090Y3075686I0J110814D01*
G01X1995304Y3075686D01*
G03X2071197Y2884126I75893J-80746D01*
G03X2147090Y3075686I0J110814D01*
G01X2249304Y3075686D01*
G03X2325197Y2884126I75893J-80746D01*
G03X2401090Y3075686I0J110814D01*
G01X2503304Y3075686D01*
G03X2508572Y2909548I75893J-80746D01*
G03X2672748Y2935543I70626J85392D01*
G01X3092273Y2516018D01*
G03X3004979Y2314099I-3633J-118258D01*
G03X3206898Y2401393I83661J83661D01*
G01X3225245Y2383046D01*
G03X3345614Y2279483I117395J14714D01*
G03X3460627Y2388964I-2974J118277D01*
G01X3482323Y2367268D01*
G03X3711572Y2369674I114317J30492D01*
G03X3509270Y2477539I-114932J28086D01*
G01X3101727Y2885083D01*
G03X3183384Y3049965I-14529J109857D01*
G03X2999862Y3063147I-96187J-55025D01*
G01X2929905Y3133105D01*
G03X2895600Y3147314I-34305J-34305D01*
G01X2864895Y3147314D01*
G01X2852203Y3160006D01*
G03X2933649Y3337313I-20103J116594D01*
G03X2738911Y3349498I-101549J-60713D01*
G01X2650505Y3437905D01*
G03X2616200Y3452114I-34305J-34305D01*
G01X1689100Y3452114D01*
G03X1654795Y3437905I0J-48514D01*
G01X1604099Y3387209D01*
G03X1454604Y3326024I-41999J-110609D01*
G03X1505479Y3172714I107496J-49424D01*
G01X1480595Y3172714D01*
G01X1418709Y3234601D01*
G03X1225614Y3361418I-110609J41999D01*
G01X1225614Y3559328D01*
G03X1230151Y3805738I-23114J123672D01*
G03X1128586Y3581187I-27652J-122738D01*
G01X1128586Y3368524D01*
G03X935786Y3276600I-74485J-91924D01*
G03X1128586Y3184676I118314J0D01*
G01X1128586Y3077969D01*
G03X944383Y2994940I-73388J-83029D01*
G03X1128586Y2911911I110814J0D01*
G01X1128586Y2057400D01*
G03X1142795Y2023095I48514J0D01*
G01X2141900Y1023990D01*
G01X1055197Y341586D02*
G03X1055197Y563214I0J110814D01*
G03X1055197Y341586I0J-110814D01*
G01X1189786Y165100D02*
G03X1426414Y165100I118314J0D01*
G03X1189786Y165100I-118314J0D01*
G01X1309197Y341586D02*
G03X1309197Y563214I0J110814D01*
G03X1309197Y341586I0J-110814D01*
G01X1443786Y165100D02*
G03X1680414Y165100I118314J0D01*
G03X1443786Y165100I-118314J0D01*
G01X1563197Y341586D02*
G03X1563197Y563214I0J110814D01*
G03X1563197Y341586I0J-110814D01*
G01X1818914Y3683000D02*
G03X1567287Y3683000I-125814J0D01*
G03X1818914Y3683000I125814J0D01*
G01X1697786Y165100D02*
G03X1934414Y165100I118314J0D01*
G03X1697786Y165100I-118314J0D01*
G01X1817197Y341586D02*
G03X1817197Y563214I0J110814D01*
G03X1817197Y341586I0J-110814D01*
G01X1951786Y165100D02*
G03X2188414Y165100I118314J0D01*
G03X1951786Y165100I-118314J0D01*
G01X2071197Y341586D02*
G03X2071197Y563214I0J110814D01*
G03X2071197Y341586I0J-110814D01*
G01X2328114Y1435100D02*
G03X2091486Y1435100I-118314J0D01*
G03X2328114Y1435100I118314J0D01*
G01X2328114Y1943100D02*
G03X2091486Y1943100I-118314J0D01*
G03X2328114Y1943100I118314J0D01*
G01X2276683Y2548695D02*
G03X2091486Y2451100I-66883J-97595D01*
G03X2276683Y2353505I118314J0D01*
G01X2276683Y2332592D01*
G01X2251799Y2307709D01*
G03X2126139Y2113439I-41999J-110609D01*
G03X2320409Y2239099I83661J83661D01*
G01X2359502Y2278192D01*
G03X2373711Y2312497I-34305J34305D01*
G01X2373711Y2740940D01*
G03X2359502Y2775244I-48514J0D01*
G01X2340670Y2794076D01*
G03X2227506Y2838631I-66273J-2336D01*
G03X2272061Y2725467I46891J-46891D01*
G01X2276683Y2720845D01*
G01X2276683Y2548695D01*
G01X2328114Y1689100D02*
G03X2091486Y1689100I-118314J0D01*
G03X2328114Y1689100I118314J0D01*
G01X2205786Y165100D02*
G03X2442414Y165100I118314J0D01*
G03X2205786Y165100I-118314J0D01*
G01X2325197Y341586D02*
G03X2325197Y563214I0J110814D01*
G03X2325197Y341586I0J-110814D01*
G01X2459786Y165100D02*
G03X2696414Y165100I118314J0D01*
G03X2459786Y165100I-118314J0D01*
G01X2579197Y341586D02*
G03X2579197Y563214I0J110814D01*
G03X2579197Y341586I0J-110814D01*
G01X2713786Y165100D02*
G03X2950414Y165100I118314J0D01*
G03X2713786Y165100I-118314J0D01*
G01X2833197Y341586D02*
G03X2833197Y563214I0J110814D01*
G03X2833197Y341586I0J-110814D01*
G01X3204414Y3276600D02*
G03X2967786Y3276600I-118314J0D01*
G03X3204414Y3276600I118314J0D01*
G01X2967786Y165100D02*
G03X3204414Y165100I118314J0D01*
G03X2967786Y165100I-118314J0D01*
G01X3088640Y1517446D02*
G03X3088640Y1754074I0J118314D01*
G03X3088640Y1517446I0J-118314D01*
G01X3087197Y341586D02*
G03X3087197Y563214I0J110814D01*
G03X3087197Y341586I0J-110814D01*
G01X3458414Y3276600D02*
G03X3221786Y3276600I-118314J0D01*
G03X3458414Y3276600I118314J0D01*
G01X3221786Y165100D02*
G03X3458414Y165100I118314J0D01*
G03X3221786Y165100I-118314J0D01*
G01X3342640Y1754074D02*
G03X3342640Y1517446I0J-118314D01*
G03X3342640Y1754074I0J118314D01*
G01X3341197Y2884126D02*
G03X3341197Y3105754I0J110814D01*
G03X3341197Y2884126I0J-110814D01*
G01X3482340Y798626D02*
G03X3482340Y1035254I0J118314D01*
G03X3482340Y798626I0J-118314D01*
G01X3712414Y3276600D02*
G03X3475786Y3276600I-118314J0D01*
G03X3712414Y3276600I118314J0D01*
G01X3596640Y1517446D02*
G03X3596640Y1754074I0J118314D01*
G03X3596640Y1517446I0J-118314D01*
G01X3595197Y2884126D02*
G03X3595197Y3105754I0J110814D01*
G03X3595197Y2884126I0J-110814D01*
G01X4103197Y341586D02*
G03X4103197Y563214I0J110814D01*
G03X4103197Y341586I0J-110814D01*
G01X4300113Y3683000D02*
G03X4048486Y3683000I-125814J0D01*
G03X4300113Y3683000I125814J0D01*
G01X4323643Y1850885D02*
G03X4210479Y1895440I-66273J-2336D01*
G03X4255034Y1782276I46891J-46891D01*
G01X4699097Y1338212D01*
G03X4812261Y1293657I66273J2336D01*
G03X4767706Y1406821I-46891J46891D01*
G01X4323643Y1850885D01*
G01X4474414Y3276600D02*
G03X4237786Y3276600I-118314J0D01*
G03X4474414Y3276600I118314J0D01*
G01X4357197Y2884126D02*
G03X4357197Y3105754I0J110814D01*
G03X4357197Y2884126I0J-110814D01*
G01X4357197Y341586D02*
G03X4357197Y563214I0J110814D01*
G03X4357197Y341586I0J-110814D01*
G01X4611197Y341586D02*
G03X4611197Y563214I0J110814D01*
G03X4611197Y341586I0J-110814D01*
G01X4541876Y3720300D02*
G01X4541876Y3620300D01*
G03X4809920Y3589308I135814J0D01*
G03X4992700Y3611885I82781J80992D01*
G03X5192700Y3611885I100000J58415D01*
G03X5375480Y3589308I100000J58415D01*
G03X5643524Y3620300I132230J30992D01*
G01X5643524Y3720300D01*
G03X5375480Y3751292I-135814J0D01*
G03X5192700Y3728715I-82781J-80992D01*
G03X4992700Y3728715I-100000J-58415D01*
G03X4809920Y3751292I-100000J-58415D01*
G03X4541876Y3720300I-132230J-30992D01*
G01X4982414Y3276600D02*
G03X4745786Y3276600I-118314J0D01*
G03X4982414Y3276600I118314J0D01*
G01X4865197Y2884126D02*
G03X4865197Y3105754I0J110814D01*
G03X4865197Y2884126I0J-110814D01*
G01X4865197Y341586D02*
G03X4865197Y563214I0J110814D01*
G03X4865197Y341586I0J-110814D01*
G01X5037574Y2727620D02*
G03X4993077Y2614434I2370J-66272D01*
G03X5106218Y2659046I46867J46915D01*
G01X5337106Y2890168D01*
G03X5475587Y2952559I36091J104772D01*
G03X5421711Y3094570I-102390J42381D01*
G01X5421711Y3169190D01*
G03X5370897Y3394908I-49611J107410D01*
G03X5324683Y3168203I1203J-118308D01*
G01X5324683Y3094570D01*
G03X5268462Y2958742I48514J-99630D01*
G01X5037574Y2727620D01*
G01X5236414Y3276600D02*
G03X4999786Y3276600I-118314J0D01*
G03X5236414Y3276600I118314J0D01*
G01X5119197Y2884126D02*
G03X5119197Y3105754I0J110814D01*
G03X5119197Y2884126I0J-110814D01*
G01X5119197Y341586D02*
G03X5119197Y563214I0J110814D01*
G03X5119197Y341586I0J-110814D01*
G01X5373197Y341586D02*
G03X5373197Y563214I0J110814D01*
G03X5373197Y341586I0J-110814D01*
G01X5744414Y3276600D02*
G03X5507786Y3276600I-118314J0D01*
G03X5744414Y3276600I118314J0D01*
G01X5507786Y165100D02*
G03X5744414Y165100I118314J0D01*
G03X5507786Y165100I-118314J0D01*
G01X5627197Y2884126D02*
G03X5627197Y3105754I0J110814D01*
G03X5627197Y2884126I0J-110814D01*
G01X5627197Y341586D02*
G03X5627197Y563214I0J110814D01*
G03X5627197Y341586I0J-110814D01*
G01X5834386Y3670300D02*
G03X6256014Y3670300I210814J0D01*
G03X5834386Y3670300I-210814J0D01*
G01X5834386Y190500D02*
G03X6256014Y190500I210814J0D01*
G03X5834386Y190500I-210814J0D01*
G54D11*
G01X3764046Y3683000D02*
G01X3789954Y3683000D01*
G01X3674301Y3772746D02*
G01X3674301Y3798654D01*
G01X1782846Y3683000D02*
G01X1808754Y3683000D01*
G01X1603355Y3683000D02*
G01X1577447Y3683000D01*
G01X1693101Y3593254D02*
G01X1693101Y3567346D01*
G01X1693101Y3772746D02*
G01X1693101Y3798654D01*
G01X792246Y3683000D02*
G01X818154Y3683000D01*
G01X612755Y3683000D02*
G01X586847Y3683000D01*
G01X702501Y3593254D02*
G01X702501Y3567346D01*
G01X702501Y3772746D02*
G01X702501Y3798654D01*
G01X2773446Y3683000D02*
G01X2799354Y3683000D01*
G01X2593955Y3683000D02*
G01X2568047Y3683000D01*
G01X2683701Y3772746D02*
G01X2683701Y3798654D01*
G01X2292046Y1181100D02*
G01X2317954Y1181100D01*
G01X2209800Y1263346D02*
G01X2209800Y1289254D01*
G01X3088640Y1553514D02*
G01X3088640Y1527606D01*
G01X3088640Y1718006D02*
G01X3088640Y1743914D01*
G01X3006394Y1635760D02*
G01X2980486Y1635760D01*
G01X3170886Y1635760D02*
G01X3196794Y1635760D01*
G01X2292046Y1689100D02*
G01X2317954Y1689100D01*
G01X2127554Y1689100D02*
G01X2101646Y1689100D01*
G01X2209800Y1606854D02*
G01X2209800Y1580946D01*
G01X2209800Y1771346D02*
G01X2209800Y1797254D01*
G01X3228340Y834694D02*
G01X3228340Y808786D01*
G01X3228340Y999186D02*
G01X3228340Y1025094D01*
G01X3146094Y916940D02*
G01X3120186Y916940D01*
G01X3310586Y916940D02*
G01X3336494Y916940D01*
G01X3088640Y2315514D02*
G01X3088640Y2289606D01*
G01X3088640Y2480006D02*
G01X3088640Y2505914D01*
G01X3006394Y2397760D02*
G01X2980486Y2397760D01*
G01X3170886Y2397760D02*
G01X3196794Y2397760D01*
G01X5708346Y3276600D02*
G01X5734254Y3276600D01*
G01X5543854Y3276600D02*
G01X5517946Y3276600D01*
G01X5626100Y3194354D02*
G01X5626100Y3168446D01*
G01X5626100Y3358846D02*
G01X5626100Y3384754D01*
G01X5627197Y2920194D02*
G01X5627197Y2894286D01*
G01X5627197Y3069686D02*
G01X5627197Y3095594D01*
G01X5552451Y2994940D02*
G01X5526543Y2994940D01*
G01X5701943Y2994940D02*
G01X5727851Y2994940D01*
G04 Copper End*

G04 Pad Start*
G54D12*
G01X800100Y165100D03*
G01X1054100Y165100D03*
G01X1308100Y165100D03*
G01X1562100Y165100D03*
G01X1816100Y165100D03*
G01X2070100Y165100D03*
G01X2324100Y165100D03*
G01X2578100Y165100D03*
G01X2832100Y165100D03*
G01X3086100Y165100D03*
G01X3340100Y165100D03*
G01X3594100Y165100D03*
G01X3848100Y165100D03*
G01X4102100Y165100D03*
G01X4356100Y165100D03*
G01X4610100Y165100D03*
G01X4864100Y165100D03*
G01X5118100Y165100D03*
G01X5372100Y165100D03*
G01X5626100Y165100D03*
G01X5626100Y3276600D03*
G01X5372100Y3276600D03*
G01X5118100Y3276600D03*
G01X4864100Y3276600D03*
G01X4610100Y3276600D03*
G01X4356100Y3276600D03*
G01X4102100Y3276600D03*
G01X3848100Y3276600D03*
G01X3594100Y3276600D03*
G01X3340100Y3276600D03*
G01X3086100Y3276600D03*
G01X2832100Y3276600D03*
G01X2578100Y3276600D03*
G01X2324100Y3276600D03*
G01X2070100Y3276600D03*
G01X1816100Y3276600D03*
G01X1562100Y3276600D03*
G01X1308100Y3276600D03*
G01X1054100Y3276600D03*
G01X800100Y3276600D03*
G54D13*
G01X4174300Y3683000D03*
G01X3674301Y3683000D03*
G01X3183700Y3683000D03*
G01X2683701Y3683000D03*
G01X2193100Y3683000D03*
G01X1693101Y3683000D03*
G54D14*
G01X5507711Y3670300D03*
G01X4677689Y3670300D03*
G54D16*
G01X5092700Y3670300D03*
G01X4892700Y3670300D03*
G01X5292700Y3670300D03*
G54D12*
G01X3736340Y916940D03*
G01X3482340Y916940D03*
G01X3228340Y916940D03*
G01X3342640Y2397760D03*
G01X3342640Y1635760D03*
G01X3596640Y2397760D03*
G01X3088640Y2397760D03*
G01X3088640Y1635760D03*
G01X3596640Y1635760D03*
G01X2209800Y2451100D03*
G01X2209800Y2197100D03*
G01X2209800Y1943100D03*
G01X2209800Y1689100D03*
G01X2209800Y1435100D03*
G01X2209800Y1181100D03*
G01X2209800Y927100D03*
G54D17*
G01X914400Y1562100D03*
G01X914400Y1816100D03*
G54D13*
G01X1202500Y3683000D03*
G01X702501Y3683000D03*
G54D17*
G01X801197Y452400D03*
G01X1055197Y452400D03*
G01X1309197Y452400D03*
G01X1563197Y452400D03*
G01X1817197Y452400D03*
G01X2071197Y452400D03*
G01X2325197Y452400D03*
G01X2579197Y452400D03*
G01X2833197Y452400D03*
G01X3087197Y452400D03*
G01X3341197Y452400D03*
G01X3595197Y452400D03*
G01X3849197Y452400D03*
G01X4103197Y452400D03*
G01X4357197Y452400D03*
G01X4611197Y452400D03*
G01X4865197Y452400D03*
G01X5119197Y452400D03*
G01X5373197Y452400D03*
G01X5627197Y452400D03*
G01X5627197Y2994940D03*
G01X5373197Y2994940D03*
G01X5119197Y2994940D03*
G01X4865197Y2994940D03*
G01X4611197Y2994940D03*
G01X4357197Y2994940D03*
G01X4103197Y2994940D03*
G01X3849197Y2994940D03*
G01X3595197Y2994940D03*
G01X3341197Y2994940D03*
G01X3087197Y2994940D03*
G01X2833197Y2994940D03*
G01X2579197Y2994940D03*
G01X2325197Y2994940D03*
G01X2071197Y2994940D03*
G01X1817197Y2994940D03*
G01X1563197Y2994940D03*
G01X1309197Y2994940D03*
G01X1055197Y2994940D03*
G01X801197Y2994940D03*
G04 Pad End*

G04 Via Start*
G54D18*
G01X3555492Y1047052D03*
G01X2683701Y2904300D03*
G01X5039944Y2661349D03*
G01X3976197Y833400D03*
G01X4174300Y2834903D03*
G01X4765370Y1340549D03*
G01X4257370Y1848549D03*
G01X2274397Y2791740D03*
G01X4837506Y2260631D03*
G01X4889068Y1721549D03*
G01X3696797Y731800D03*
G04 Via End*

G04 Track Start*
G54D11*
G01X3358452Y1047052D02*
G01X3228340Y916940D01*
G01X3453892Y1047052D02*
G01X3453892Y1270508D01*
G01X3088640Y1635760D01*
G01X2212340Y1686560D02*
G01X2209800Y1689100D01*
G01X2275840Y1686560D02*
G01X2326640Y1635760D01*
G01X2326640Y1297940D01*
G01X2209800Y1181100D01*
G01X3088640Y2397760D02*
G01X3088640Y2499360D01*
G01X2683701Y2904300D01*
G01X3848100Y3276600D02*
G01X3568700Y3556000D01*
G01X2320100Y3556000D01*
G01X2193100Y3683000D01*
G01X1308100Y3276600D02*
G01X1460500Y3124200D01*
G01X2603500Y3124200D01*
G01X2705100Y3022600D01*
G01X2705100Y2971800D01*
G01X3279140Y2397760D01*
G01X3342640Y2397760D01*
G01X5372100Y165100D02*
G01X5245100Y38100D01*
G01X3806000Y38100D01*
G01X3729800Y114300D01*
G01X3729800Y190500D01*
G01X3577400Y342900D01*
G01X3552000Y342900D01*
G01X3450400Y444500D01*
G01X3450400Y495300D01*
G01X2891600Y1054100D01*
G01X2180400Y1054100D01*
G01X1177100Y2057400D01*
G01X1177100Y3657600D01*
G01X1202500Y3683000D01*
G01X5039944Y2661349D02*
G01X5373197Y2994940D01*
G01X5373197Y3275503D01*
G01X5372100Y3276600D01*
G01X1562100Y3276600D02*
G01X1689100Y3403600D01*
G01X2616200Y3403600D01*
G01X2717800Y3302000D01*
G01X2717800Y3225800D01*
G01X2844800Y3098800D01*
G01X2895600Y3098800D01*
G01X2971800Y3022600D01*
G01X2971800Y2946400D01*
G01X3520440Y2397760D01*
G01X3596640Y2397760D01*
G01X3976197Y833400D02*
G01X3976197Y2636800D01*
G01X4174300Y2834903D01*
G01X4765370Y1340549D02*
G01X4257370Y1848549D01*
G01X2274397Y2791740D02*
G01X2325197Y2740940D01*
G01X2325197Y2312497D01*
G01X2209800Y2197100D01*
G01X4837506Y2260631D02*
G01X4103197Y2994940D01*
G01X4103197Y3275503D01*
G01X4102100Y3276600D01*
G01X3848100Y165100D02*
G01X3848100Y2730500D01*
G01X3975100Y2857500D01*
G01X3975100Y3314700D01*
G01X3746500Y3543300D01*
G01X3644900Y3543300D01*
G01X3517900Y3670300D01*
G01X3196400Y3670300D01*
G01X3183700Y3683000D01*
G01X4889068Y1721549D02*
G01X4914468Y1746949D01*
G01X4914468Y2691669D01*
G01X4611197Y2994940D01*
G01X4611197Y3275503D01*
G01X4610100Y3276600D01*
G01X3696797Y731800D02*
G01X3696797Y877397D01*
G01X3736340Y916940D01*
G01X3555492Y1047052D02*
G01X3453892Y1047052D01*
G01X3358452Y1047052D01*
G01X3088640Y1635760D02*
G01X3088640Y1686560D01*
G01X3088640Y2397760D01*
G01X3088640Y1686560D02*
G01X2275840Y1686560D01*
G01X2212340Y1686560D01*
G04 Track End*

M02*

